<svg xmlns="http://www.w3.org/2000/svg" width="764" height="643" fill="none"><path stroke="#000" stroke-linecap="round" d="M93.77 454.684c-2.603-6.691-5.57-25.698 16.153-21.947 17.831 3.079 18.307-13.801 16.152-22.423M566.743 429.686c-1.399-2.855-3.415-11.141 6.327-10.301 8.006.7 7.586-6.775 6.298-10.526M111.714 189.477c-2.267-4.563-6.046-16.992 7.251-11.953 10.945 4.143 9.433-6.494 7.222-12.233M310.969 349.207c-1.792-3.611-4.787-13.465 5.738-9.462 8.65 3.303 7.447-5.151 5.711-9.685M588.466 228.92c-1.792-3.611-4.787-13.465 5.739-9.462 8.649 3.303 7.446-5.151 5.71-9.686M338.067 167.224c-1.651-3.303-4.395-12.317 5.263-8.65 7.922 3.023 6.83-4.703 5.235-8.874M484.052 553.695c-1.792-3.611-4.787-13.465 5.738-9.462 8.678 3.304 7.475-5.15 5.711-9.685M245.102 194.041c-4.143-8.37-11.085-31.157 13.297-21.891 20.043 7.614 17.271-11.897 13.24-22.422"/><path stroke="#00C471" stroke-linecap="round" stroke-width="30" d="M201.572 505.968c-30.233-74.77-68.696-284.606 166.391-229.88C561.115 321.045 560.527 136.851 534.354 41.03" class="stroke-primary"/><path stroke="#000" stroke-linecap="round" d="M680.786 380.446c-4.143-8.37-11.113-31.156 13.296-21.891 20.044 7.614 17.272-11.897 13.213-22.422"/><path stroke="#FF7A00" stroke-linecap="round" d="M712.557 1 569.345 173.102M650.274 99.452l-79.052 97.612"/><path stroke="#000" stroke-linecap="round" d="m109.644 86.323-50.416 60.465-50.415 60.465M168.429 45.65 55.617 180.687M122.492 128.341 29.527 241.909M762.665 396.878 639.804 545.577M724.791 469.437 615.729 601.004"/><path stroke="#000" d="M665.95 283.897c5.658 0 10.245-4.587 10.245-10.245 0-5.659-4.587-10.246-10.245-10.246-5.659 0-10.246 4.587-10.246 10.246 0 5.658 4.587 10.245 10.246 10.245ZM321.103 26.977a4.255 4.255 0 1 0 0-8.51 4.255 4.255 0 0 0 0 8.51ZM8.812 114.708a8.146 8.146 0 1 0 0-16.292 8.146 8.146 0 0 0 0 16.292ZM234.101 420.169c10.822 0 19.595-8.773 19.595-19.595s-8.773-19.595-19.595-19.595-19.595 8.773-19.595 19.595 8.773 19.595 19.595 19.595ZM10.268 475.622a8.51 8.51 0 1 0 0-17.02 8.51 8.51 0 0 0 0 17.02ZM528.056 154.011c7.127 0 12.905-5.778 12.905-12.905s-5.778-12.905-12.905-12.905-12.905 5.778-12.905 12.905 5.778 12.905 12.905 12.905ZM660.294 474.419c11.023 0 19.959-8.936 19.959-19.959s-8.936-19.959-19.959-19.959-19.959 8.936-19.959 19.959 8.936 19.959 19.959 19.959ZM569.346 315.083c5.875 0 10.638-4.762 10.638-10.637s-4.763-10.637-10.638-10.637c-5.874 0-10.637 4.762-10.637 10.637s4.763 10.637 10.637 10.637ZM397.636 641.958a3.78 3.78 0 1 0 0-7.56 3.78 3.78 0 0 0 0 7.56ZM160.591 339.493a3.78 3.78 0 1 0 0-7.558 3.78 3.78 0 0 0 0 7.558Z"/><path stroke="#FF7A00" stroke-width="3" d="M55.897 387.417c25.03 0 45.321-20.291 45.321-45.321s-20.291-45.321-45.321-45.321-45.32 20.291-45.32 45.321 20.29 45.321 45.32 45.321Z"/><path stroke="#FF7A00" d="M681.653 233.623c29.39 0 53.215-23.825 53.215-53.215s-23.825-53.215-53.215-53.215c-29.389 0-53.215 23.825-53.215 53.215s23.826 53.215 53.215 53.215Z"/><path stroke="#FF7A00" stroke-width="2" d="M512.549 388.62a8.119 8.119 0 1 0-.001-16.237 8.119 8.119 0 0 0 .001 16.237Z"/><path stroke="#000" stroke-linecap="round" d="m133.913 572.704-9.321 30.513M220.523 530.153l30.261 10.106M464.316 585.775l-25.11 19.68M559.688 600.416l19.036 25.614M211.118 526.206c.504 1.008.28 2.548-1.063 4.675-1.288 2.072-3.527 4.479-6.523 7.11-5.99 5.207-14.976 11.086-25.529 16.376-10.554 5.291-20.631 8.958-28.385 10.638-3.891.839-7.139 1.175-9.574.979-2.491-.196-3.863-.923-4.367-1.959-.504-1.008-.28-2.547 1.064-4.675 1.287-2.071 3.527-4.479 6.522-7.11 5.991-5.207 14.976-11.085 25.53-16.376s20.631-8.958 28.385-10.638c3.891-.839 7.138-1.175 9.573-.979 2.492.224 3.864.951 4.367 1.959ZM555.462 587.875c-.112 1.12-1.148 2.296-3.387 3.359-2.212 1.036-5.375 1.904-9.294 2.492-7.866 1.175-18.588 1.315-30.317.084-11.729-1.204-22.226-3.527-29.672-6.299-3.723-1.371-6.663-2.855-8.594-4.339-1.988-1.511-2.744-2.855-2.632-4.003.112-1.119 1.148-2.295 3.388-3.359 2.211-1.036 5.374-1.903 9.293-2.491 7.866-1.176 18.588-1.316 30.317-.084 11.729 1.204 22.198 3.527 29.644 6.298 3.724 1.372 6.663 2.856 8.594 4.339 1.988 1.512 2.772 2.855 2.66 4.003ZM75.324 562.429c39.526-29.113 117.571-70.627 214.623-92.125m327.8 21.274c-29.561-13.324-104.275-28.861-119.559-28.861m-123.478-4.982c9.574-.7 19.232-1.176 29.001-1.4"/><path fill="#FF6B6B" d="M211.255 206.558c-8.134-16.373-27.516-23.279-43.262-15.432s-21.919 27.464-13.784 43.812 65.678 52.259 65.678 52.259c1.805-.052-.471-64.291-8.632-80.639m-40.829 12.215c0-7.062 5.728-12.79 12.79-12.79s12.79 5.728 12.79 12.79-5.728 12.791-12.79 12.791-12.79-5.703-12.79-12.791"/><path stroke="#000" d="M183.216 231.564c7.064 0 12.79-5.726 12.79-12.79s-5.726-12.791-12.79-12.791-12.79 5.727-12.79 12.791 5.726 12.79 12.79 12.79Z"/><path fill="#FF6B6B" d="M95.256 231.439c-9.042-3.415-19.232 1.4-22.787 10.777-3.555 9.378 3.415 45.937 3.415 45.937.7.728 25.726-24.158 29.281-33.536 3.555-9.349-.868-19.735-9.91-23.178m-10.358 20.995c-2.52-2.716-2.351-6.942.364-9.434 2.715-2.519 6.942-2.351 9.434.364 2.52 2.715 2.351 6.942-.364 9.434-2.715 2.519-6.942 2.351-9.434-.364"/><path stroke="#000" d="M89.796 254.589a6.69 6.69 0 1 0-.001-13.382 6.69 6.69 0 0 0 0 13.382Z"/><path fill="#FF6B6B" d="M588.101 258.76c-4.842-1.596-10.105 1.175-11.785 6.214s.308 23.542.84 23.486c0 0 15.032-12.653 16.684-17.691 1.652-5.039-.896-10.386-5.739-12.009m-6.69 9.069c-.28-1.903 1.064-3.667 2.939-3.947 1.904-.28 3.667 1.064 3.947 2.94.28 1.903-1.063 3.667-2.939 3.947-1.875.28-3.667-1.036-3.947-2.94"/><path stroke="#000" d="M584.854 270.798a3.471 3.471 0 1 0 0-6.942 3.471 3.471 0 0 0 0 6.942Z"/><path fill="#FF6B6B" d="M391.003 136.57c-2.548 11.253 6.886 22.87 13.52 24.718.728 5.262 1.932 16.404.784 18.867s-16.88 7.53-24.606 9.77c.868 1.987 6.747 8.006 23.206 16.068 34.012 13.52 51.704-11.562 51.956-12.905-30.065-21.807-23.263-37.539-23.011-38.743.616.112 7.866-3.723 11.058-8.314 2.463-3.527 3.583-6.186 4.339-10.441.895-5.011 1.063-8.174-.392-13.073-3.192-10.721-14.277-16.6-22.171-18.167-7.894-1.596-14.052 2.855-20.659 9.909-7.194 7.642-11.477 11.029-14.024 22.311"/><path fill="#E34545" d="M431.508 148.832c-1.988-.224-2.967-1.456-3.191-2.044-.168.672-.308 2.1.532 2.435.811.364 2.127-.111 2.659-.391M440.326 141.133c-2.267-.896-4.758.615-5.738 1.483 0 0 2.771-.7 4.535-.448 1.679.224 2.547 1.624 2.547 1.624.084-.644-.084-2.071-1.344-2.659M422.074 158.293s-4.059 2.603-17.496 2.883c0 0 1.344 14.641 1.372 15.089 9.881-11.31 16.124-17.972 16.124-17.972"/><path stroke="#000" stroke-linecap="round" d="M402.759 139.062s-3.639-2.688-2.967-4.787c.42-1.344 7.334-6.97 7.334-6.97"/><path fill="#000" d="M405.027 99.255c-4.199 6.27 23.01 27.013 36.195 35.299l-3.388 4.507c1.484-.224 5.515-.728 6.159 2.211.952 5.991-6.942 7.894-12.149 8.006.476 1.932.896 5.151.896 5.151 29.56-13.913 18.027-40.31 12.233-47.672-.98-3.863-2.072-12.43-9.266-14.64-13.101-4.004-16.208 6.186-16.208 6.186s-10.274-5.319-14.472.952M417.095 132.766c.824-.964 1.025-2.144.449-2.636s-1.711-.11-2.534.854c-.824.964-1.025 2.144-.449 2.637s1.711.109 2.534-.855M403.119 124.38c.505-1.146.352-2.322-.341-2.628-.694-.305-1.665.376-2.17 1.522-.504 1.147-.352 2.323.342 2.629.693.305 1.664-.377 2.169-1.523"/><path stroke="#000" stroke-linecap="round" d="M406.287 161.456c4.087-.196 13.549-1.148 18.644-3.583"/><path fill="#2039D2" d="M427.057 481.894c-34.151 8.23-46.608-11.785-53.579-19.875-6.998-8.09-8.118-18.531-8.118-18.531 9.714-21.779 36.447-40.226 46.945-45.237 4.479 12.989 6.746 34.376 43.669 23.906 10.693-3.023 19.595-9.406 28.245-10.469l10.078 69.059c-8.342-1.036-39.555-5.543-67.24 1.147"/><path fill="#122AC1" d="M364.801 445.195c10.861-27.853 38.826-35.691 48.96-41.822-5.571 5.935-20.603 25.138-18.98 39.414 2.072 18.448 14.585 14.977 17.3 41.178-25.95 1.54-43.445-25.642-47.28-38.77"/><path stroke="#000" stroke-linecap="round" d="M360.881 452.278c5.85-8.286 17.859-23.655 38.294-34.068"/><path fill="#2039D2" d="M406.454 409.504c49.464-27.573 51.452-82.608 48.876-99.6 0 0-25.389-10.049-43.725-12.68-29.701-4.227-48.372 1.959-48.372 1.959s-7.894 22.619-11.225 34.656c-4.787 17.271-6.942 46.244-6.942 46.244-.112.112-29.785 24.354-29.785 24.354-22.059 19.119-27.573 50.612-31.296 78.801-2.52 19.035.084 55.118-7.755 67.323l76.282-4.199c-8.706-22.814-24.018-93.385 53.942-136.858"/><path stroke="#000" stroke-linecap="round" d="m358.585 541.686-61.36-18.811M470.698 398.306l8.454 63.628"/><path fill="#122AC1" d="M345.037 380.084c30.625-28.273 38.071-51.731 43.697-61.389-4.395 4.087-10.301 16.068-23.262 22.339s-17.804 16.46-18.335 18.895c-.504 2.408-2.1 20.155-2.1 20.155"/><path fill="#000" d="M370.399 591.823c-2.379-15.06-13.269-38.574-17.972-45.6l-74.965 2.827c.028.98-.112 3.107-.896 5.655-1.26 4.198-5.85 17.271-24.914 34.767-15.256 13.997-20.995 35.439-22.142 44.089 50.387-15.452 141.281-40.45 140.889-41.738M515.487 394.555c-10.973 3.136-27.461 13.353-32.276 17.468l8.874 55.482c.728-.111 2.323-.195 4.283.14 3.247.56 13.352 2.772 28.105 15.397 11.785 10.077 28.245 12.401 34.767 12.485-16.04-36.084-42.857-101.363-43.753-100.972"/><path fill="#122AC1" d="M416.672 312.116c-.28 9.462 3.611 31.296 21.555 42.858z"/><path stroke="#000" stroke-linecap="round" d="m371.995 318.358 15.452-3.527M416.896 312.928s-.112 24.186 17.999 39.134M385.935 325.833c-4.507 11.589-38.462 50.22-63.208 67.687-51.843 36.559-44.089 106.598-50.528 123.842M399.232 307.497l.672 15.844M416.391 373.672l-10.162 12.149M391.758 346.855l14.808 5.627M363.989 380.531l3.891 15.368M359.901 433.242l-6.243 14.585M306.407 456.168l3.947 15.34M335.408 506.78l-6.97 14.249M408.777 443.039l-15.816 1.176M452.448 451.41l-6.97 14.221"/><path fill="#FF6B6B" d="M348.9 237.15c-3.275 6.215-4.227 16.964-25.054 17.776s-28.693-2.771-30.036-4.675c-3.835-8.65-12.317-25.782-15.481-25.054-3.975.896-1.679 8.034 1.204 20.127 1.904 9.322-22.562-1.567-24.522-2.575-1.987-1.036-6.242-2.603-7.362.448-.7 1.875 8.006 7.698 16.236 11.645-4.703-1.876-20.267-7.39-22.702-7.222-2.52.14-4.815 4.871 18.167 13.856-6.466-2.267-15.368-4.479-16.152-2.547-1.092 2.715 9.098 7.446 17.356 10.161-3.219-.811-9.854-2.211-11.505-1.903-2.044.42-2.296 2.127-.756 3.275 1.399 1.036 55.79 19.287 71.606 20.379 15.816 1.064 25.726 2.491 36.615-2.183 6.494-2.8 10.078-6.607 10.973-7.81l4.815-21.051zM462.048 249.131c3.751 4.171 44.649 34.572-2.072 59.821-14.472 7.81-27.545 12.821-29.756 12.177-8.398-4.395-21.163-7.026-23.207-4.478-2.547 3.191 3.443 4.87 8.258 8.901 7.278 6.103-15.9 14.725-18.055 15.145-2.212.447-6.523 1.875-5.487 4.954.616 1.904 11.057 1.036 19.959-.979-4.843 1.455-20.463 6.858-22.254 8.482-1.876 1.679-.728 6.802 22.87-.476-6.494 2.267-14.808 6.074-14.221 8.062.84 2.799 11.758.168 19.932-2.856-3.024 1.372-9.098 4.395-10.162 5.683-1.344 1.596-.476 3.107 1.456 3.023 1.735-.056 53.774-22.282 67.603-30.036 14.92-8.37 37.399-23.795 44.453-33.592 12.205-16.992 2.995-32.528 2.939-34.04l-28.245-41.485z"/><path fill="#E34545" d="m378.518 267.047-30.233-26.285c15.34 17.719 20.379 33.479 20.743 33.088.476-.532 5.347-4.255 9.49-6.803M463.111 250.14l33.872-21.443c-17.944 15.061-25.278 30.121-25.558 29.701-.392-.616-4.619-5.067-8.314-8.258"/><path stroke="#000" stroke-linecap="round" d="M276.931 252.52c.28 4.534 5.542 12.316 12.289 15.2M266.32 268.559c3.052-1.092 9.602-1.792 13.381-.868M475.904 267.579c6.047 6.634 8.678 18.196 8.034 23.542M342.182 242.889c-1.4 7.866-8.118 16.012-12.261 18.475M419.05 341.845l-3.303 1.007M422.045 347.946l-3.303 1.008M425.154 353.349l-3.303 1.007"/><path fill="#FFB905" d="M404.327 181.108c18.252 11.421 31.073 2.436 34.824-3.611 0 0 5.99 1.148 17.943 5.319 16.264 5.71 40.31 20.491 51.088 38.546l-45.181 29.253-8.342-8.398c-.84 23.01.868 69.591.784 68.387-36.475-16.404-80.089-15.2-92.182-11.281l8.566-37.819-34.319-25.697c1.539-4.115 23.962-32.136 33.983-40.282 7.391-5.963 24.718-12.625 32.836-14.417"/><path fill="#FF7D05" d="M372.387 194.853c9.041-6.55 24.886-12.233 32.024-13.661l4.339 2.352c-.616.812-4.479 3.303-15.033 6.83-13.772 4.899-19.959 5.067-21.33 4.479M407.211 297.896c23.514 2.939 42.046 9.658 48.26 12.821l2.855-66.848s-19.035-40.226-12.485-15.984c6.523 24.242-8.146 58.87-22.002 63.181-13.857 4.311-15.62 5.598-16.628 6.83"/><path stroke="#000" stroke-linecap="round" d="M374.599 247.592c-1.064 16.012-4.787 30.148-16.46 52.655M384.061 294.732c24.13.448 45.572 4.703 79.892 19.372M458.606 226.933c-.644 10.861.056 20.491 3.779 35.943M445.504 220.859c3.947 4.563 6.746 9.182 9.853 17.832"/><path stroke="#fff" d="M413.509 244.037c7.56 0 13.689-6.128 13.689-13.688s-6.129-13.689-13.689-13.689-13.689 6.129-13.689 13.689 6.129 13.688 13.689 13.688Z"/><path stroke="#000" d="M422.27 185.951c35.682 0 64.608-28.926 64.608-64.609s-28.926-64.608-64.608-64.608-64.608 28.926-64.608 64.608 28.926 64.609 64.608 64.609ZM471.594 79.128l24.942-22.366"/><path fill="#000" d="M497.375 57.91a1.847 1.847 0 1 0 0-3.695 1.847 1.847 0 0 0 0 3.695"/><path stroke="#000" d="M369.195 84.028 344.253 61.66"/><path fill="#000" d="M343.413 62.807a1.848 1.848 0 1 0 0-3.696 1.848 1.848 0 0 0 0 3.696"/></svg>