<svg xmlns="http://www.w3.org/2000/svg" width="852" height="717" fill="none"><path fill="#FFB905" d="M488.608 553.025c134.783-63.539 226.747-151.743 205.408-197.008s-147.901-30.452-282.684 33.088c-134.783 63.539-226.747 151.743-205.408 197.009s147.901 30.451 282.684-33.089"/><path stroke="#000" stroke-linecap="round" d="M334.726 405.859c-99.679 69.412-158.121 148.35-134.769 188.787 27.255 47.166 155.632 24.028 286.744-51.745 131.112-75.741 215.273-175.389 188.018-222.586-10.785-18.651-37.394-26.333-73.714-24.059"/><path stroke="#000" stroke-linecap="round" d="M230.838 634.56c27.255 47.166 155.632 24.028 286.744-51.744 131.081-75.742 215.273-175.39 188.018-222.587M269.277 626.355l14.043 25.535M308.823 621.899l15.364 29.99M580.756 490.111l15.363 29.99M678.56 379.71l14.103 32.448M686.488 353.407l10.939 25.104M349.721 613.542l15.363 29.989M390.004 594.03l15.978 34.476M435.971 576.793l15.978 34.476M476.931 554.577l15.978 34.476M537.063 520.102l15.978 34.475M653.026 416.644l15.978 34.475M451.272 569.449l12.906 29.252M599.93 470.908l15.332 29.744M653.026 335.617c-10.662-18.467-56.875-17.945-111.907.153M242.698 569.172c-15.087-26.087 37.426-86.527 119.928-142.757z"/><path stroke="#000" stroke-linecap="round" d="M652.965 342.038c-10.54-18.221-50.884-16.531-104.933.922M249.335 575.256c-14.626-25.319 24.92-75.035 103.058-129.668zM392.492 458.34l11.431-4.24M391.478 465.592l18.159-7.251M433.175 468.572l-104.533 65.356M344.896 550.582l12.505 6.268M303.262 529.104l12.506 6.269M291.862 532.914l64.189 32.632M548.586 399.559l45.599-15.855-52.298 34.599m-188.54 119.036 94.086-60.501zM646.42 195.133c-3.226-8.327-6.914-31.956 20.065-27.316 22.185 3.81 22.768-17.176 20.095-27.9M676.102 302.494c-1.475-3.841-3.195-14.749 9.28-12.598 10.232 1.752 10.508-7.927 9.279-12.875"/><path stroke="#5022AF" stroke-linecap="round" d="M470.416 131.59c-1.536-3.964-3.288-15.241 9.587-13.028 10.57 1.812 10.877-8.174 9.587-13.305M243.467 715.557c-1.537-3.964-3.288-15.241 9.587-13.029 10.57 1.813 10.877-8.173 9.586-13.304"/><path stroke="#000" stroke-linecap="round" d="M63.899 275.76c-3.227-8.296-6.914-31.956 20.064-27.316 22.185 3.81 22.769-17.176 20.096-27.9M601.958 427.275c-1.475-3.011-3.626-11.768 6.668-10.908 8.45.738 8.019-7.159 6.667-11.123M461.874 686.55c-2.427-4.978-5.961-19.45 11-17.976 13.95 1.199 13.213-11.829 11.001-18.344M241.93 323.295c-2.397-4.824-6.391-17.975 7.682-12.628 11.553 4.393 9.955-6.853 7.62-12.937M779.376 518.873c-2.581-7.068-5.193-27.224 17.791-23.23 18.897 3.288 19.88-14.595 17.822-23.721M63.592 517.52c-2.704-6.759-5.839-26.117 16.346-22.645 18.221 2.857 18.62-14.35 16.347-23.138"/><path stroke="#FF7A00" d="M564.471 639.844a7.927 7.927 0 0 0 7.927-7.927 7.927 7.927 0 1 0-7.927 7.927Z"/><path stroke="#FF7A00" stroke-width="10" d="M749.263 248.444c13.898 0 25.165-11.267 25.165-25.165s-11.267-25.166-25.165-25.166-25.165 11.267-25.165 25.166c0 13.898 11.267 25.165 25.165 25.165Z"/><path stroke="#7432FF" stroke-width="5" d="M193.781 592.556c15.765 0 28.545-12.781 28.545-28.546s-12.78-28.545-28.545-28.545-28.546 12.78-28.546 28.545 12.781 28.546 28.546 28.546ZM557.742 153.344c16.868 0 30.542-13.674 30.542-30.543 0-16.868-13.674-30.542-30.542-30.542s-30.543 13.674-30.543 30.542 13.675 30.543 30.543 30.543Z"/><path stroke="#7432FF" stroke-width="2" d="M660.984 489.866c7.365 0 13.335-5.97 13.335-13.335s-5.97-13.336-13.335-13.336-13.336 5.971-13.336 13.336 5.971 13.335 13.336 13.335Z"/><path stroke="#FF7A00" stroke-width="10" d="M123.816 168.247c27.457 0 49.716-22.259 49.716-49.716s-22.259-49.717-49.716-49.717S74.1 91.075 74.1 118.532s22.258 49.716 49.716 49.716Z"/><path stroke="#000" d="M693.985 571.324a7.13 7.13 0 1 0 0-14.259 7.13 7.13 0 0 0 0 14.259ZM322.988 170.183a4.179 4.179 0 1 0 0-8.358 4.179 4.179 0 0 0 0 8.358ZM780.758 169.015c27.492 0 49.778-22.286 49.778-49.777 0-27.492-22.286-49.778-49.778-49.778s-49.778 22.286-49.778 49.778 22.287 49.777 49.778 49.777ZM750.43 680.312c21.688 0 39.269-17.581 39.269-39.269s-17.581-39.269-39.269-39.269-39.269 17.582-39.269 39.269c0 21.688 17.582 39.269 39.269 39.269ZM14.581 492.816c7.501 0 13.582-6.081 13.582-13.581 0-7.501-6.08-13.582-13.582-13.582-7.5 0-13.581 6.081-13.581 13.582 0 7.5 6.08 13.581 13.581 13.581ZM65.926 103.536c13.288 0 24.06-10.771 24.06-24.059s-10.772-24.059-24.06-24.059-24.059 10.772-24.059 24.06 10.772 24.058 24.06 24.058Z"/><path stroke="#2039D2" stroke-linecap="round" d="m101.231 564.501-86.65 104.011M155.925 522.652 45.093 655.854M111.71 599.254l-61.178 75.557"/><path stroke="#000" stroke-linecap="round" d="M281.937 64.943 255.266 96.93l-26.671 31.987M350.151 1l-99.986 119.651M296.47 90.323l-82.379 100.631M851 281.782 721.147 438.92M814.281 362.933 698.993 501.972"/><path fill="#FF6B6B" d="M485.411 195.441c25.749-15.824 39.054 1.229 42.464 11.707.984 1.967 2.336 7.621 0 14.626-2.919 8.788-19.757 17.576-19.757 19.266 2.335 11.922 10.417 20.096 14.165 22.677l-17.084 24.643c-6.576-6.576-19.757-19.973-19.757-20.741-7.313-16.347-7.221-28.3-7.313-28.3-7.375-1.659-24.951-24.12 7.282-43.878"/><path fill="#E34545" d="M506.029 231.73c-1.997-.676-2.704-2.182-2.827-2.858-.338.645-.799 2.09-.031 2.643.799.583 2.243.399 2.858.215M515.431 222.204c-2.397-.953-5.039.645-6.053 1.567 0 0 2.919-.737 4.793-.492 1.782.246 2.674 1.721 2.674 1.721.092-.645-.062-2.151-1.414-2.796M496.319 236.523s-4.117 1.383-18.252 2.827c0 0 .615 9.065 2.704 15.763 9.434-11.246 15.548-18.59 15.548-18.59"/><path stroke="#000" stroke-linecap="round" d="M479.204 215.659s-2.366-4.148-.83-5.899c.983-1.107 10.048-3.626 10.048-3.626M480.863 239.534c3.903 0 16.316-2.028 21.478-5.561"/><path fill="#000" d="M517.95 181.983c-1.69-7.989-8.542-21.909-22.461-13.766-12.353 7.19 9.494 28.883 20.955 43.048 1.445 1.813-3.533 8.481-3.533 8.481 4.056-.614 9.648 2.919 5.715 7.897-3.411 4.302-11.307 4.824-12.014 4.302 0 0 0 2.919 1.444 8.788 7.989-3.135 24.889-11.277 28.76-18.621 4.825-9.187 7.959-25.38 0-34.568-6.391-7.344-10.723-5.316-12.075-3.38.553-1.382.922-4.455-2.182-5.807-2.243-.953-4.394 1.874-4.609 3.626M495.952 211.665c.95 0 1.721-.784 1.721-1.751 0-.968-.771-1.752-1.721-1.752s-1.721.784-1.721 1.752c0 .967.771 1.751 1.721 1.751M484.688 200.619c.683-.661.873-1.572.424-2.036-.448-.463-1.365-.303-2.048.357-.683.661-.873 1.572-.425 2.036s1.366.303 2.049-.357"/><path fill="#FF6B6B" d="M462.582 184.718c-.215 3.103-23.875 31.065-35.643 44.677l-3.595 5.961-24.274-10.97c-.185.154-.246.062-.277-.123l.277.123c.46-.368 1.567-2.212 3.902-7.743 4.025-9.587 4.148-26.21 4.855-33.861.706-7.62 2.366-27.624 5.838-26.763 3.472.829 1.598 17.883 1.475 19.419-.154 1.537 1.751 1.936 1.751 0 2.059-26.978 4.978-24.151 6.514-22.461 1.537 1.659-1.29 22.461 1.905 22.461 1.567 0 2.551-18.375 3.38-22.123.83-3.749 1.813-7.989 4.148-6.453 2.366 1.536 0 23.291 0 26.487 0 2.55 1.014 2.98 1.906 2.089 1.106-4.117 3.164-16.193 5.715-19.419 2.55-3.227 3.656-1.352 3.871 0l-3.871 29.959c-.984 4.332-.553 12.014 3.871 7.067 12.475-14.012 18.529-12.199 18.252-8.327M556.206 125.23c.093 3.257 17.884 31.956 16.347 47.812l-.031 9.556 31.035.614q.092.184.184 0h-.184c-.215-.522-.277-3.226.184-10.17.737-10.878 8.081-25.596 11-33.093s10.724-27.102 7.098-27.931-9.894 16.101-10.478 17.606-2.55 1.014-1.628-.799c10.723-26.363 6.668-25.042 4.455-24.182s-8.88 21.233-11.86 19.758c-1.445-.738 5.776-17.975 6.76-21.878.983-3.902 2.058-8.358-.861-8.02s-10.662 21.079-12.168 24.09c-1.198 2.397-2.028 2.059-2.458.799.891-4.394 4.056-15.578 3.196-19.788-.891-4.21-2.796-2.95-3.626-1.813l-10.416 30.02c-1.137 4.548-3.872 11.953-8.942 6.576-12.475-16.5-17.822-16.316-17.607-9.157"/><path stroke="#000" stroke-linecap="round" d="M436.219 196.824c-4.916.215-14.288 4.179-18.743 10.54M578.607 143.759c4.087 2.089 10.478 9.064 11.8 16.101M596.674 152.915c1.598-5.561 5.746-12.598 11.031-18.344M418.857 198.146c1.045-3.749 1.137-9.218.154-14.38"/><path fill="#7432FF" d="m402.909 216.212 22.769 15.179-5.9 17.76-4.21-1.444c-2.519 3.933-5.838 8.757-7.958 12.26-2.98-5.899-15.118-16.439-23.076-19.911 1.229-1.721 2.889-4.363 4.179-6.053l-1.813-1.659c-.952-.738-1.905-1.445-1.782-1.598.645-.369 15.087-12.813 17.791-14.534M467.128 266.112c-10.847-.553-30.635 7.59-39.177 12.168-2.52.983-4.855 1.69-7.067 2.151l25.933 39.853c3.257.399 5.562.952 6.514 1.751 5.562 4.64 6.822 7.959 3.442 15.179l24.09 36.811c28.392-5.377 50.791-.215 60.563 2.766-1.014-17.146.645-63.451 6.76-66.155 46.827-21.417 57.828-25.657 65.54-43.756 6.361-14.964-3.411-44.523-4.824-71.01h2.981c0-.184-4.487-26.148-4.487-26.548h-35.981c-.461 1.137-4.763 24.367-4.763 24.367 0 .246 3.811.891 3.811.891-.891 17.238 5.223 39.638 3.042 47.934-4.271 16.224-16.777 17.053-31.68 19.266-13.428 1.997-21.478.123-22 0-.062 0-15.118 23.199-15.118 23.199l-19.665-18.099c-4.548 2.489-2.643.031-17.914-.768"/><path fill="#6322EE" d="m494.69 300.22-32.939-33.83s-8.819 1.475-13.766 3.41l46.705 36.873 5.009-13.182zM515.001 300.864l27.193-38.961s7.098-1.26 15.026-2.797l-40.683 48.303-6.022-13.059z"/><path stroke="#000" stroke-linecap="round" d="M555.868 287.099c-3.78 9.187-11.492 31.003-11.891 44.8M564.194 291.492c-4.762 3.104-9.525 9.741-11.584 14.841M569.572 229.854c4.486 8.388 5.009 20.156 2.796 27.469M443.807 310.39c2.857 1.352 9.371 4.885 12.352 8.05"/><path fill="#6322EE" d="M608.81 195.563h-11.676l3.994 6.791 8.266-.522zM570.556 194.518l11.584 1.259-3.903 5.531-7.804-.43z"/><path stroke="#fff" d="M475.763 358.601a4.702 4.702 0 1 0-.001-9.403 4.702 4.702 0 0 0 .001 9.403ZM596.704 267.495a4.7 4.7 0 1 0 0-9.401 4.7 4.7 0 0 0 0 9.401ZM576.425 207.393a4.702 4.702 0 1 0-.001-9.403 4.702 4.702 0 0 0 .001 9.403ZM602.142 231.084a4.701 4.701 0 1 0 0-9.403 4.701 4.701 0 0 0 0 9.403ZM439.259 288.052a4.701 4.701 0 1 0 0-9.403 4.701 4.701 0 0 0 0 9.403ZM509.193 346.648a4.702 4.702 0 1 0 0-9.404 4.702 4.702 0 0 0 0 9.404ZM531.439 366.467a4.702 4.702 0 1 0 0-9.403 4.702 4.702 0 0 0 0 9.403ZM475.763 319.454a4.701 4.701 0 1 0 0-9.403 4.701 4.701 0 0 0 0 9.403ZM542.133 302.155a4.7 4.7 0 1 0 0-9.401 4.7 4.7 0 0 0 0 9.401Z"/><path stroke="#000" stroke-linecap="round" d="M504.523 292.476c-3.073 7.497-8.88 23.874-7.344 29.375 1.905 6.852 11.799 16.131 11.645 26.486-.123 8.297-3.871 15.579-5.746 18.191M501.911 289.158l-6.975 10.6-24.643-23.598M507.872 289.465l6.975 10.6 18.252-23.875M486.117 267.648l18.805 17.085 10.908-17.085M396.641 239.902l17.514-10.816-1.106 16.869M593.815 191.783l-12.26-16.531-5.193 16.101"/><path fill="#000" d="M527.979 459.597c27.104-16.34 46.293-34.205 42.858-39.902s-28.191 2.931-55.295 19.272-46.293 34.205-42.858 39.902c3.434 5.697 28.191-2.931 55.295-19.272"/><path fill="#00C471" d="M479.849 471.523c63.114-4.302 67.63-67.046 61.577-94.977-29.436-9.863-57.244-3.503-57.244-3.503-29.191-40.989-68.982-106.807-85.39-123.338-13.121-13.212-43.694-24.458-128.163-30.788-8.357-1.567-16.93-7.989-19.235-8.788l-48.886 66.8c12.26 3.411 24.981 6.269 36.073 7.406 36.135 3.687 61.639 3.379 79.03 6.145 17.361 2.765 40.099 12.567 52.574 34.414 0 0-6.729-4.425-15.425-9.679-16.316-9.863-33.185-10.017-51.867-4.547-18.682 5.5-81.58 69.627-88.525 72.085l10.97 83.516c26.763-19.204 43.233-46.459 61.976-67.722 28.914-32.817 35.275-26.948 48.979-19.113s64.68 97.466 143.556 92.089" class="fill-primary"/><path fill="#000" d="M181.245 491.434c15.517-4.272 37.271-19.543 44.124-25.319l-9.864-74.544c-1.045.154-4.086 1.198-7.743.492-8.081-1.598-18.959-8.727-39.576-26.733-16.501-14.38-38.163-18.805-47.381-18.989 21.263 47.534 60.44 145.093 60.44 145.093M153.498 264.853c14.196 7.59 40.498 11.492 49.409 12.015l44.155-60.87c-.861-.584-3.81-1.936-5.931-4.978-4.762-6.729-7.743-19.389-10.324-46.644-2.059-21.785-14.749-39.914-21.294-46.397-17.268 49.132-56.015 146.874-56.015 146.874"/><path fill="#07A358" d="M370.184 324.679c3.565 1.537 39.761 57.245 57.306 91.628-.154-.276-31.618-24.428-62.683-79.275-26.21-46.275-88.401-7.866-88.555-8.297 51.253-48.855 94.24-3.84 93.932-4.056M527.107 429.458c-10.017-13.151-13.244-39.146-10.755-47.258-3.072 4.394-8.173 20.802-5.715 33.462 2.059 10.539 9.464 14.78 16.47 13.796" class="fill-primary"/><path stroke="#000" stroke-linecap="round" d="M516.26 382.2c-4.179 8.327-15.793 44.616 10.263 47.381M471.983 386.717l10.693 12.905M455.053 447.34l15.763 5.715M336.415 364.378l15.763 5.715M382.291 373.351l11.215 12.444M429.765 329.533l8.05 14.688M368.402 308.209l12.66 10.969M313.432 229.763l12.659 10.969M553.194 379.742c-15.394-4.579-30.051-11.154-57.982-7.897M284.148 291.985c20.465.123 61.393 2.704 89.938 36.688 20.065 23.875 45.538 74.114 60.225 98.05M345.449 226.229c18.436 1.906 38.931 7.836 53.219 19.973 10.048 8.542 22.677 27.04 22.677 27.04M502.864 381.031c-3.625-.276-7.497-1.444-10.385-3.41-9.095-6.115-24.367-30.942-24.367-30.942M301.571 369.355c9.833.277 20.956 2.704 29.191 8.881 5.777 4.332 13.52 14.165 13.52 14.165M232.437 390.281l12.229 77.739M263.562 227.429l-45.844 63.758"/><path stroke="#000" d="M235.171 203.615c11.185-7.037 33.677-18.805 33.984-9.495.307 9.28-22.523 10.201-33.984 9.495Z"/><path stroke="#000" d="M235.171 204.107c5.193-11.769 16.715-33.339 21.202-25.504 4.516 7.805-12.261 20.249-21.202 25.504ZM196.67 392.432c5.285-12.137 17.176-34.506 22.676-27.04 5.501 7.498-12.813 21.14-22.676 27.04Z"/><path stroke="#000" d="M196.946 392.831c-2.366-12.629-5.009-36.934 3.103-33.032 8.143 3.902 1.322 23.66-3.103 33.032Z"/></svg>