<svg xmlns="http://www.w3.org/2000/svg" width="345" height="171" fill="none"><path fill="#EDF1F4" d="M134.016 16.908h.079c4.293-3.466 9.674-4.574 14.892-2.964-.491-1.575-1.27-3.048-.582-4.728.701-1.716 2.611-2.716 4.292-3.186 3.073-.86 6.38-.451 8.783 1.442.876-4.146 4.389-7.67 8.925-7.463 4.804.218 8.132 4.542 8.253 9.052 2.522-.69 5.313-.967 7.799-.118 2.151.734 2.733 2.894 4.322 3.593 2.151.946 4.634-.72 6.537 1.317.827.884 1.041 1.911.746 2.91-.409.786-1.026 1.47-1.742 2.029h-61.61c-.426.257-.905.137-1.201-.164-.656-.447-.497-1.72.507-1.72M.383 62.409a.93.93 0 0 1 .11-.448c.956-1.781 2.285-3.194 4.297-3.749.345-.096 2.751-.046 2.93-.117 2.083-.833.648-.774 1.944-1.888 2.64-2.263 4.962-2.139 7.377-.329.334-3.257 1.067-5.523 5.82-4.849 4.399.625 6.576 4.28 6.458 8.267 2.786-.303 5.094.18 6.296 3.146.197.485-.038.84-.395 1.01-.097.363-.379.669-.866.669H.902c-.997.002-1.163-1.26-.519-1.712"/><path fill="#E4EAEF" d="m139.013 83.97-41.801-5.639 12.101 86.123 29.7 4.252z"/><path fill="#EDF1F4" d="m177.083 78.331-38.071 5.639s-3.278 12.984-3.311 44.39c-.022 21.22 3.311 40.344 3.311 40.344l32.758-2.846s-3.444-31.863-1.882-42.342c3.338-22.385 7.195-45.185 7.195-45.185M97.212 78.331l-39.246 1.85s9.462 20.931 15.131 50.232c3.452 17.835 2.505 39.217 2.505 39.217l33.711-5.176s-.009-32.223-1.506-42.832c-2.555-18.129-10.595-43.29-10.595-43.29"/><g fill="#BED0E2" opacity=".3"><path d="M143.301 84.244h-3.811c-.287 0-.542-.12-.733-.307l.255.034 5.343-.791a1.056 1.056 0 0 1-1.054 1.064M164.528 153.498l6.112.268q.078.94.154 1.831h-8.215a1.06 1.06 0 0 1-1.059-1.014l-.434-9.986a1.06 1.06 0 0 0-.984-1.011l-14.624-1.031a1.06 1.06 0 0 1-.984-1.008l-.81-17.149a1.06 1.06 0 0 1 1.132-1.107l7.428.514a1.06 1.06 0 0 0 1.132-1.056v-8.099c0-.585.475-1.06 1.06-1.06h16.958l-.366 2.379-1.381.005a1.06 1.06 0 0 0-1.054.995l-.273 4.423a1.06 1.06 0 0 0 .929 1.118l.773.094-.137.915c-.06.408-.113.852-.16 1.322l-3.051-.425a1.06 1.06 0 0 1-.909-1.16l.644-6.094a1.06 1.06 0 0 0-1.057-1.171l-7.762.027a1.06 1.06 0 0 0-1.056 1.033l-.207 8.036a1.06 1.06 0 0 1-1.099 1.032l-7.965-.304a1.06 1.06 0 0 0-1.098 1.119l.723 12.586c.031.534.456.962.992.996l14.711.94c.547.035.977.482.992 1.03l.077 2.907c.016.587.505 1.05 1.091 1.033l5.329-.161q.066 1.003.136 1.99l-5.683.22a1.06 1.06 0 0 0-1.019 1.059v2.906a1.06 1.06 0 0 0 1.014 1.058" opacity=".3"/><path d="m167.354 141.714-.205-3.838a1.06 1.06 0 0 1 1.058-1.116h1.38c.065 1.887.156 3.834.266 5.788l-1.312.162a1.06 1.06 0 0 1-1.187-.996M168.207 128.506h1.309c-.049 1.772-.044 3.744.002 5.83l-.976.12a1.06 1.06 0 0 1-1.188-.995l-.205-3.838a1.06 1.06 0 0 1 1.058-1.117M172.023 101.302l1.233.432-.493 3.108-4.1-.4a1.06 1.06 0 0 1-.958-1.087l.108-3.478a1.06 1.06 0 0 0-1.059-1.092h-11.062c-.498 0-.929-.347-1.036-.834l-3.45-15.785 4.718-.7 2.537 13.353c.095.5.532.863 1.04.863h7.979a1.06 1.06 0 0 0 1.06-1.06v-5.82c0-.528.388-.975.91-1.049l3.95-.565a1.06 1.06 0 0 1 1.211 1.048v.492a1.06 1.06 0 0 1-1.06 1.06h-1.179a1.06 1.06 0 0 0-1.059 1.06v9.453c.001.451.285.852.71 1.001M74.42 87.828a1.06 1.06 0 0 1 1.126.862l3.92 20.997c.078.413.392.742.803.838l5.804 1.354c.456.106.788.498.817.965l1.316 20.857a1.06 1.06 0 0 1-.815 1.098l-5.035 1.186.975-.229 1.4 10.019c.063.46.42.825.879.899l10.707 1.756a1.06 1.06 0 0 0 1.228-1.143l-.491-5.379a1.06 1.06 0 0 1 .805-1.126l8.577-2.09a1 1 0 0 1 .091-.019l5.587-.858c.56-.086.953-.595.893-1.158l-.855-8.18a1.06 1.06 0 0 1 .877-1.156l16.313-2.753a1 1 0 0 0 .167-.042l3.083-1.054a1.06 1.06 0 0 0 .715-1.078l-.918-12.98a1.06 1.06 0 0 1 .848-1.114l5.855-1.186c.57-.116.941-.67.83-1.241l-2.279-11.717a1.06 1.06 0 0 0-1.04-.857h-11.755l-8.231-.04c-.53-.004-.979-.4-1.046-.927l-1.12-8.86a1.06 1.06 0 0 0-.598-.826l-6.125-2.896 9.907 1.336.728 7.126c.056.54.512.952 1.055.952h21.09c.527 0 .971.385 1.049.905l2.817 19.133a1.06 1.06 0 0 1-.977 1.212l-6.1.41a1.06 1.06 0 0 0-.984 1.145l1.095 13.247c.04.489-.26.94-.726 1.094l-6.563 2.161a1.2 1.2 0 0 1-.232.049l-13.872 1.309a1.06 1.06 0 0 0-.948 1.207l1.133 7.826a1.06 1.06 0 0 1-.787 1.179l-8.403 2.145-.07.015-6.618 1.227a1.06 1.06 0 0 0-.865 1.109l.929 14.566c.031.467-.249.897-.687 1.061l-7.212 2.687c-.505.188-.79.727-.657 1.25l.733 2.927-2.23.342-1.058-5.036c-.107-.52.184-1.04.683-1.217l7.798-2.772a1.06 1.06 0 0 0 .7-1.095l-.392-4.286a1.06 1.06 0 0 0-.83-.938l-14.429-3.153a1.06 1.06 0 0 1-.825-.912l-1.228-10.385a1.06 1.06 0 0 0-1.296-.907l-4.968 1.17c-.074.017-.135.057-.201.089q-.151-1.197-.325-2.388l11.19-2.189a1.06 1.06 0 0 0 .854-1.114l-1.198-17.201a1.06 1.06 0 0 0-.8-.954l-6.379-1.594a1.06 1.06 0 0 1-.789-.855l-3.37-20.297a1.06 1.06 0 0 0-1.102-.884l-10.133.55c-.272-.752-.533-1.462-.787-2.143z" opacity=".3"/><path d="M133.508 96.46c.512 0 .95.368 1.041.87l.972 5.297c.1.552-.245 1.087-.791 1.221l-3.816.934a1.06 1.06 0 0 1-1.288-.81l-1.322-6.23a1.06 1.06 0 0 1 1.037-1.28h4.167zM127.016 162.007h3.271c.495 0 .924.344 1.035.827l1.108 4.929-5.576-.799-.868-3.653a1.06 1.06 0 0 1 1.03-1.304" opacity=".3"/><path d="M114.854 163.347a1.06 1.06 0 0 1 1.422-1.141l3.336 1.255a1.06 1.06 0 0 0 1.424-1.134l-.923-6.798a1.06 1.06 0 0 1 .871-1.187l12.435-2.136q.055-.01.111-.014l16.961-1.081a1.06 1.06 0 0 1 1.118.91l1.822 12.911c.071.494.475.873.973.91l9.516.7-13.514 1.173-2.14-11.738a1.06 1.06 0 0 0-1.126-.867l-4 .317a1.06 1.06 0 0 0-.964 1.215l1.333 8.841c.072.48-.19.948-.639 1.135l-4.688 1.968-2.342-.335c-.009-.036-.022-.068-.028-.105l-.068-.465a1.06 1.06 0 0 1 .694-1.153l3.74-1.327c.473-.168.764-.645.695-1.141l-1-7.368a1.06 1.06 0 0 0-1.134-.914l-4.632.367a1 1 0 0 0-.105.014l-10.173 1.859a1.06 1.06 0 0 0-.86 1.181l.858 6.489c.042.312-.06.596-.24.811l-8.456-1.21zM68.309 96.633a1.06 1.06 0 0 1 1.218.942l.564 5.633c.058.581-.365 1.1-.946 1.159l-2.418.25a260 260 0 0 0-2.33-7.373zM159.811 134.96a1.06 1.06 0 0 1-1.06 1.06h-8.278a1.06 1.06 0 0 1-1.059-1.06v-.698c0-.599.493-1.078 1.091-1.06l8.279.253a1.06 1.06 0 0 1 1.027 1.059zM99.757 90.416l8.848 2.658c.447.135.754.546.754 1.015v10.387c0 .352-.175.682-.467.879l-5.131 3.454a1.06 1.06 0 0 1-1.636-.692l-.177-.99a1.06 1.06 0 0 1 .477-1.082l3.563-2.254c.307-.194.493-.532.493-.895v-6.618c0-.46-.296-.866-.733-1.008l-5.559-1.809a1 1 0 0 0-.131-.033l-9.923-1.877a1.06 1.06 0 0 1-.862-1.005l-.325-9.434a1.06 1.06 0 0 0-1.065-1.023l-12.287.055a1.05 1.05 0 0 1-1.004-.744l17.427-.822.49 9.74c.025.496.39.907.88.992l6.246 1.08q.061.007.122.026M123.844 109.83a1.06 1.06 0 0 1 1.162.884l1.529 9.473a1.06 1.06 0 0 1-1.047 1.229h-3.351c-.503 0-.936-.353-1.039-.845l-1.883-9.062a1.06 1.06 0 0 1 .921-1.269zM129.585 84.243a1.06 1.06 0 0 1-1.058-.986l-.049-.707 6.489.875c-.11.465-.522.818-1.027.818zM114.578 111.018c.494 0 .924.344 1.034.827l1.862 8.278a1.058 1.058 0 0 1-1.033 1.292h-3.167c-.491 0-.917-.336-1.031-.814l-1.966-8.278a1.06 1.06 0 0 1 1.031-1.305zM111.998 147.159l3.978-.492a1.06 1.06 0 0 1 1.167.834l.855 4.063a1.06 1.06 0 0 1-.933 1.274l-4.405.435a1.06 1.06 0 0 1-1.158-.943l-.427-4.004a1.06 1.06 0 0 1 .923-1.167M158.751 131.358h-8.278a1.06 1.06 0 0 1-1.059-1.06v-.698c0-.599.493-1.078 1.091-1.059l8.279.252a1.06 1.06 0 0 1 1.027 1.059v.447a1.06 1.06 0 0 1-1.06 1.059M122.451 142.745a1.06 1.06 0 0 1-1.158-.943l-.427-4.006a1.06 1.06 0 0 1 .924-1.163l3.977-.492a1.06 1.06 0 0 1 1.168.834l.855 4.063a1.06 1.06 0 0 1-.933 1.274z" opacity=".3"/></g><path fill="#3F4261" d="M121.784 46.325c1.459-.227 3.311-.847 4.761-.31 1.286.477 2.155 1.743 2.939 2.8.663.897 1.932 2.177 1.667 3.397-.256 1.184-1.56 1.882-2.629 2.149a.44.44 0 0 1-.328-.042 2.6 2.6 0 0 1-.837.16c-.816-.008-1.333-.934-1.815-1.476-1.563-1.758-3.259-3.357-3.302-5.802q-.102.018-.207.033c-.591.092-.847-.817-.249-.91M130.534 56.049a.5.5 0 0 1 .203-.054c.014-.002.023-.01.037-.011 3.149-.394 3.912 2.882 4.491 5.449.534 2.377 1.197 5.446-1.614 6.427-2.727.951-3.613-1.944-4.296-4.16-.709-2.302-1.471-6.328 1.179-7.651"/><path fill="#565B82" d="M101.955 47.01c.251-3.707 4.458-4.041 7.443-4.697 3.189-.7 7.067-1.61 9.895.455.039.013.077.018.117.043 5.948 3.66 10.501 9.152 13.294 15.536 2.45 5.6 3.331 12.751-3.242 15.77-2.672 1.228-5.854 1.537-8.344-.207-3.012-2.11-5.604-5.025-7.94-7.842-2.417-2.916-4.605-6.013-6.729-9.146-2.001-2.955-4.751-6.112-4.494-9.911"/><path fill="#FFD357" d="M98.678 38.98h22.44v6.496h-22.44z"/><path fill="#EA3E72" d="M59.07 46.71c-.02-.028-.047-.05-.066-.08-.289-.437.519-1.006.807-.568.02.03.051.051.073.08.072-.265.439-.539.856-.214.122.094 1.819 1.443 3.688 1.649-.296-.302-.8-.798-1.243-1.016-.47-.231-.142-.986.328-.747.073.036.673.36.743.428 2.054 1.27 3.771 3.28 5.013 5.342.228.32.446.65.64 1.001.07.126.022.3-.058.407-.404.545-1.56 1.51-2.118 1.898a.4.4 0 0 1-.177.066c.057.423-.596.653-.775.203-.482-1.202-1.68-3.245-1.693-3.26-2.195-.744-4.31-1.5-6.126-2.947-.366-.292.011-.934.385-.817l.014-.007-.015-.014a6 6 0 0 1-.699-.67c-.23-.296.134-.716.422-.733"/><path fill="#2A2B3C" d="M63.895 48.553c.054 0 .1-.036.114-.09a.116.116 0 0 0-.087-.142c-2.024-.496-3.94-2.25-3.958-2.266a.116.116 0 0 0-.167.006.12.12 0 0 0 .007.167c.08.073 1.977 1.812 4.064 2.322zM63.39 49.502a.118.118 0 0 0 .021-.234c-1.698-.331-4.237-2.622-4.263-2.645a.117.117 0 0 0-.166.008.12.12 0 0 0 .008.167c.106.096 2.613 2.358 4.378 2.702zM62.894 50.244a.12.12 0 0 0 .113-.086.117.117 0 0 0-.082-.145c-1.273-.35-3.486-1.958-3.51-1.974a.115.115 0 0 0-.164.026.116.116 0 0 0 .026.164c.092.066 2.27 1.65 3.585 2.01a.1.1 0 0 0 .032.005"/><path fill="#EDF1F4" d="M104.07 46.497c-2.107-2.51-19.418 5.716-24.986 12.594-5.569 6.88-.805 16.43 1.68 15.64 2.487-.79 27.638-23.077 23.306-28.234"/><path fill="#EDF1F4" d="M68.688 50.907c6.954-2.337 13.385 8.72 16.6 12.444 3.214 3.723-3.559 11.584-5.18 11.315-1.622-.27-16.313-11.763-14.208-21.48 0 0 1.291-1.777 2.788-2.279"/><path fill="#E4EAEF" d="M99.232 57.517S86.622 73.005 80.764 74.73c-1.664.49-8.78-5.35-11.449-10.163 0 0 8.49 7.827 11.907 6.296 3.415-1.532 18.01-13.347 18.01-13.347"/><path fill="#E93E72" d="M142.044 158.023c-.406-1.097-.875-1.865-2.18-3.002-.009-.018-.021-.022-.021-.022-1.018-.879-2.332-1.956-3.97-3.525-2.424.835-5.383 1.045-5.924 3.525 1.195 1.343 3.443 4.117 3.704 5.11q.067.237.084.499c.184 2.319-2.047 5.343-2.533 7.287-.15.519-.159.959.028 1.28.94 1.654 11.768-8.511 10.812-11.152"/><path fill="#EDF1F4" d="M131.159 168.964c.013.081.04.136.081.203.969 1.794 12.084-8.551 11.153-11.1v-.014a2 2 0 0 0-.148-.445c-.553-1.255-2.158-2.428-2.387-2.589 0-.014-.014-.014-.014-.014-1.888 4.073-6.109 5.596-6.109 5.596.161 2.037-1.525 4.614-2.28 6.515-.337.716-.473 1.363-.296 1.848"/><path fill="#3F4261" d="M97.856 75.959a.53.53 0 0 1 .215-.591c.066-.175.126-.352.193-.527.23-.593 1.004-.554 1.263-.164 4.82-2.118 10.146-3.522 14.694.086 4.597 3.647 5.848 9.742 5.43 15.312-.552 7.382-2.334 15.167-4.229 22.315-1.68 6.332-4.375 12.324-9.125 16.943-.21.205-.562.263-.817.105-7.603-4.682-9.045-15.432-10.156-23.506-1.392-10.09-.94-20.363 2.532-29.973"/><path fill="#343751" d="M99.876 82.364s-4.607 20.64-4.407 24.634 2.445 11.807 2.445 11.807l8.396-10.248 2.195-24.67z"/><path fill="#3F4261" d="M111.582 87.456c.307.574.609 1.153.898 1.736 3.287 6.599 6.393 13.339 9.178 20.165 2.642 6.473 4.416 13.324 7.522 19.598 3.367 6.799 11.907 20.589 11.388 20.357.847 2.488-15.54 10.512-17.215 8.764-5.702-6.637-9.248-14.569-12.485-22.619-3.573-8.885-7.36-17.51-12.045-25.877-.023-.043-.05-.085-.072-.127 2.9-8.104 7.044-15.516 12.831-21.997"/><path fill="#2A2B3B" d="M131.159 168.964c.013.081.04.136.081.203.969 1.794 12.084-8.551 11.153-11.1v-.014a2 2 0 0 0-.148-.445c-.323.917-1.106 2.671-2.859 4.585-2.266 2.483-4.748 4.978-8.227 6.771"/><path fill="#343751" d="M119.725 103.129s-.458 18.384-.694 27.924c-.235 9.541 8.411 26.556 8.411 26.556s-3.315 1.393-4.087.467c-.774-.923-5.648-7.217-8.192-12.801s-5.437-12.926-5.437-12.926z"/><path fill="#2A2B3B" d="m102.674 87.456-6.556 23.818 1.43 7.53zM120.6 106.758l-10.874 25.59 2.571 6.389s.765-6.231 2.866-11.885 5.437-20.094 5.437-20.094"/><path fill="#3F4261" d="M85.133 157.376c.167-8.747 2.803-17.027 5.749-25.188 3.25-9.005 6.17-17.963 8.247-27.325 1.05-4.735 1.98-9.498 2.939-14.252.68-3.362 1.053-7.178 3.51-9.799 4.625-4.934 11.749-3.559 16.489.293.287-.112.627-.056.794.307 2.581 5.61 1.608 11.571.033 17.334-1.943 7.113-4.114 14.209-6.582 21.156-2.34 6.588-5.578 12.88-7.438 19.63-2.017 7.315-4.828 23.289-5.062 22.772-5.602-7.347-14.761-5.844-18.68-4.928"/><path fill="#17171D" d="M85.133 157.377c.086 2.42 17.655 7.346 18.678 4.927.748-1.767-2.532-4.844-7.941-6.192-6.487-1.617-10.777.124-10.737 1.265"/><path fill="#E93E72" d="M95.474 168.801c.73-.913.992-2.028 1.293-3.733.01-.016.008-.029.008-.029.229-1.325 1.476-5.762 1.978-7.973-3.383-1.315-5.297-1.423-6.808-1.574-.535 1.715-2.022 6.138-2.738 6.872q-.168.18-.385.33c-1.893 1.352-5.634.997-7.55 1.582-.524.137-.905.356-1.083.684-.933 1.656 13.512 6.022 15.285 3.841"/><path fill="#EDF1F4" d="m81.27 164.274 4.942 2.512s8.136 3.079 9.26 2.015c1.059-.996 1.277-3.427 1.294-3.734.01-.016.008-.029.008-.029-2.303-2.615-7.953-2.345-7.953-2.345-1.893 1.351-5.634.997-7.55 1.581"/><path fill="#2A2B3B" d="M80.192 164.96c-1.034 1.765 13.635 5.982 15.285 3.837 1.059-1.378-13.507-6.871-15.285-3.837"/><path fill="#ABB6E7" d="M128.004 83.452s-10.45-36.036-18.953-38.782c-6.946-2.244-12.998.236-13.603 7.424-.558 6.636-1.332 16.523-2.343 19.894-1.012 3.372-4.096 9.609-4.096 9.609s22.642 6.576 38.995 1.855" class="fill-primary-light"/><path fill="#E93E72" d="M98.68 40.417s1.137 3.414 1.265 4.257c.038.258 3.89.497 4.386 0-.382-1.053-1.226-2.402-1.605-4.257s-4.046 0-4.046 0"/><path fill="#E93E72" d="M104.075 37.298s-1.559 4.93-4.763 4.594-.253-7.039.254-7.165c.506-.126 3.708-.379 4.509 2.57"/><path fill="#2A2B3C" d="M98.017 35.333c.035-.241.141-.482.289-.69-.052-.43.137-.87.57-1.12.43-.25.924-.289 1.416-.233 2.571-.876 5.466 1.413 4.887 4.262-.186.916-1.216 2.51-2.3 1.582-.539-.463-.633-1.53-.751-2.174a7 7 0 0 1-.119-1.32.62.62 0 0 1-.416.042c-.402-.094-.307-.193-.44.161a.73.73 0 0 1-.398.445.73.73 0 0 1-.519.068c-.322-.077-.241-.117-.55.06-.824.472-1.82-.06-1.67-1.083"/><path fill="#2A2B3C" d="M104.123 29.82c2.269-.952 5.667-.042 6.803 2.231.894 1.787.059 4.445-1.933 5.123-2.024.69-4.222-.942-5.509-2.553a.61.61 0 0 1-.577-.173c-1.57-1.55-.664-3.839 1.216-4.628"/><path fill="#2A2B3C" d="M102.349 39.933c1.269-.047 2.217-.439 2.819-1.164.889-1.072.692-2.47.684-2.53l-.233.035c.002.013.189 1.356-.634 2.346-.557.67-1.447 1.033-2.646 1.078z"/><path fill="#E93E72" d="M102.303 37.994s.612-.864 1.476-.61c.864.253.779 2.38-.738 2.36-1.517-.022-.738-1.75-.738-1.75"/><path fill="#FFD357" d="M102.689 39.334c.164-.136.401.098.235.236-.256.215-.622.866-.167 1.075.408.186 1.1-.303.745-.74-.135-.166.101-.404.235-.237.525.646-.173 1.436-.902 1.339-.903-.122-.663-1.243-.146-1.673"/><path fill="#2A2B3C" d="M110.986 33.61h.235c0-.043-.05-4.271-4.34-5.034-1.577-.275-3.038.298-4.006 1.588-.769 1.024-1.031 2.3-.635 3.103l.212-.104c-.358-.726-.106-1.901.612-2.857.432-.575 1.653-1.875 3.776-1.497 4.093.727 4.146 4.635 4.146 4.8"/><path fill="#2D48C3" d="M108.381 46.975s-3.36 11.263-4.05 21.952c-.689 10.688-10.517 13.85-10.517 13.85s18.043 5.072 34.19.676c0 0-9.92-29.92-19.623-36.478" class="fill-primary"/><path fill="#D3E0EA" d="M73.643 54.057q.038 0 .071-.023a.12.12 0 0 0 .023-.165c-1.254-1.655-5.051-2.515-5.212-2.551a.113.113 0 0 0-.14.09.117.117 0 0 0 .089.14c.038.008 3.875.877 5.076 2.462a.11.11 0 0 0 .093.047M70.802 54.789a.118.118 0 0 0 .108-.168c-.753-1.6-2.992-2.879-3.086-2.932a.115.115 0 0 0-.16.045.117.117 0 0 0 .044.16c.023.013 2.268 1.296 2.988 2.827a.11.11 0 0 0 .106.068M68.312 54.733a.118.118 0 0 0 .087-.198c-.601-.649-1.006-2.45-1.01-2.467a.12.12 0 0 0-.14-.09.12.12 0 0 0-.09.14c.018.077.425 1.881 1.067 2.576a.11.11 0 0 0 .086.039M67.287 57.909q.015 0 .028-.004c.063-.016.101-.08.086-.142-.67-2.725-.551-5.256-.55-5.281a.12.12 0 0 0-.11-.125h-.007a.12.12 0 0 0-.118.112c0 .025-.122 2.59.557 5.35.013.054.061.09.114.09"/><path fill="#2A2B3C" d="M106.045 152.203a.17.17 0 0 0 .121-.29c-7.696-7.739-19.585-5.541-19.706-5.516a.17.17 0 0 0-.135.198c.018.093.1.16.2.135.119-.022 11.833-2.185 19.4 5.423.034.032.077.05.12.05M107.158 146.416a.17.17 0 0 0 .118-.292c-3.247-3.18-8.386-4.292-12.126-4.665-4.037-.404-7.362-.056-7.397-.052a.17.17 0 0 0-.15.187c.01.093.085.15.187.151.031-.004 3.325-.35 7.332.052 3.684.369 8.74 1.461 11.917 4.57a.17.17 0 0 0 .119.049M117.752 150.241q.017 0 .035-.004c.115-.023 11.582-2.455 19.072-7.588a.17.17 0 1 0-.191-.28c-7.436 5.093-18.836 7.511-18.951 7.535a.17.17 0 0 0-.132.201.17.17 0 0 0 .167.136M115.163 145.445a.1.1 0 0 0 .045-.007c.132-.036 13.217-3.673 17.997-9.196a.17.17 0 0 0-.018-.24.17.17 0 0 0-.241.018c-4.711 5.444-17.697 9.054-17.828 9.09a.17.17 0 0 0 .045.335"/><path fill="#3F4261" d="M107.767 43.486c1.284-1.292 3.283.707 1.999 2-4.588 4.614-2.448 11.865 1.674 15.99 3.685 3.686 8.859 5.355 13.801 6.535 1.769.422 1.02 3.15-.752 2.726-6.815-1.627-14.01-4.44-17.794-10.743-3.124-5.21-3.393-12.017 1.072-16.508"/><path fill="#EA3E72" d="M93.982 88.734a9.6 9.6 0 0 1 2.138-3.48c-.009-.028-.008-.056-.014-.083-.86.51-1.661 1.148-2.373 2.113-.361.49-1.066-.137-.707-.622 1.286-1.744 2.849-2.781 4.875-3.496 2.846-1.001 5.798-2.702 7.929-4.854a.5.5 0 0 1 .186-.116.48.48 0 0 1 .564.006q1.776 1.299 3.554 2.596c.248.182.187.597-.054.748-2.279 1.44-4.681 2.768-7.135 3.885-.68.309-1.316.516-2.049.684-.855.196-1.89.244-2.647.743-.911.6-1.329 1.612-1.743 2.55-.2.454-.789.253-.869-.136q-.005.006-.008.015c-.18.427-.71.281-.848-.06-.253.441-.99.042-.799-.493"/><path fill="#2A2B3C" d="M95.041 86.718a.12.12 0 0 0 .108-.071c.127-.29.804-1.045 1.055-1.313a.12.12 0 0 0-.005-.166.117.117 0 0 0-.166.004c-.04.04-.93.995-1.1 1.38-.027.06 0 .13.06.155q.022.011.048.01M94.781 89.344c.05 0 .096-.031.111-.081.008-.02.684-2.017 2.131-3.494a.118.118 0 1 0-.168-.166c-1.486 1.518-2.18 3.565-2.185 3.586a.116.116 0 0 0 .075.148.1.1 0 0 0 .036.007M95.635 89.388a.12.12 0 0 0 .11-.075c.008-.02.824-2.052 1.874-2.87a.118.118 0 1 0-.146-.186c-1.1.858-1.913 2.885-1.947 2.97a.118.118 0 0 0 .109.16"/><path fill="#EDF1F4" d="M108.381 46.975c-3.039 1.227-.581 20.234 4.232 27.66 4.813 7.427 15.371 5.857 15.391 3.248s-13.376-33.43-19.623-30.908"/><path fill="#EDF1F4" d="M101.609 81.984c-.067-7.337 12.439-10.026 16.976-11.927 4.536-1.902 9.912 6.972 9.152 8.43-.759 1.46-16.239 11.865-24.825 6.852 0 .001-1.288-1.778-1.303-3.355"/><path fill="#E4EAEF" d="M118.349 56.612s5.197 15.116 4.726 19.356-11.544 10.447-11.544 10.447 3.028-.073 9.936-3.611 6.721-3.987 6.537-4.92-2.366-9.335-9.655-21.272"/><path fill="#D3E0EA" d="M102.092 83.045c.05 0 .096-.032.112-.082.012-.037 1.244-3.771 2.939-4.814a.117.117 0 0 0 .039-.162.117.117 0 0 0-.162-.038c-1.768 1.087-2.989 4.785-3.041 4.941a.118.118 0 0 0 .113.155M102.38 83.81a.12.12 0 0 0 .097-.051c.015-.021 1.507-2.134 3.1-2.702a.116.116 0 0 0 .071-.15.12.12 0 0 0-.15-.072c-1.666.595-3.152 2.7-3.214 2.79a.12.12 0 0 0 .029.164q.03.02.067.02M102.632 84.328l.016-.001c.077-.01 1.912-.241 2.665-.813a.116.116 0 0 0 .023-.165.117.117 0 0 0-.165-.023c-.703.534-2.535.765-2.554.767a.116.116 0 0 0-.101.132c.007.06.058.103.116.103M105.51 85.054c.834 0 1.806-.047 2.811-.193a.118.118 0 1 0-.034-.234c-2.778.405-5.284.044-5.309.04-.066-.017-.124.036-.134.099a.12.12 0 0 0 .099.134c.018.002 1.072.154 2.567.154"/><path fill="#EDF1F4" d="M119.482 39.635c1.198-1.245 2.856-.529 3.932.455.171.156.287.323.357.494.146.156.256.342.294.562.24 1.362-.076 2.773-1.121 3.742-1.419 1.314-2.932.204-3.672-1.213-.64-1.224-.83-2.958.21-4.04"/><path fill="#ABC3D6" d="M121.404 44.729c.147 0 .312-.024.496-.084.989-.317 1.494-1.325 1.286-2.569-.188-1.124-.96-2.25-2.074-2.25h-.035c-.568.012-1.009.205-1.313.57-.59.712-.414 1.819-.407 1.865.019.127.12.225.271.193a.235.235 0 0 0 .194-.27c-.002-.01-.148-.944.305-1.489.212-.255.535-.39.959-.399h.024c.844 0 1.459.952 1.611 1.858.133.794-.051 1.747-.965 2.04-.52.166-.865-.012-1.062-.546-.343-.93-.026-2.28.201-2.375.246.057.502.531.563 1.081.046.419-.051.645-.112.673a.234.234 0 0 0-.117.312.236.236 0 0 0 .312.117c.305-.139.449-.57.385-1.153-.072-.658-.396-1.373-.952-1.491-.125-.023-.358-.02-.561.305-.407.651-.531 2.363.092 3.162.174.224.458.45.899.45"/><path fill="#EDF1F4" d="M58.58 37.497c-.014-.24.083-.38.206-.43.067-.149.188-.239.345-.155 2.003 1.074 4.043 1.044 6.012-.173.24-.148.594.103.491.532-2.11 8.741-2.562 17.99-1.304 27.047a.55.55 0 0 1 .084.295q.005.24.007.482c.005.239-.156.494-.333.471-1.907-.244-3.773-.408-5.63.394-.251.108-.47-.241-.411-.58 1.609-9.166 1.096-18.577.533-27.883"/><path fill="#E4EAEF" d="M58.627 36.816c.197-1.415 2.512-1.458 3.269-1.536.979-.102 3.007-.341 3.75.871a.66.66 0 0 1 .052.571c-.008.025-.022.04-.031.063.077.24.038.57-.191.676-.867.403-7.249 2.223-6.849-.645"/><path fill="#ABC3D6" d="M60.887 38.036c.875 0 2.119-.183 2.875-.369 1.062-.259 1.614-.576 1.689-.967q.066-.355-.37-.667c-1.782-1.264-5.862.62-6.033.7a.2.2 0 0 0-.096.263c.048.1.169.14.263.096.04-.02 4.04-1.872 5.635-.735.271.193.213.284.186.324-.433.662-3.912 1.103-4.7.933.333-.187 1.392-.45 2.324-.603a.2.2 0 0 0 .164-.228c-.02-.108-.107-.187-.228-.164-.944.157-2.55.483-2.719.916a.3.3 0 0 0 .05.303c.111.141.48.198.96.198"/><path fill="#EA3E72" d="M63.005 45.432c.862.446 1.629 1.029 2.252 1.777.73.88 1.701 1.435 2.516 2.235.434.425-.233 1.092-.666.667-.736-.722-1.67-1.197-2.325-1.993-.644-.786-1.343-1.403-2.253-1.872-.54-.278-.063-1.092.476-.814"/><path fill="#881A0B" d="M276.532 141.557c.173-2.161.199-4.365.482-6.515.137-1.028.427-2.083 1.272-2.758 1.13-.903 2.804-.701 4.143-.683l6.836.09a.4.4 0 0 1 .287.004l.191.003c.452.007.456.703.01.709-.203 12.989 1.097 24.898 3.555 37.656a.373.373 0 0 1-.343.45c-6.94.479-12.947.479-19.573-.261-.246-.027-.382-.207-.342-.45a336 336 0 0 0 3.482-28.245"/><path fill="#ABB6E7" d="M221.581 143.069c7.602-11.102 18.338-24.159 23.636-36.746.161-.379.458-.705.91-.691 24.448.767 48.762 6.402 73.093 8.924 1.022.106 1.171 1.493.44 1.816a151.7 151.7 0 0 0 24.753 30.112c.517.486.255 1.397-.416 1.574-5.53 1.459-11.003.947-15.981-1.478a101 101 0 0 1 3.337 7.317c.297.725-.537 1.28-1.158 1.159-6.033-1.184-11.191-4.089-15.274-8.462l.932 7.116c.1.768-.857 1.094-1.418.813-3.768-1.886-7.046-4.233-9.996-7.157l-1.168 6.395c-.108.589-.905.872-1.385.564-3.699-2.378-6.334-5.546-7.893-9.467-1.25 3.607-3.048 6.874-5.462 9.962-.549.702-1.561.057-1.609-.666q-.346-5.187-.69-10.375a55 55 0 0 1-8.426 9.426c-.523.465-1.374.296-1.574-.415-.413-1.471-.75-3.207-1.755-4.379-1.384-1.615-1.249-1.369-2.86-.047-2.133 1.751-3.854 4.505-5.65 6.603-.531.621-1.638.12-1.608-.666a58 58 0 0 0-.276-8.252 35.6 35.6 0 0 1-9.918 8.586c-.638.373-1.389-.111-1.419-.815a36.7 36.7 0 0 0-1.37-8.49 38.8 38.8 0 0 1-10.241 8.949c-.619.375-1.409-.11-1.418-.813a28.6 28.6 0 0 0-1.596-9.169 59.2 59.2 0 0 1-9.872 4.636c-.848.306-1.379-.712-1.066-1.385 1.066-2.279 1.535-4.441 1.543-6.784a30.3 30.3 0 0 1-5.853 3.596c-.773.36-1.874-.441-1.292-1.291" class="fill-primary-light"/><path fill="#2D48C3" d="M229.969 114.981c6.753-5.769 10.338-13.726 13.936-21.647 1.511-3.323 2.899-7.553 5.395-10.29 2.44-2.677 6.456-3.38 9.806-4.235 9.587-2.444 19.562-3.703 29.46-3.56 7.185.103 14.902 1.401 18.596 8.208 10.731 9.428 17.276 22.828 29.06 31.143.737.521.512 1.745-.476 1.756a36.1 36.1 0 0 1-13.654-2.448 24.3 24.3 0 0 0 2.194 4.366c.397.626-.127 1.395-.814 1.419-5.236.176-9.445-2.251-13.445-5.241a55 55 0 0 0 2.053 6.318c.253.645-.522 1.403-1.159 1.159-4.469-1.704-8.3-4.131-11.673-7.433a39 39 0 0 0-1.898 6.409c-.156.75-1.075.838-1.575.416-2.649-2.231-4.695-4.76-6.282-7.764l-6.699 7.863c-.303.356-1.035.378-1.333 0-1.955-2.479-3.357-5.06-4.292-7.981a37.7 37.7 0 0 1-9.679 8.621c-.762.476-1.857-.511-1.288-1.289 1.641-2.251 2.631-4.608 3.012-7.237-4.194 3.413-8.973 5.599-14.418 6.539-.782.136-1.503-.622-1.065-1.384 1.047-1.819 1.7-3.552 2.037-5.474a41 41 0 0 1-12.083 6.346c-.683.225-1.357-.492-1.159-1.159l1.587-5.335a53.5 53.5 0 0 1-13.478 3.52c-.802.106-1.254-1.103-.666-1.606" class="fill-primary"/><path fill="#ABB6E7" d="M238.663 86.233c7.151-8.541 15.813-16.979 21.115-26.871a.73.73 0 0 1 .115-.658c2.484-3.322 5.392-5.784 9.142-7.597.033-.016.063-.013.097-.025 2.427-1.147 5.189-1.782 7.741-2.243 2.993-.542 6.031-.782 9.066-.932 2.103-.103 5.378-.854 7.29.267 2.291 1.341 3.2 5.407 4.267 7.621 1.738 3.603 3.466 7.212 5.212 10.811 3.631 7.48 7.79 13.625 15.178 17.825.867.492.409 1.68-.475 1.755-3.512.304-6.752-.094-9.937-1.188.649.82 1.364 1.585 2.172 2.32.776.708-.081 1.688-.918 1.576-3.841-.52-7.205-1.907-10.179-4.142.369 1.075.8 2.129 1.343 3.264.326.68-.223 1.671-1.064 1.385a40.7 40.7 0 0 1-9.008-4.342c.224 1.574.512 3.097.885 4.686.178.754-.664 1.537-1.384 1.064-2.548-1.678-4.607-3.672-6.302-6.101a36.2 36.2 0 0 1-3.187 6.192c-.536.835-1.654.43-1.756-.476a15.7 15.7 0 0 0-.98-4.499c-1.984 2.484-4.385 4.248-7.445 5.504-.853.35-1.355-.735-1.065-1.385a26.4 26.4 0 0 0 1.474-4.212c-3.131 2.24-6.589 3.52-10.59 3.927-.699.07-1.193-.859-.813-1.418.458-.679.885-1.363 1.298-2.055-2.529 1.436-5.15 2.424-8.265 2.29-.663-.03-1.24-.798-.814-1.419a82 82 0 0 1 2.086-2.882 502 502 0 0 0-13.384 3.531c-.963.272-1.491-.886-.915-1.573" class="fill-primary-light"/><path fill="#2D48C3" d="M251.28 59.977c7.314-4.912 11.992-12.375 15.107-20.482 1.99-5.176 3.2-10.944 8.696-13.547 4.593-2.175 9.593-.736 12.56 3.265 1.856 2.502 3.011 5.53 4.658 8.18 2.427 3.903 14.438 18.16 16.597 21.982.417.737-.268 1.561-1.064 1.384-3.015-.674-5.656-1.826-8.079-3.504a34 34 0 0 0 1.502 3.37c.353.689-.239 1.653-1.065 1.385-3.325-1.079-5.741-3.139-8.029-5.594-.196 2.258-.086 4.397.35 6.736.157.84-.904 1.692-1.575.916-1.159-1.337-2.076-2.69-2.819-4.173a58 58 0 0 1-1.175 4.111c-.227.698-1.363 1.014-1.723.225a31.5 31.5 0 0 1-1.75-4.87 44.5 44.5 0 0 1-4.124 6.45c-.486.636-1.881.576-1.755-.474l.734-6.189a28 28 0 0 1-4.614 3.444c-.757.452-1.526-.292-1.384-1.065.186-1.025.303-1.96.365-2.89-1.747 2.308-3.739 4.21-6.682 5.246-.539.19-1.253-.32-1.193-.91l.18-1.74c-1.217 1.262-2.674 2.216-4.456 2.968-.705.297-1.309-.539-1.159-1.159q.695-2.895 1.393-5.791c-2.604 2.258-5.371 4.013-9.019 4.482-1.009.13-1.166-1.293-.477-1.756" class="fill-primary"/><path fill="#ABB6E7" d="M261.317 37.411c7.462-9.87 13.059-20.804 16.667-32.645.217-.715 1.361-1 1.721-.226 5.249 11.247 18.118 33.167 18.116 33.453.561 1.013-1.745.74-1.794.658q-2.653-1.46-5.305-2.923c.171 1.031.43 2.04.802 3.023.243.765-.701 1.514-1.384 1.064a27 27 0 0 1-3.135-2.411l.178 3.995c.038.85-1.039 1.199-1.609.666a21.2 21.2 0 0 1-3.242-3.813 49 49 0 0 1-1.673 3.6c-.398.763-1.478.499-1.723-.225-.505-1.495-.764-2.83-.832-4.274-2.565 1.533-5.23 2.512-8.27 3.027-.696.117-1.354-.412-1.159-1.159l.655-2.525c-2.235 1.19-4.537 1.852-7.197 2.133-.675.071-1.231-.87-.816-1.418" class="fill-primary-light"/><path fill="#881A0B" d="M202.191 149.009c.123-1.54.141-3.111.344-4.643.097-.732.303-1.485.905-1.966.806-.644 1.999-.499 2.952-.487l4.874.064a.3.3 0 0 1 .205.003l.136.002c.324.004.326.5.008.505-.145 9.257.782 17.746 2.533 26.838a.264.264 0 0 1-.244.32c-4.947.341-9.228.341-13.951-.185-.176-.02-.273-.147-.243-.321a239 239 0 0 0 2.481-20.13"/><path fill="#ABB6E7" d="M163.025 150.088c5.418-7.913 13.07-17.218 16.846-26.191.113-.269.326-.502.649-.492 17.425.547 34.755 4.564 52.096 6.36.728.076.835 1.064.313 1.294a108 108 0 0 0 17.643 21.461c.37.347.182.997-.297 1.123-3.94 1.04-7.842.675-11.39-1.054a72 72 0 0 1 2.379 5.215c.212.517-.383.913-.826.826-4.3-.844-7.977-2.914-10.887-6.032q.333 2.537.664 5.073c.072.547-.61.779-1.01.579a27.4 27.4 0 0 1-7.126-5.1l-.833 4.558c-.076.419-.644.621-.986.401-2.637-1.694-4.515-3.952-5.626-6.747-.891 2.572-2.174 4.899-3.893 7.101-.391.5-1.112.04-1.147-.475l-.491-7.395a39 39 0 0 1-6.006 6.718c-.373.333-.98.212-1.122-.295-.295-1.048-.534-2.287-1.251-3.122-.987-1.15-.89-.974-2.037-.033-1.52 1.249-2.748 3.212-4.027 4.706-.379.444-1.168.086-1.148-.475a41 41 0 0 0-.196-5.88 25.4 25.4 0 0 1-7.069 6.119c-.454.266-.99-.079-1.012-.58a26.2 26.2 0 0 0-.975-6.052 27.7 27.7 0 0 1-7.3 6.379c-.441.268-1.004-.079-1.01-.58a20.4 20.4 0 0 0-1.138-6.535 42 42 0 0 1-7.036 3.303c-.605.219-.983-.506-.76-.986.761-1.624 1.094-3.165 1.099-4.836a21.6 21.6 0 0 1-4.171 2.564c-.55.257-1.334-.313-.919-.92" class="fill-primary-light"/><path fill="#2D48C3" d="M169.004 130.068c4.812-4.112 7.367-9.784 9.933-15.428 1.077-2.369 2.064-5.384 3.843-7.334 1.741-1.908 4.603-2.41 6.99-3.018 6.833-1.743 13.943-2.64 20.997-2.538 5.122.073 10.621 1 13.255 5.85 7.646 6.72 12.312 16.271 20.711 22.197.526.371.365 1.243-.34 1.251a25.7 25.7 0 0 1-9.732-1.745 17.5 17.5 0 0 0 1.564 3.113c.284.446-.09.995-.579 1.01-3.733.125-6.733-1.603-9.583-3.734a39 39 0 0 0 1.463 4.502c.18.46-.371 1.001-.826.826-3.186-1.213-5.915-2.943-8.319-5.297a28 28 0 0 0-1.353 4.568c-.111.535-.766.597-1.123.297-1.888-1.591-3.348-3.393-4.477-5.534q-2.389 2.802-4.774 5.604c-.217.254-.738.269-.951 0-1.394-1.768-2.392-3.607-3.059-5.688a26.9 26.9 0 0 1-6.897 6.145c-.543.339-1.324-.364-.919-.92 1.169-1.603 1.875-3.283 2.146-5.157-2.989 2.433-6.395 3.99-10.276 4.661-.557.096-1.07-.445-.758-.987.746-1.297 1.211-2.532 1.451-3.902a29.3 29.3 0 0 1-8.612 4.524c-.487.161-.968-.351-.826-.827l1.13-3.802a38.2 38.2 0 0 1-9.605 2.509c-.572.074-.894-.787-.474-1.146" class="fill-primary"/><path fill="#ABB6E7" d="M175.2 109.577c5.096-6.087 11.27-12.1 15.05-19.151a.52.52 0 0 1 .081-.469c1.772-2.368 3.844-4.122 6.517-5.414.023-.011.045-.01.068-.018 1.731-.818 3.699-1.27 5.517-1.6 2.133-.385 4.3-.557 6.461-.662 1.501-.075 3.833-.61 5.196.189 1.632.956 2.282 3.855 3.043 5.432 1.238 2.57 2.47 5.14 3.716 7.706 2.586 5.329 5.55 9.711 10.817 12.704.617.35.292 1.198-.339 1.251-2.503.216-4.811-.067-7.083-.846.462.584.973 1.129 1.548 1.653.554.504-.058 1.203-.653 1.122-2.737-.369-5.135-1.358-7.255-2.95.263.765.57 1.516.957 2.326.232.486-.159 1.192-.758.987a29 29 0 0 1-6.42-3.095c.158 1.122.365 2.207.631 3.339.127.538-.475 1.096-.986.759-1.817-1.196-3.284-2.616-4.493-4.348a25.7 25.7 0 0 1-2.271 4.414c-.383.595-1.178.307-1.252-.339a11.2 11.2 0 0 0-.697-3.205c-1.415 1.768-3.127 3.025-5.308 3.922-.608.249-.965-.525-.759-.988a19 19 0 0 0 1.051-3.002c-2.232 1.596-4.696 2.509-7.549 2.798-.497.051-.849-.61-.579-1.01.327-.483.631-.97.924-1.464-1.802 1.024-3.67 1.728-5.891 1.631-.471-.021-.884-.568-.579-1.01q.723-1.046 1.486-2.054c-3.19.799-6.372 1.63-9.539 2.517-.687.19-1.063-.635-.652-1.125" class="fill-primary-light"/><path fill="#2D48C3" d="M184.193 90.864c5.212-3.5 8.547-8.82 10.768-14.599 1.418-3.69 2.279-7.8 6.197-9.654 3.273-1.55 6.838-.526 8.952 2.327 1.322 1.784 2.146 3.942 3.32 5.83 1.73 2.782 10.291 12.943 11.83 15.667.297.527-.192 1.114-.759.987-2.148-.48-4.03-1.302-5.757-2.498.311.815.663 1.613 1.069 2.403.253.491-.169 1.178-.758.987-2.371-.768-4.092-2.236-5.724-3.986a17.3 17.3 0 0 0 .251 4.801c.112.6-.645 1.206-1.122.653a14.2 14.2 0 0 1-2.01-2.975c-.244.984-.52 1.957-.838 2.932-.162.495-.972.723-1.228.16a22.5 22.5 0 0 1-1.248-3.472 31.7 31.7 0 0 1-2.939 4.598c-.346.451-1.341.41-1.251-.338l.523-4.411a20 20 0 0 1-3.288 2.454c-.538.322-1.086-.209-.986-.759a18 18 0 0 0 .26-2.06c-1.246 1.644-2.665 3-4.764 3.738-.382.135-.892-.228-.849-.648l.128-1.24c-.866.899-1.904 1.58-3.174 2.115-.502.212-.933-.384-.827-.826l.993-4.128c-1.856 1.61-3.829 2.86-6.429 3.194-.719.093-.831-.921-.34-1.252" class="fill-primary"/><path fill="#ABB6E7" d="M191.347 74.78a74.3 74.3 0 0 0 11.878-23.267c.155-.51.97-.712 1.228-.161 3.741 8.016 12.912 23.64 12.911 23.843.4.723-1.243.528-1.278.47q-1.89-1.042-3.782-2.083c.121.734.306 1.453.57 2.154.174.544-.498 1.08-.987.758a19.5 19.5 0 0 1-2.233-1.718l.126 2.848c.028.605-.739.854-1.146.475a15.2 15.2 0 0 1-2.312-2.719 35 35 0 0 1-1.193 2.567c-.282.542-1.052.356-1.227-.16-.36-1.067-.545-2.017-.593-3.046-1.828 1.092-3.727 1.79-5.896 2.157-.494.084-.964-.294-.826-.827l.467-1.8c-1.592.848-3.234 1.32-5.129 1.52-.478.05-.873-.62-.578-1.01" class="fill-primary-light"/></svg>