<svg xmlns="http://www.w3.org/2000/svg" width="216" height="122" fill="none"><path fill="#BED0E2" d="M75.65 121.284c17.082 0 30.93-13.848 30.93-30.93S92.732 59.422 75.65 59.422 44.718 73.27 44.718 90.353s13.848 30.931 30.93 30.931"/><path fill="#E4EAEF" d="M78.312 121.367c17.082 0 30.931-13.848 30.931-30.93S95.394 59.505 78.312 59.505s-30.93 13.848-30.93 30.93 13.847 30.931 30.93 30.931"/><path fill="#fff" d="M78.312 114.246c13.15 0 23.81-10.66 23.81-23.81s-10.66-23.81-23.81-23.81-23.81 10.66-23.81 23.81 10.66 23.81 23.81 23.81"/><path fill="#FEE3DF" d="M74.836 90.955h6.951l-3.476 12.219z"/><path fill="#000" d="M75.929 75.774v-5.28h1.037l2.16 3.525v-3.525h.991v5.28h-1.07l-2.128-3.443v3.443zM75.648 108.377l1.037-.101q.093.522.38.767.286.245.772.245.516 0 .776-.218.262-.218.261-.509a.5.5 0 0 0-.11-.319q-.108-.132-.383-.229a13 13 0 0 0-.853-.23q-.859-.213-1.203-.523a1.37 1.37 0 0 1-.486-1.062q0-.404.229-.755.228-.351.66-.534.429-.183 1.038-.183.995 0 1.497.435.503.436.527 1.163l-1.066.047q-.068-.407-.294-.585-.223-.178-.675-.178-.465 0-.728.191a.403.403 0 0 0-.01.648q.201.17.98.353.778.185 1.15.38.373.196.583.537.21.34.21.84a1.55 1.55 0 0 1-.965 1.44q-.46.192-1.148.192-1 .001-1.539-.463-.535-.465-.64-1.349M57.79 93.343l-1.26-5.28h1.092l.796 3.626.965-3.626h1.268l.926 3.688.81-3.689h1.073l-1.282 5.28h-1.13l-1.053-3.946-1.048 3.947zM95.15 93.343v-5.28h3.913v.893h-2.85v1.17h2.652v.89h-2.651v1.437h2.95v.89z"/><path fill="#2D48C3" d="M81.78 90.93c.002-.047.008-.095.008-.143 0-.726-3.477-12.05-3.477-12.05s-3.475 11.324-3.475 12.05q.002.071.007.143l-.007.025h.008a3.474 3.474 0 0 0 3.468 3.31 3.474 3.474 0 0 0 3.468-3.31h.01z" class="fill-primary"/><path fill="#fff" d="M78.312 92.63a1.843 1.843 0 1 0 0-3.686 1.843 1.843 0 0 0 0 3.686"/><path fill="#E4EAEF" d="M50.952 34.04c-.753-3.121-2.599-5.533-4.406-8.115-3.908-5.58-4.837-12.469-8.214-18.308-2.608-4.511-7.45-8.513-12.998-7.442-6.066 1.17-8.127 7.942-10.161 12.89-1.32 3.208-3.09 5.958-5.361 8.575-1.816 2.093-3.766 4.07-5.47 6.258C.76 32.498-.742 37.757.349 43.54c1.26 6.67 5.094 12.874 9.348 18.058 4.027 4.907 9.2 9.135 15.635 10.14a.33.33 0 0 0 .26-.065c.085.049.188.058.296-.02 5.806-4.159 11.816-8.135 17.424-12.557 2.293-1.808 4.446-3.896 5.73-6.56 1.317-2.734 1.746-5.816 2.114-8.8.397-3.212.561-6.524-.204-9.696M47.004 71.813c-.488-2.265-2.24-2.302-4.316-2.061-2.181.253-3.68.194-5.815-.281-.841-.187-1.556-.275-2.363.103-4.933 2.307-4.43 8.974-2.534 13.006.16.34.417.5.69.533q.132.168.294.301c1.26 1.007 5.415.395 6.698-.45.717-.475.98-1.19 1.412-1.889 1.082-1.75 2.497-2.29 4.008-3.494 1.72-1.37 2.388-3.624 1.926-5.768"/><path fill="#881A0B" d="M29.263 120.992h-7.35l3.675-81.512z"/><path fill="#565B82" d="m26.236 55.076 10.47-12.855-10.47 17.433zM26.943 87.367l10.47-12.855-10.47 17.434zM25.318 69.311V65.21L13.011 51.446z"/><path fill="#FEE3DF" d="M37.869 111.087c.268-.218-6.42 1.54-7.927 4.228.084-1.481-.22-4.9-.355-4.607a36.5 36.5 0 0 1-3.719 6.296c-.185-2.84-2.515-8.557-2.506-8.162.067 2.806-.113 5.58-.932 8.253-.616-3.635-6.442-9.374-6.29-9.07a49.7 49.7 0 0 1 3.247 8.397c-1.78-1.126-6.374-1.345-6.074-1.213 2.686 1.187 5.62 2.562 6.547 5.597.004.014.013.023.02.036a.28.28 0 0 0 .149.176c1.391.704 2.855.642 4.383.599a94 94 0 0 0 9.747-.783c.434-.058 1.077-.064 1.47-.341-.531-2.235 1.578-4.637 1.352-4.585-1.572.361-2.885 1.133-3.92 2.274.87-2.801 2.503-5.216 4.808-7.095M193.123 110.45c-.608.318-1.155 1.105-1.62 1.824a53 53 0 0 0-.388-4.025.5.5 0 0 0 .044-.222c1.203-1.603 2.498-3.165 3.595-4.876.472-.734.965-2.022.196-2.769-1.626-1.578-3.404 3.876-4.092 6.192a36 36 0 0 0-.961-4.071 34 34 0 0 0-.454-1.364 17.7 17.7 0 0 0 3.647-3.203c.496-.574 1.94-2.01 1.197-3.037-.644-.89-2.042-.442-2.631.27-1.08 1.306-1.764 3.435-2.34 5.13-.013.04-.016.079-.02.117q-.044.031-.089.064a32.4 32.4 0 0 0-2.164-4.653c1.685-1.811 4.637-6.28 2.326-8.346-2.389-2.135-3.05 4.486-3.209 6.887a29 29 0 0 0-2.806-3.688c-.024-.028-.051-.042-.078-.057a.37.37 0 0 0 .065-.229c-.031-1.393-.518-2.701-1.399-3.564-.784-.766-2.074-1.26-2.948-.421-.966.928.377 2.507.918 3.235.831 1.118 1.903 1.832 3.125 1.646a29 29 0 0 1 2.891 3.887c-1.122-.24-7.724-2.095-6.673 1.31.499 1.619 2.709 1.588 3.784 1.604 1.376.02 2.632-.361 3.462-1.758a.3.3 0 0 0 .09-.053 31 31 0 0 1 1.977 4.198 2.8 2.8 0 0 0-.79-.214.25.25 0 0 0-.147-.115c-1.401-.388-3.684-1.145-5.045-.327-.737.444-1.072 1.436-.598 2.328.599 1.122 1.93 1.568 2.941 1.451.817-.095 1.532-.57 2.248-1.038.509-.334 1.295-.68 1.719-1.234q.332.936.608 1.906c.363 1.274.634 2.573.851 3.885-.854-.999-1.907-1.662-3.085-1.852-.796-.129-2.342-.229-2.615 1.076-.651 3.121 4.174 2.765 5.916 2.221.14 1.052.232 2.115.308 3.18a2 2 0 0 0-.392-.297c-.491-.287-1.286-.57-1.823-.316-.408.193-.676.795-.434 1.307.312.656 2.094 1.109 2.137.947q.27.083.55.131a.35.35 0 0 0 .082.172 96 96 0 0 1 .051 5.636c-.008.464.562.464.571 0 .032-1.868.03-3.75-.044-5.627a5.05 5.05 0 0 0 2.19-.882c.424-.303 1.293-.861.937-1.637-.3-.65-1.043-1.011-1.581-.729M200.121 112.399c-.376.574.247 1.121.547 1.413a4.06 4.06 0 0 0 1.633.963 80 80 0 0 0-.711 4.463c-.05.369.403.438.453.069.199-1.492.43-2.988.717-4.47a.27.27 0 0 0 .086-.126c.151-.005.302-.015.452-.039.014.134 1.484-.012 1.811-.495.253-.377.113-.888-.187-1.09-.396-.265-1.062-.138-1.486.032a1.7 1.7 0 0 0-.348.189c.188-.837.39-1.669.627-2.489 1.319.641 5.107 1.504 4.965-1.052-.06-1.069-1.3-1.175-1.946-1.169-.959.01-1.875.41-2.673 1.1a28 28 0 0 1 1.142-2.984q.336-.737.712-1.439c.27.49.852.859 1.217 1.185.512.458 1.023.922 1.66 1.095.79.214 1.9.02 2.509-.799.485-.652.338-1.479-.194-1.92-.982-.814-2.886-.486-4.045-.348a.2.2 0 0 0-.13.075 2.3 2.3 0 0 0-.654.074 25 25 0 0 1 2.074-3.097l.003.005q.03.034.063.05c.491 1.208 1.443 1.662 2.538 1.811.854.118 2.606.407 3.198-.818 1.243-2.579-4.223-1.898-5.142-1.841a23 23 0 0 1 2.763-2.74c.948.294 1.885-.145 2.679-.932.517-.513 1.773-1.607 1.118-2.46-.593-.77-1.677-.533-2.391-.018-.804.578-1.347 1.558-1.539 2.662a.3.3 0 0 0 .023.189c-.022.009-.046.016-.068.035a23 23 0 0 0-2.671 2.592c.162-1.926.432-7.263-1.721-5.854-2.084 1.364-.276 5.266.844 6.906a26 26 0 0 0-2.278 3.435l-.063-.061a.4.4 0 0 0-.002-.096c-.254-1.415-.541-3.188-1.241-4.354-.382-.636-1.439-1.16-2.057-.53-.713.726.26 2.039.584 2.554a14.3 14.3 0 0 0 2.512 2.982c-.179.338-.358.679-.524 1.029a29 29 0 0 0-1.254 3.118c-.268-1.923-1.024-6.467-2.505-5.409-.7.501-.463 1.583-.177 2.223.665 1.491 1.506 2.886 2.269 4.304a.4.4 0 0 0 .009.182 42 42 0 0 0-.792 3.148c-.283-.626-.623-1.316-1.068-1.642-.394-.286-1.027-.09-1.341.389"/><path fill="#881A0B" d="M193.514 110.917c.513.285.976.993 1.368 1.639.069-1.214.174-2.422.327-3.618a.5.5 0 0 1-.037-.2c-1.016-1.442-2.11-2.844-3.037-4.383-.398-.66-.816-1.818-.165-2.49 1.374-1.419 2.876 3.483 3.457 5.566a34 34 0 0 1 .812-3.66c.119-.417.25-.822.383-1.228a15.3 15.3 0 0 1-3.081-2.879c-.418-.515-1.638-1.806-1.01-2.73.543-.799 1.724-.396 2.222.244.912 1.173 1.489 3.087 1.977 4.611.011.036.013.07.016.105q.038.028.076.057a30 30 0 0 1 1.827-4.182c-1.422-1.629-3.917-5.645-1.964-7.502 2.017-1.92 2.576 4.032 2.711 6.191a26 26 0 0 1 2.37-3.316c.02-.025.043-.038.066-.052a.35.35 0 0 1-.054-.204c.026-1.254.437-2.429 1.181-3.203.662-.69 1.752-1.134 2.49-.38.817.834-.318 2.255-.776 2.908-.701 1.005-1.607 1.647-2.638 1.48a26 26 0 0 0-2.443 3.495c.948-.217 6.524-1.884 5.637 1.176-.421 1.456-2.289 1.428-3.197 1.443-1.163.016-2.224-.325-2.924-1.581a.2.2 0 0 1-.073-.045l-.005-.004a29 29 0 0 0-1.668 3.775c.209-.105.441-.157.667-.192a.22.22 0 0 1 .123-.104c1.184-.348 3.113-1.029 4.262-.293.623.399.906 1.291.505 2.093-.505 1.009-1.63 1.409-2.485 1.304-.689-.084-1.293-.512-1.898-.932-.431-.3-1.094-.611-1.452-1.109a29 29 0 0 0-.514 1.713 34 34 0 0 0-.719 3.493c.723-.897 1.612-1.494 2.607-1.665.672-.116 1.978-.205 2.208.968.55 2.804-3.525 2.485-4.998 1.996a49 49 0 0 0-.259 2.859q.153-.156.332-.267c.416-.258 1.086-.513 1.54-.284.344.173.571.715.365 1.174-.262.59-1.769.997-1.804.851a4 4 0 0 1-.465.119.33.33 0 0 1-.069.154 92 92 0 0 0-.042 5.067c.007.417-.475.417-.482 0a94 94 0 0 1 .037-5.06 4.1 4.1 0 0 1-1.85-.792c-.359-.273-1.093-.774-.792-1.473.253-.583.881-.906 1.335-.653M188.225 113.513c-.416.373-.714 1.057-.959 1.673-.27-.917-.573-1.82-.917-2.698a.3.3 0 0 0-.001-.164c.676-1.417 1.427-2.826 2.004-4.292.249-.628.429-1.646-.276-1.972-1.49-.687-2.012 3.548-2.182 5.33-.4-.896-.85-1.762-1.364-2.586a21 21 0 0 0-.559-.833 16 16 0 0 0 2.302-3.142c.291-.524 1.177-1.883.449-2.41-.63-.456-1.633.207-1.975.85-.626 1.178-.822 2.828-1.002 4.151-.004.031 0 .059.003.087l-.059.066a19.4 19.4 0 0 0-2.374-2.687c1.011-1.682 2.585-5.526.496-6.38-2.158-.883-1.646 3.881-1.399 5.589a18 18 0 0 0-2.716-1.855c-.024-.014-.047-.015-.069-.02a.26.26 0 0 0 .014-.174c-.238-.961-.813-1.747-1.622-2.124-.718-.335-1.783-.353-2.323.449-.598.887.675 1.647 1.202 2.016.808.567 1.74.793 2.647.356a18 18 0 0 1 2.815 1.973c-.897.115-6.242.487-4.912 2.588.632.999 2.321.421 3.147.161 1.056-.332 1.96-.913 2.381-2.092a.2.2 0 0 0 .059-.056l.002-.004a18.6 18.6 0 0 1 2.162 2.418 2.4 2.4 0 0 0-.638.05.17.17 0 0 0-.13-.042c-1.133.083-2.999.131-3.916 1.041-.497.494-.601 1.268-.099 1.768.631.629 1.72.603 2.477.267.611-.271 1.086-.781 1.562-1.285.339-.361.888-.798 1.127-1.29q.397.567.76 1.171a21 21 0 0 1 1.249 2.484c-.807-.478-1.717-.674-2.649-.51-.629.111-1.829.431-1.837 1.406-.018 2.33 3.623.869 4.875.053.269.696.504 1.41.726 2.131a1.5 1.5 0 0 0-.347-.107c-.42-.076-1.072-.072-1.445.239-.284.236-.396.722-.132 1.016.339.378 1.775.243 1.784.12q.22-.01.441-.047c.022.043.05.08.09.098.348 1.285.643 2.593.907 3.902.066.324.502.181.438-.144a62 62 0 0 0-.901-3.896 4.8 4.8 0 0 0 1.541-1.165c.279-.316.859-.922.467-1.372-.329-.375-.954-.438-1.324-.106"/><path fill="#EA3E72" d="M172.587 43.727c-.35.037-1.044.162-2.266.56.369-.24.96-.794 1.372-1.047.519-.319-.107-.728-.896-.325-1.183.604-3.356 2.136-4.253 2.91-1.604.976-2.215 1.057-4.148 1.73-.756.263 1.622 2.288 2.171 2.49.658.241.806-.24 1.317-.627 1.049-.794 2.364-1.175 3.827-1.416 1.365-.224 2.215-.757 3.324-1.177.907-.213.714-.518.572-.841-.016-.04-.05-.068-.078-.101.132-.113.21-.245.186-.392-.038-.231-.259-.37-.549-.447.153-.263.071-.552-.357-.699.337-.095.466-.691-.222-.618"/><path fill="#2A2B3C" d="M169.493 46.924a.1.1 0 0 1-.078-.037.1.1 0 0 1 .014-.143c.481-.4-.206-1.477-.213-1.488l-.024-.037.011-.043c.043-.177.972-.904 1.522-1.32a.1.1 0 0 1 .122.16c-.62.47-1.288 1.015-1.427 1.184.147.245.69 1.24.139 1.7a.1.1 0 0 1-.066.023"/><path fill="#2D48C3" d="M125.987 34.625c-1.12-.174-2.541-.65-3.653-.238-.986.366-1.654 1.338-2.254 2.149-.51.687-1.483 1.67-1.281 2.604.198.909 1.198 1.445 2.018 1.65a.34.34 0 0 0 .251-.032c.222.076.44.124.643.122.625-.006 1.021-.716 1.391-1.133 1.2-1.349 2.5-2.576 2.534-4.45l.157.025c.456.071.652-.626.194-.697M119.274 42.085a.4.4 0 0 0-.156-.04c-.01-.003-.017-.01-.027-.01-2.417-.302-3.002 2.21-3.445 4.18-.41 1.824-.919 4.178 1.238 4.932 2.091.73 2.77-1.491 3.295-3.192.544-1.766 1.128-4.855-.905-5.87" class="fill-primary"/><path fill="#ABB6E7" d="M141.201 35.152c-.193-2.845-3.42-3.1-5.711-3.604-2.446-.537-5.421-1.235-7.591.349-.03.009-.06.014-.091.033-4.563 2.808-8.056 7.022-10.198 11.92-1.88 4.296-2.556 9.782 2.487 12.099 2.05.941 4.491 1.178 6.401-.16 2.312-1.618 4.3-3.854 6.091-6.015 1.854-2.237 3.533-4.613 5.162-7.017 1.537-2.269 3.646-4.69 3.45-7.605" class="fill-primary-light"/><path fill="#FFD357" d="M144.965 27.28H127.75v4.982h17.215z"/><path fill="#EDF1F4" d="M129.005 27.78c-.919-.954-2.192-.405-3.017.35q-.193.181-.274.38a.83.83 0 0 0-.225.43c-.184 1.045.058 2.128.861 2.87 1.088 1.01 2.25.157 2.817-.93.49-.939.637-2.268-.162-3.1"/><path fill="#ABC3D6" d="M127.53 31.689a1.3 1.3 0 0 1-.381-.065c-.759-.243-1.146-1.016-.986-1.97.144-.862.736-1.726 1.59-1.726h.028c.435.01.774.156 1.007.437.453.547.318 1.395.312 1.432-.017.097-.109.169-.208.148a.18.18 0 0 1-.149-.207c.002-.007.114-.724-.234-1.143-.162-.196-.41-.298-.735-.305h-.019c-.648 0-1.119.73-1.235 1.424-.102.61.039 1.34.741 1.566.396.127.662-.01.815-.419.263-.714.02-1.75-.155-1.823-.188.043-.384.408-.431.83-.035.32.039.495.086.516a.18.18 0 0 1 .091.24.183.183 0 0 1-.239.09c-.235-.108-.345-.438-.296-.886.055-.503.303-1.053.73-1.143.096-.02.275-.014.431.234.311.5.406 1.813-.072 2.426a.85.85 0 0 1-.691.344"/><path fill="#FFD357" d="M144.964 32.34c.914 0 1.654-1.133 1.654-2.532 0-1.398-.74-2.532-1.654-2.532s-1.653 1.134-1.653 2.532.74 2.533 1.653 2.533"/><path fill="#EA3E72" d="M121.501 118.435c-.165-.787-.173-1.407.172-2.546-.001-.014.005-.021.005-.021.271-.884.421-1.251.652-2.123 1.573-.257 3.531.014 4.801.628-.204 1.22-.19 1.533.022 2.207q.049.163.134.321c.742 1.418 3.148 2.364 4.143 3.318.278.247.445.499.452.755.056 1.309-9.971-.649-10.381-2.539"/><path fill="#FFD357" d="M131.847 120.826a.4.4 0 0 1 .027.148c.09 1.4-10.17-.558-10.56-2.384l-.005-.008a1.3 1.3 0 0 1-.077-.314c-.136-.932.369-2.203.444-2.382-.005-.008.002-.013.002-.013 2.591 1.682 5.608 1.025 5.608 1.025.651 1.245 2.576 2.129 3.712 2.96.457.294.774.622.849.968"/><path fill="#2A2B3B" d="M131.847 120.827a.4.4 0 0 1 .027.147c.09 1.401-10.17-.558-10.56-2.384l-.005-.008a1.3 1.3 0 0 1-.077-.313c.525.416 1.622 1.15 3.344 1.625 2.229.615 4.587 1.161 7.271.933"/><path fill="#EA3E72" d="M156.854 117.511c-1.309-.515-3.656-.7-4.743-1.748a1.6 1.6 0 0 1-.229-.263c-.414-.572-.527-.865-.718-2.087-1.399-.181-3.342.181-4.753.921.056.9.029 1.297.051 2.222 0 0-.003.008.003.02.026.941.467 1.974.721 2.512 3.258-.271 6.468-.739 9.668-1.577"/><path fill="#FFD357" d="M158.058 118.647c.019.577-10.132 1.861-10.774 1.076l-.007-.006c-.038-.04-.064-.085-.096-.13a3 3 0 0 1-.079-.143c-.42-.843-.649-2.681-.636-2.876-.007-.006 0-.013 0-.013 2.988.778 5.64-.797 5.64-.797 1.011.979 3.118 1.206 4.46 1.634 1.309.289 1.486 1.229 1.492 1.255"/><path fill="#2A2B3B" d="M158.105 118.845c.02.577-10.074 1.91-10.716 1.125 0 0-.176-.338-.208-.383 3.382.262 8.274-.5 10.844-1.012.013.027.073.244.08.27"/><path fill="#3F4261" d="M140.682 34.081c7.327-2.183 13.642 7.677 16.869 12.84 3.225 5.164.496 8.597-1.972 7.846-7.747-2.356-19.338-19.362-14.897-20.686"/><path fill="#3F4261" d="M166.489 43.998c-5.456.313-9.317 1.705-12.664 2.687-3.247.952 1.382 8.221 2.513 8.183s10.693-.755 12.031-6.008c0 0-.797-4.925-1.88-4.862"/><path fill="#343751" d="M168.369 48.86s-3.053 6.343-12.791 5.907c-1.21-.054-7.366-4.643-7.366-4.643l1.729-5.31s3.716 7.136 5.97 7.91c2.252.775 12.458-3.864 12.458-3.864"/><path fill="#ABB6E7" d="M155.455 114.973c.28.274-2.489-27.196-2.641-32.002-.161-5.07-.548-10.161-1.087-15.204-.436-4.087.176-9.21-2.884-12.157-.197-.19-10.979.688-12.706 5.008-.916 2.295-.199 4.833.209 7.157.576 3.287 3.081 22.857 3.256 29.441.159 5.967 1.256 14.219 3.343 19.865 2.912 1.065 8.559-.718 12.51-2.108" class="fill-primary-light"/><path fill="#2D48C3" d="M141.59 65.104s1.957 23.874 2.929 28.1c.972 4.228 2.857 20.11 5.799 23.384 0 0-4.689 1.434-7.373.493 0 0-2.77-7.886-3.246-17.063-.474-9.177-4.008-29.227-4.008-29.227z" class="fill-primary"/><path fill="#2A2B3B" d="m141.189 67.02-3.853 13.77 1.355 9.367z"/><path fill="#ABB6E7" d="M140.938 57.985c-.143-.232-10.509-3.986-13.329-.284a4 4 0 0 0-.227.33c-1.296 2.081-1.53 6.1-1.744 8.324-.324 3.326-3.157 22.851-4.758 29.237-1.445 5.795-2.784 13.617-2.285 19.62 2.147 1.383 5.604 2.654 13.059 1.869.195.338 4.636-26.998 5.777-31.666 1.205-4.934 2.191-9.938 3.027-14.943.674-4.052 2.639-8.823.48-12.487" class="fill-primary-light"/><path fill="#2D48C3" d="M131.337 62.563s-3.532 7.422-3.403 10.852c.129 3.422.94 17.179-1.394 22.689s-3.043 20.976-3.043 20.976-2.566-.432-4.901-1.869c-.5-6.003.839-13.824 2.284-19.62 1.602-6.386 4.435-25.91 4.759-29.237.214-2.224.447-6.243 1.744-8.324l3.954 1.044z" class="fill-primary"/><path fill="#2A2B3B" d="M151.194 60.755s-12.18 3.252-25.035.96l.398-3.045z"/><path fill="#17171D" d="M148.32 36.357s3.166 3.732 4.351 9.304c.747 3.514.579 7.953.579 7.953l-4.076-3.022z"/><path fill="#EDF1F4" d="M125.58 60.546s2.938-22.777 9.69-26.684c4.347-2.515 11.056-.303 12.553 2.999 2.921 6.44 4.625 23.658 4.625 23.658s-15.618 3.275-26.868.027"/><path fill="#EA3E72" d="M142.781 29.83s-.079 2.875-.166 3.454c-.026.178-2.677.05-3.017-.293.263-.724.399-1.784.399-3.16 0-1.303 2.784 0 2.784 0"/><path fill="#EA3E72" d="M139.645 28.036s.604 3.505 2.819 3.575c2.214.068.827-4.774.494-4.908-.332-.133-2.492-.604-3.313 1.333"/><path fill="#17171D" d="M142.348 24.992a1.5 1.5 0 0 0-.962-.149c-.406.077-.66.388-1.053.43-.876.093-1.303.659-1.209 1.404-.021.02-.045.041-.063.07-.321.545-.527 1.121-.206 1.643-.351.63.183 1.455.588 1.969a.3.3 0 0 0 .115.086c.113.213.507.248.61-.056.26-.767.034-1.69.322-2.4.138-.34.441-.59.669-.913.341.108.663.06.97-.132.729.386 1.931.216 2.135-.69.269-1.205-1.026-1.573-1.916-1.262"/><path fill="#EA3E72" d="M140.786 28.674s-.336-.646-.948-.554c-.613.092-.753 1.551.283 1.678 1.036.126.665-1.124.665-1.124"/><path fill="#17171D" d="M143.69 29.96c-.198-.054-.447-.08-.553-.214-.179-.233-.484-.196-.486.061-.229.327-.766.493-.943.277a1.4 1.4 0 0 1-.261-.254 2.8 2.8 0 0 1-.386-.631c-.196-.42-.302-.878-.398-1.33-.086-.407-.711-.234-.624.174.125.588.297 1.216.603 1.753a.34.34 0 0 0 .004.152c.229.968.65 1.602 1.686 1.764.315.048.827-.025 1.103-.232.314-.238.331-1.35.255-1.52"/><path fill="#2A2B3C" d="M151.5 67.855c-.422 0-1.309-.062-1.786-.538-.623-.624-.697-5.792-.7-6.011a.08.08 0 0 1 .079-.082h.002c.044 0 .08.035.081.08.019 1.477.174 5.419.654 5.899.575.575 1.877.486 1.891.483h.004a.081.081 0 0 1 .009.162c-.014 0-.101.007-.234.007M141.748 113.319a.08.08 0 0 1-.081-.08.08.08 0 0 1 .08-.082c.107-.001 10.752-.136 13.533-2.044a.08.08 0 1 1 .091.134c-2.82 1.936-13.182 2.068-13.623 2.072M132.271 113.448h-.002c-5.959-.128-13.609-2.171-13.686-2.191a.08.08 0 0 1-.058-.099.084.084 0 0 1 .1-.058c.077.021 7.708 2.059 13.648 2.186a.083.083 0 0 1 .079.083.08.08 0 0 1-.081.079"/><path fill="#3F4261" d="M145.581 56.902c-.162.5-3.118 1.342-6.852 1.81-4.097.518-9.134.582-12.459-.746a8 8 0 0 1-1.354-.68s5.542-21.18 10.455-23.708c2.755-1.42 4.298-.803 4.298-.803s8.603 15.876 5.912 24.127"/><path fill="#E4EAEF" d="M141.665 61.854s-8.655.46-13.303-.55c-1.386-.306-1.963-1.628-2.093-3.34 3.326 1.33 8.362 1.265 12.46.746 1.362 1.977 2.936 3.144 2.936 3.144"/><path fill="#343751" d="M144.16 52.063c.233 1.835-6.3 5.39-5.431 6.649-4.097.518-9.134.582-12.46-.746-.31-4.038 1.867-10.223 1.867-10.223l9.213-13.219s2.813 3.028 2.748 6.21c-.065 3.19 3.467 6.63 4.063 11.33"/><path fill="#3F4261" d="M142.615 33.284s6.11 7.95 5.834 23.4c-.019 1.08 3.952.493 4.29-.524 1.28-3.865-2.42-17.14-5.769-20.895-1.298-1.456-4.355-1.98-4.355-1.98"/><path fill="#17171D" d="M139.668 32.777s-1.275 1.146-1.174 2.097c.101.95 3.002 1.647 3.002 1.647s-2.779-.117-3.366-1.45 1.538-2.294 1.538-2.294M142.615 33.284s2.568.766 3.031 2.062c.135.378-1.269.945-1.269.945s1.865-.084 1.836-.973c-.028-.888-3.598-2.034-3.598-2.034"/><path fill="#17171D" d="M137.112 34.208s3.509 1.692 3.151 5.365-1.689 4.89-1.905 6.078 2.355 1.728 2.355 1.728l-11.652 4.884 5.996-8.059z"/><path fill="#ABB6E7" d="M138.028 33.531c-.986-.99-5.577-.292-4.591.7 3.52 3.54 3.648 8.853.485 12.017-2.827 2.829-6.797 4.109-10.589 5.013-1.357.325-.782 2.416.577 2.092 5.229-1.248 10.749-3.406 13.652-8.243 2.397-3.996 3.891-8.133.466-11.579" class="fill-primary-light"/><path fill="#E4EAEF" d="m153.07 36.969 11.589-1.9-3.257 28.408-8.234 1.43z"/><path fill="#EDF1F4" d="m142.503 35.147 10.567 1.822s.925 4.279.97 14.633c.031 6.997-.873 13.306-.873 13.306L144.078 64s.919-10.509.473-13.963a1030 1030 0 0 0-2.048-14.891M164.659 35.07l10.89.572s-2.601 6.91-4.14 16.576c-.937 5.883-.65 12.933-.65 12.933l-9.357-1.674s-.035-10.624.367-14.124c.69-5.98 2.89-14.284 2.89-14.284"/><g fill="#BED0E2" opacity=".3"><path d="m151.882 37.063 1.057-.004c.079 0 .149-.04.203-.1l-.071.01-1.482-.255c-.001.19.127.35.293.35M146.072 59.918l-1.694.095-.041.604 2.279-.008c.157 0 .286-.149.292-.336l.109-3.293c.006-.177.123-.321.273-.335l4.055-.354c.149-.012.265-.156.271-.333l.205-5.655c.008-.209-.14-.38-.315-.364l-2.06.176c-.17.014-.314-.145-.315-.348l-.009-2.67c-.002-.192-.133-.349-.296-.348l-4.704.016.104.785h.383c.154 0 .284.143.294.327l.081 1.458c.01.184-.103.346-.257.369l-.214.032q.019.15.04.301.024.203.045.436l.846-.143c.157-.026.268-.196.251-.384l-.185-2.009c-.02-.206.117-.387.291-.387l2.154.002c.159 0 .288.15.293.339l.067 2.65c.005.194.143.347.307.338l2.208-.107c.174-.01.315.162.307.367l-.186 4.15c-.008.176-.125.318-.274.33l-4.08.324c-.152.012-.271.16-.274.34l-.017.959c-.004.193-.14.346-.303.34l-1.478-.047-.035.657 1.576.067c.159.007.284.16.284.348l.004.958c-.001.19-.125.344-.282.353" opacity=".3"/><path d="m145.275 56.035.053-1.266c.008-.2-.126-.367-.295-.367l-.383.002a100 100 0 0 1-.067 1.909l.364.052c.169.023.32-.128.328-.33M145.023 51.683h-.363c.016.585.016 1.234.006 1.923l.272.039c.169.024.319-.127.328-.33l.052-1.265c.009-.2-.126-.368-.295-.367M143.934 42.716l-.342.144.14 1.024 1.138-.136c.153-.018.269-.176.263-.36l-.034-1.147c-.006-.197.127-.36.293-.361l3.069-.012c.138 0 .256-.115.285-.276l.939-5.207-1.309-.226-.689 4.405c-.026.165-.148.284-.288.285l-2.213.008c-.163 0-.295-.155-.296-.349l-.007-1.919c0-.174-.108-.32-.253-.344l-1.097-.182c-.176-.03-.335.134-.334.346v.162c.001.194.133.35.295.35l.327-.002c.163 0 .295.155.296.349l.011 3.116c.001.149-.077.281-.194.332M170.993 38.178c-.149-.013-.284.11-.31.285l-1.064 6.927c-.021.137-.108.246-.221.278l-1.609.451c-.127.036-.218.165-.226.32l-.34 6.877c-.009.17.087.323.227.362l1.398.386-.27-.075-.378 3.306c-.016.15-.115.272-.242.297l-2.968.589c-.19.038-.359-.148-.342-.375l.13-1.775c.013-.172-.083-.33-.224-.37l-2.383-.68-.024-.007-1.551-.277c-.156-.028-.266-.196-.25-.382l.228-2.697c.015-.184-.091-.35-.244-.38l-4.529-.892-.045-.013-.857-.345c-.127-.05-.208-.196-.199-.354l.239-4.282c.01-.175-.092-.331-.237-.366l-1.625-.386c-.159-.037-.262-.22-.232-.408l.619-3.865c.027-.164.147-.284.287-.284l3.26-.012 2.284-.021c.147-.002.271-.133.289-.307l.301-2.923a.35.35 0 0 1 .165-.272l1.695-.961-2.746.45-.195 2.35c-.014.178-.14.314-.291.315l-1.338.004-4.512.016c-.145 0-.269.128-.289.3l-.76 6.31c-.025.203.101.386.272.398l1.693.13c.163.012.287.181.275.376l-.289 4.369c-.011.16.073.31.202.36l1.824.706a.2.2 0 0 0 .065.016l3.849.418c.168.018.288.2.265.397l-.306 2.581c-.02.177.074.344.22.389l2.334.698.019.006 1.838.397c.146.032.25.189.241.365l-.241 4.803c-.009.154.07.296.191.35l2.004.878c.141.061.22.238.184.411l-.2.966.619.111.287-1.661c.029-.171-.052-.342-.191-.4l-2.166-.907c-.127-.053-.207-.202-.196-.36l.104-1.414c.011-.151.104-.278.229-.31l3.999-1.054c.123-.032.214-.153.228-.3l.33-3.426c.019-.207.187-.347.358-.3l1.379.38c.021.006.038.02.056.03q.042-.396.087-.788l-3.106-.712c-.146-.033-.248-.19-.238-.365l.313-5.673c.008-.15.097-.278.22-.315l1.768-.532c.114-.034.199-.145.218-.283l.911-6.696c.024-.175.155-.301.305-.292l2.812.172q.112-.371.216-.707z" opacity=".3"/><path d="M154.613 41.083c-.142 0-.263.12-.289.286l-.263 1.748c-.027.181.07.358.221.401l1.06.305c.162.046.322-.075.357-.269l.36-2.055c.038-.217-.103-.422-.29-.42zM156.489 62.687l-.907.003c-.138 0-.257.114-.286.274l-.301 1.627 1.546-.27.236-1.205c.043-.22-.099-.43-.288-.43" opacity=".3"/><path d="M159.863 63.117c.032-.263-.186-.47-.394-.375l-.925.417c-.207.094-.425-.11-.396-.372l.248-2.242c.021-.187-.086-.36-.242-.391l-3.452-.692q-.014-.004-.032-.004l-4.706-.34c-.153-.012-.287.12-.309.3l-.491 4.26c-.018.163-.13.288-.268.3l-2.64.24 3.751.374.58-3.873c.026-.176.161-.3.312-.286l1.109.1c.17.016.293.2.269.4l-.359 2.916c-.02.158.053.312.177.373l1.303.645.65-.113.008-.035.018-.154c.019-.164-.062-.323-.194-.379l-1.04-.434c-.131-.055-.211-.211-.194-.376l.269-2.43c.02-.183.158-.316.313-.302l1.285.117.029.004 2.824.603c.155.033.26.204.24.389l-.23 2.14a.38.38 0 0 0 .067.268l2.345-.408zM172.698 41.075c-.167-.03-.32.113-.337.312l-.149 1.858c-.015.191.102.362.263.381l.671.08q.326-1.307.638-2.434zM147.36 53.8c0 .194.132.35.295.349l2.296-.008c.163 0 .293-.157.293-.35l-.001-.23c-.001-.198-.138-.355-.304-.349l-2.296.091c-.159.007-.284.162-.284.35zM163.968 39.056l-2.451.885c-.123.044-.208.18-.208.335l.013 3.425a.37.37 0 0 0 .13.29l1.427 1.133c.177.14.417.019.453-.23l.048-.326a.38.38 0 0 0-.134-.357l-.99-.74a.37.37 0 0 1-.138-.294l-.008-2.182c0-.151.081-.285.202-.333l1.54-.602q.019-.008.037-.012l2.75-.629c.135-.03.234-.168.238-.331l.079-3.111c.005-.19.135-.34.295-.339l3.408.007c.129 0 .239-.102.278-.247l-4.835-.254-.125 3.212c-.006.163-.107.3-.242.328l-1.732.361zM157.309 45.48c-.156-.02-.298.11-.322.293l-.413 3.125c-.028.212.11.405.291.404l.93-.003c.14 0 .259-.117.287-.28l.512-2.99c.035-.202-.084-.395-.257-.418zM155.686 37.05c.155-.002.283-.144.293-.327l.013-.233-1.799.295c.031.153.146.27.286.269zM159.88 45.864c-.138 0-.256.114-.285.274l-.507 2.731c-.041.218.099.425.287.425l.878-.004c.137 0 .255-.112.285-.27l.537-2.73c.042-.22-.098-.43-.288-.43zM160.638 57.778l-1.104-.16c-.151-.02-.291.1-.323.277l-.232 1.34c-.035.204.087.4.26.42l1.223.139c.161.018.304-.122.32-.312l.114-1.32c.017-.191-.099-.362-.258-.384M147.65 52.613l2.297-.008c.162 0 .293-.158.292-.35l-.001-.23c-.001-.198-.138-.355-.304-.349l-2.297.091c-.158.007-.283.162-.283.351v.147c.001.193.133.348.296.348M157.733 56.331c.161.018.304-.121.321-.312l.114-1.32c.016-.19-.098-.36-.258-.383l-1.103-.16c-.152-.02-.292.099-.323.277l-.233 1.34c-.035.204.087.4.26.42z" opacity=".3"/></g><path fill="#EA3E72" d="M148.542 52.97c-.969-1.145-2.04-1.95-3.302-2.466-.004-.035-.016-.063-.024-.096.953.034 1.91.244 2.929.857.515.31.854-.784.343-1.091-1.84-1.108-3.618-1.292-5.658-.851-2.863.62-6.113.55-8.849-.491a.35.35 0 0 0-.208-.015c-.18-.018-.375.077-.481.343l-1.952 4.908c-.136.343.09.752.361.772 2.562.19 5.183.184 7.76-.078a8 8 0 0 0 2.045-.487c.816-.3 1.723-.863 2.584-.78 1.035.103 1.82.94 2.571 1.703.363.368.783-.199.689-.664l.013.011c.334.354.726-.12.702-.569.402.324.867-.544.477-1.005"/><path fill="#2A2B3C" d="M146.732 51.437a.13.13 0 0 1-.091-.039c-.228-.232-1.124-.64-1.45-.776a.127.127 0 0 1-.068-.167.126.126 0 0 1 .167-.068c.05.02 1.224.516 1.534.833a.128.128 0 0 1-.092.217M148.064 54.105a.13.13 0 0 1-.099-.047c-.014-.018-1.434-1.756-3.293-2.48a.13.13 0 0 1-.073-.166.13.13 0 0 1 .166-.072c1.923.749 3.339 2.484 3.399 2.557a.13.13 0 0 1-.019.18.14.14 0 0 1-.081.028M147.349 54.661a.13.13 0 0 1-.095-.041c-.016-.017-1.568-1.71-2.802-1.96a.127.127 0 0 1-.1-.15c.014-.07.082-.11.15-.1 1.317.268 2.875 1.966 2.941 2.039a.13.13 0 0 1-.009.18.13.13 0 0 1-.085.032"/><path fill="#3F4261" d="M137.347 33.881c3.598 6.746-3.226 15.366-7.644 19.554-4.418 4.189-9.452-1.955-9.045-3.702s14.51-19.94 16.689-15.852"/><path fill="#3F4261" d="M142.208 48.465c-2.105-2.799-16.275-2.238-19.468-1.118s-1.846 8.13-.785 8.524c1.06.395 18.909 4.36 20.721-.806 0 0 .184-5.733-.468-6.6"/><path fill="#343751" d="M134.106 34.23s-12.006 9.91-14.047 16.064c-2.041 6.156 2.484 6.162 14.532 7.403 0 0-13.41-4.235-12.006-7.314 1.405-3.08 11.521-16.153 11.521-16.153"/><path fill="#EA3E72" d="M173.137 47.134c-.001-.052-.025-.1-.04-.15.199-.062.346-.173.389-.348.066-.275-.114-.533-.4-.753.292-.221.337-.58-.07-.943.419.052.84-.55.041-.791-.349-.105-1.018-.309-2.183-.377-.91-.054-.75.955-.54 1.154-.043.134-.17.263-.213.396.072.15.114.366-.022.468-.338.256-.103.77.295.833.261.04.497.372.287.614-.056.064-.006.135.085.204.235.092.459.21.692.313.021.01.034.026.054.037q.292-.001.595.01c1.109.187 1.036-.243 1.03-.668"/><path fill="#2A2B3C" d="M172.486 46.018c-.887 0-2.335-.09-2.484-.666a.38.38 0 0 1 .083-.362c.464-.518 2.696-.208 2.948-.171.067.01.113.071.103.138-.01.066-.068.117-.138.102-.905-.131-2.447-.224-2.732.094-.035.04-.043.08-.029.139.108.413 1.723.525 2.842.469.062.008.124.048.127.116a.12.12 0 0 1-.116.127 12 12 0 0 1-.604.014"/><path fill="#2A2B3C" d="M173.098 47.105h-.01c-.016-.001-1.552-.132-2.419-.275-.533-.089-.966-.487-.91-.837.031-.192.228-.487 1.174-.338a.12.12 0 0 1 .101.14.12.12 0 0 1-.14.1c-.587-.092-.873.002-.894.138-.027.168.264.483.708.556.859.142 2.385.272 2.4.273a.12.12 0 0 1 .112.131.124.124 0 0 1-.122.112"/><path fill="#2A2B3C" d="M172.809 47.941h-.003c-.321-.008-1.936-.072-2.18-.544-.102-.197-.071-.34-.028-.424.112-.218.404-.266.437-.27a.117.117 0 0 1 .138.102.12.12 0 0 1-.102.138c-.052.008-.21.05-.257.141q-.037.075.029.201c.131.254 1.231.394 1.97.414a.121.121 0 0 1-.004.242M170.333 45.047a.12.12 0 0 1-.092-.042c-.149-.17-.274-.486-.2-.774a.61.61 0 0 1 .401-.43c.55-.209 2.157.099 2.227.112a.12.12 0 0 1 .096.143.124.124 0 0 1-.144.096c-.445-.087-1.688-.278-2.093-.123q-.203.078-.251.262c-.05.193.039.43.147.555a.12.12 0 0 1-.012.172.12.12 0 0 1-.079.029"/><path fill="#EDF1F4" d="M100.768 17.18h-.041c-2.174-1.755-4.902-2.317-7.544-1.501.248-.797.643-1.544.295-2.395-.356-.87-1.323-1.376-2.174-1.613-1.557-.436-3.232-.23-4.45.73-.443-2.1-2.223-3.885-4.52-3.78-2.434.11-4.12 2.3-4.182 4.585-1.278-.35-2.69-.49-3.952-.06-1.09.372-1.384 1.467-2.189 1.82-1.09.48-2.347-.364-3.311.668-.42.447-.528.968-.378 1.474.207.398.52.744.882 1.027h31.212c.216.131.457.07.608-.082.332-.227.251-.873-.256-.873M191.123 20.285a.65.65 0 0 0-.076-.308c-.657-1.225-1.572-2.198-2.955-2.578-.24-.066-1.893-.032-2.016-.081-1.433-.573-.446-.533-1.339-1.3-1.815-1.557-3.413-1.471-5.073-.226-.231-2.24-.735-3.8-4.004-3.335-3.028.43-4.524 2.944-4.444 5.687-1.916-.21-3.503.123-4.33 2.165-.136.333.026.577.272.694.066.25.26.46.595.46h23.013c.686.001.8-.867.357-1.178"/></svg>