<svg xmlns="http://www.w3.org/2000/svg" width="284" height="15" fill="none"><path fill="#00C471" d="M25.057 5.77c-1.854-.008-3.708.005-5.539-.029-.967-.017-2.406-.078-2.694-.185-.484-.18.829-.289 1.681-.4.288-.035.725-.111.656-.135-.276-.096-.656-.236-1.128-.25-1.428-.045-2.925-.045-4.387-.051-3.294-.015-6.633.091-9.95-.078.968-.37 3.19-.241 4.733-.353 1.347-.1 2.821-.15 4.134-.256.391-.032.507-.176.587-.273.023-.033-.414-.095-.725-.113-.967-.062-1.97-.11-3.443-.19 16.294-.344 32.277-.16 48.122-.449-10.72-.006-21.441-.01-32.162-.022a733 733 0 0 1-8.844-.073c-.506-.008-1.013-.122-1.405-.202-.103-.022.127-.117.357-.147 3.812-.484 7.808-.863 12.909-.898 6.644-.047 13.254-.185 19.898-.247 48.813-.457 97.672-.356 146.531-.37 18.874-.005 37.759.047 56.632.004 5.758-.013 10.824.327 16.168.53.955.038 1.853.185 2.544.316 1.428.27 2.695.562 4.042.85-5.516.18-10.997-.234-16.444.02-.23.011-.472.08-.483.125-.023.054.115.148.322.159 1.371.078 2.764.18 4.18.198 5.159.065 10.341.099 15.511.15.231.001.426.066.645.102-.484.073-.956.205-1.462.209-3.259.024-6.518.02-11.066.03 2.879.284 4.606.47 6.425.629 1.382.12 3.408-.06 4.537.237-3.213.198-6.771-.058-10.225.295 3.5.147 6.644.27 9.73.424.46.022.679.196.898.306.035.017-.472.088-.76.093a236 236 0 0 1-3.27.041c-2.58.02-5.171.036-7.75.058-1.013.01-1.382.101-.979.247.127.046.449.093.749.115 1.589.116 3.397.135 3.915.52.633.464 2.867.668 5.815.67.426 0 .852.067 1.267.104-.334.019-.668.045-1.014.054-2.395.064-2.913.215-1.635.588.507.148-1.577.142-2.188.256-.311.058-.322.258-.184.267 1.67.1 3.386.174 5.009.252-.99.079-2.176.122-2.89.24-1.451.238-3.178.303-5.044.27-2.568-.047-5.089-.138-7.646-.196-1.428-.032-2.879-.036-6.091-.071 2.28.19 2.959.276 3.731.306 2.867.112 5.746.218 8.647.3 2.545.073 5.148.094 7.693.167 1.75.05 3.397.162 4.295.459-6.126.205-12.08.523-18.367.549-.219 0-.622.069-.61.103.023.054.241.132.518.153 3.673.283 7.485.502 11.538.6.23.006.61.1.553.111-.403.09-.852.237-1.347.243-8.487.102-16.962.052-25.449-.036-5.17-.054-10.352-.09-15.523-.088-41.086.01-82.172-.003-123.258.06-26.278.041-52.544.193-78.81.316-6.703.031-13.3-.004-19.714-.346-.254-.013-.473-.102-.473-.155 0-.04.311-.104.576-.121.668-.043 1.37-.08 2.073-.097 1.785-.043 3.869.026 5.17-.218.898-.169.956-.463 1.935-.607 1.577-.232.253-.198-.542-.265-.53-.045-.92-.14-1.3-.223-.047-.01.356-.108.61-.115 1.439-.05 2.89-.101 4.352-.123 2.948-.047 5.92-.053 8.844-.124.956-.022 1.773-.192 2.66-.295 1.083.023 2.165.071 3.236.066 6.886-.032 13.784-.075 20.67-.116-6.115-.075-12.218-.086-18.333-.067-1.785.005-3.558.099-5.331.15-8.141.053-16.283.076-24.39-.104-.587-.013-1.116-.108-1.67-.164.415-.078.784-.215 1.256-.224 8.81-.17 17.618-.388 26.462-.465 12.195-.104 24.424-.086 36.63-.147 11.09-.054 22.178-.196 33.267-.211 34.799-.047 69.587-.05 104.386-.075 9.258-.006 18.505-.024 27.763-.041 1.462-.002 2.913-.03 4.422-.157-2.269-.028-4.537-.06-6.817-.08-1.474-.013-2.96-.019-4.445-.017-47.005.013-94.022-.041-141.027.073-21.821.052-43.643.21-65.475.265-4.422.011-8.844.015-13.243-.07-.012-.287 1.186-.245 1.992-.26 3.259-.066 6.54-.112 9.811-.176.288-.006.519-.078.772-.121-.276-.041-.507-.105-.818-.118-1.036-.045-2.107-.097-3.178-.103-3.328-.013-6.656-.005-10.387-.005 1.417-.54 5.286-.487 7.6-.82-3.662-.338-7.185-.08-10.49-.291-.023-.243 1.267-.166 1.934-.174 5.54-.056 11.078-.084 16.605-.158.783-.011 1.463-.222 2.2-.342 18.781.129 37.528-.022 56.286-.13a12791 12791 0 0 0-46.36-.096c-3.328-.011-6.667-.011-9.719.252m17.883-.895q-.086.025-.173.048h15.638c0-.016 0-.031-.011-.048zm186.006.442c-.346-.046-.507-.09-.691-.091-1.071-.01-2.142-.011-3.225-.01-.149 0-.299.034-.46.053.334.017.656.045.99.047 1.071.005 2.142.001 3.386.001m33.002 1.817c.346 0 .806.024 1.014-.004.644-.084.379-.153-.657-.16-.311-.002-.622.039-.944.061q.294.05.587.103m-1.9 1.08c.806.094 1.255.072 1.175-.066-.012-.02-.565-.045-.864-.043-.115.002-.207.073-.311.11M47.558 14.64c3.35-.423 6.978-.059 10.076-.393-7.381-.088-14.383-.172-21.407-.254-.104-.032-.207-.07-.322-.104l.898-.07c.668-.046 1.508-.067 1.969-.145.702-.12-.276-.25-2.096-.241-4.813.024-9.615.056-14.417.091-4.422.034-8.844.079-13.335.004 1.728-.024 3.49-.02 5.16-.08 1.761-.064 3.396-.217 5.158-.282 2.142-.08 4.353-.135 6.552-.155 31.057-.278 62.136-.403 93.25-.396 36.653.01 73.306.032 109.971.038 11.112.001 22.155.078 33.152.52.345.265-1.06.202-1.762.21-5.907.052-11.826.093-17.802.227 2.694.047 5.481.045 8.072.153 2.418.103 4.652.323 7.059.499-.979.278-2.476.173-3.628.18-3.696.014-7.404-.016-11.1-.01q-24.424.037-48.848.09c-1.842.003-3.857-.016-5.469.096-4.618.323-9.42.27-14.21.273q-32.767.028-65.533.058c-3.685.004-7.232-.015-10.86-.243-4.87-.302-10.04-.394-14.716.185-.553.067-1.37.108-2.06.108-4.434.004-8.88-.007-13.312-.015-5.643-.427-11.63-.246-17.504-.268-.748-.002-1.462-.036-2.936-.075M258.46.252c-14.705.045-28.281.11-41.858.126-36.227.043-72.454.052-108.68.102-12.195.017-24.39.127-36.584.176-3.294.013-6.598-.04-9.892-.073-.91-.01-1.266-.12-.956-.265.093-.043.426-.095.68-.101C63.358.18 65.546.129 67.745.124c19.968-.047 39.923-.11 59.891-.118 33.279-.013 66.546-.006 99.825.028 9.949.008 19.91.136 30.999.218M.703 11.047H0c.357-.01.714-.028 1.07-.024.243.002.473.035.703.054-.287-.01-.587-.017-1.07-.03M284 6l-.748.018.103-.071z"/></svg>