<svg xmlns="http://www.w3.org/2000/svg" width="236" height="16" fill="none"><path fill="#F9725F" d="M235.992 2.341c-1.161-.129-2.312-.097-3.484-.118a42 42 0 0 1-3.464-.183 929 929 0 0 0-7.698-.751C216.4.827 211.454.473 206.498.279 201.953.097 197.408 0 192.853 0c-1.182 0-2.353.01-3.534.021-4.506.054-9.021.119-13.526.247-10.542.312-21.084.623-31.616 1.15-10.292.515-20.584 1.073-30.866 1.75-5.056.333-10.112.644-15.168 1.01-5.466.397-10.932.74-16.389 1.191-11.263.924-22.536 1.858-33.799 2.792-9.78.817-19.522 2.04-29.223 3.576A443 443 0 0 0 0 15.163v.01c7.148.495 14.307.752 21.475.817 4.685.043 9.37-.054 14.056-.258 3.023-.129 6.047-.311 9.06-.537 1.853-.14 3.705-.354 5.557-.537 4.956-.504 9.911-1.02 14.867-1.514 5.667-.569 11.333-1.192 17.01-1.697 5.846-.526 11.693-1.063 17.55-1.589 5.256-.472 10.522-.859 15.778-1.288 5.136-.42 10.272-.73 15.408-1.085 5.176-.354 10.352-.623 15.538-.924 5.266-.3 10.552-.461 15.818-.676 9.631-.397 19.272-.526 28.914-.59 5.356-.033 10.722-.248 16.078-.441a558 558 0 0 0 15.838-.795c2.143-.14 4.305-.236 6.438-.472 1.041-.108 2.072-.247 3.093-.473.901-.204 1.793-.483 2.704-.666.27-.043.54-.075.81-.107.011.01.011 0 0 0"/></svg>