<svg width="839" height="597" viewBox="0 0 839 597" fill="none" xmlns="http://www.w3.org/2000/svg">
<path d="M198.18 515.946C143.573 418.007 132.681 300.013 165.433 192.774C175.81 158.796 193.646 123.048 226.772 110.203C264.485 95.5815 309.586 115.714 346.465 99.1037C372.748 87.2705 387.937 59.8512 409.768 41.033C430.635 23.0554 457.634 13.1579 484.964 9.73048C558.514 0.490085 634.882 39.2276 674.318 101.998C705.207 151.172 714.133 210.912 716.773 268.923C720.55 351.921 712.322 437.417 676.189 512.234" fill="#EDF1FC"/>
<path d="M544.391 505.977C544.391 505.977 559.793 441.3 633.847 361.89" stroke="black" stroke-width="0.591954" stroke-miterlimit="10"/>
<path d="M637.774 360.533C639.082 358.743 639.384 356.739 638.45 356.056C637.515 355.374 635.698 356.271 634.39 358.061C633.083 359.851 632.78 361.855 633.715 362.538C634.649 363.221 636.467 362.323 637.774 360.533Z" fill="#FF6666"/>
<path d="M643.318 370.754C644.626 368.965 644.928 366.96 643.994 366.277C643.059 365.595 641.242 366.492 639.934 368.282C638.626 370.072 638.324 372.076 639.259 372.759C640.193 373.442 642.011 372.544 643.318 370.754Z" fill="#FF6666"/>
<path d="M619.291 358.262C620.598 356.472 620.9 354.467 619.966 353.785C619.031 353.102 617.214 354 615.906 355.789C614.599 357.579 614.296 359.584 615.231 360.266C616.165 360.949 617.983 360.052 619.291 358.262Z" fill="#FF6666"/>
<path d="M586.821 395.812C587.438 393.635 587.056 391.621 585.967 391.312C584.879 391.004 583.497 392.519 582.88 394.695C582.263 396.872 582.646 398.886 583.734 399.195C584.822 399.503 586.204 397.988 586.821 395.812Z" fill="#FF6666"/>
<path d="M624.497 396.253C626.185 394.883 626.952 393.032 626.21 392.118C625.469 391.204 623.499 391.574 621.811 392.944C620.123 394.314 619.356 396.166 620.098 397.079C620.839 397.993 622.809 397.623 624.497 396.253Z" fill="#FF6666"/>
<path d="M604.382 438.768C605.993 437.293 606.657 435.396 605.864 434.53C605.072 433.664 603.123 434.158 601.512 435.632C599.901 437.107 599.238 439.004 600.03 439.87C600.823 440.736 602.771 440.242 604.382 438.768Z" fill="#FF6666"/>
<path d="M565.673 414.652C565.923 412.391 565.22 410.457 564.102 410.334C562.985 410.21 561.875 411.943 561.625 414.204C561.375 416.466 562.078 418.4 563.196 418.523C564.314 418.647 565.423 416.914 565.673 414.652Z" fill="#FF6666"/>
<path d="M590.256 464.462C591.563 462.672 591.866 460.668 590.931 459.985C589.997 459.302 588.179 460.2 586.872 461.99C585.564 463.779 585.262 465.784 586.196 466.467C587.131 467.149 588.948 466.252 590.256 464.462Z" fill="#FF6666"/>
<path d="M563.149 459.847C563.149 459.847 559.763 428.645 563.149 417.634" stroke="black" stroke-width="0.591954" stroke-miterlimit="10"/>
<path d="M567.5 452.038C567.5 452.038 593.718 443.549 601.052 438.394" stroke="black" stroke-width="0.591954" stroke-miterlimit="10"/>
<path d="M582.465 426.904C582.465 426.904 581.512 407.222 583.738 398.36" stroke="black" stroke-width="0.591954" stroke-miterlimit="10"/>
<path d="M601.206 400.769C601.206 400.769 614.863 400.183 621.066 396.543" stroke="black" stroke-width="0.591954" stroke-miterlimit="10"/>
<path d="M613.454 385.018C613.454 385.018 613.454 366.217 615.993 359.848" stroke="black" stroke-width="0.591954" stroke-miterlimit="10"/>
<path d="M621.35 375.919C621.35 375.919 629.525 377.133 639.109 371.675" stroke="black" stroke-width="0.591954" stroke-miterlimit="10"/>
<path d="M556.508 473.272C556.508 473.272 572.858 473.875 587.236 465.387" stroke="black" stroke-width="0.591954" stroke-miterlimit="10"/>
<path d="M388.541 454.737C388.541 454.737 397.302 395.731 356.291 305.648" stroke="black" stroke-width="0.591954" stroke-miterlimit="10"/>
<path d="M356.307 306.217C357.397 305.849 357.762 304.012 357.121 302.113C356.48 300.214 355.077 298.973 353.987 299.341C352.896 299.709 352.532 301.546 353.172 303.445C353.813 305.344 355.216 306.585 356.307 306.217Z" fill="#FF6666"/>
<path d="M347.434 312.989C348.524 312.621 348.889 310.783 348.248 308.884C347.607 306.985 346.204 305.744 345.113 306.112C344.023 306.48 343.659 308.318 344.299 310.216C344.94 312.115 346.343 313.356 347.434 312.989Z" fill="#FF6666"/>
<path d="M374.467 310.225C375.558 309.857 375.922 308.019 375.282 306.121C374.641 304.222 373.238 302.981 372.147 303.348C371.057 303.716 370.692 305.554 371.333 307.453C371.974 309.352 373.377 310.593 374.467 310.225Z" fill="#FF6666"/>
<path d="M392.293 349.418C392.514 347.403 391.78 345.67 390.652 345.546C389.525 345.422 388.431 346.955 388.21 348.97C387.988 350.984 388.723 352.718 389.851 352.842C390.978 352.966 392.072 351.433 392.293 349.418Z" fill="#FF6666"/>
<path d="M356.675 339.39C357.604 338.722 357.404 336.855 356.229 335.22C355.053 333.585 353.347 332.801 352.418 333.469C351.489 334.137 351.689 336.004 352.864 337.639C354.04 339.274 355.746 340.058 356.675 339.39Z" fill="#FF6666"/>
<path d="M360.268 381.655C361.241 381.048 361.169 379.173 360.105 377.467C359.042 375.76 357.39 374.869 356.417 375.476C355.443 376.083 355.515 377.958 356.579 379.664C357.642 381.371 359.294 382.262 360.268 381.655Z" fill="#FF6666"/>
<path d="M405.305 372.566C405.929 370.61 405.569 368.748 404.501 368.407C403.433 368.066 402.061 369.375 401.437 371.331C400.812 373.287 401.172 375.149 402.241 375.49C403.309 375.831 404.681 374.522 405.305 372.566Z" fill="#FF6666"/>
<path d="M363.599 408.302C364.69 407.935 365.054 406.097 364.413 404.198C363.773 402.299 362.369 401.058 361.279 401.426C360.189 401.794 359.824 403.632 360.465 405.53C361.106 407.429 362.509 408.67 363.599 408.302Z" fill="#FF6666"/>
<path d="M387.499 410.169C387.499 410.169 401.878 385.165 402.653 374.871" stroke="black" stroke-width="0.591954" stroke-miterlimit="10"/>
<path d="M386.214 402.249C386.214 402.249 364.65 386.763 359.618 380.11" stroke="black" stroke-width="0.591954" stroke-miterlimit="10"/>
<path d="M381.189 376.445C381.189 376.445 389.15 360.291 390.24 352.175" stroke="black" stroke-width="0.591954" stroke-miterlimit="10"/>
<path d="M372.978 348.594C372.978 348.594 360.37 343.74 355.853 338.708" stroke="black" stroke-width="0.591954" stroke-miterlimit="10"/>
<path d="M367.136 331.51C367.136 331.51 373.884 315.788 373.789 309.649" stroke="black" stroke-width="0.591954" stroke-miterlimit="10"/>
<path d="M362.992 321.382C362.992 321.382 354.882 319.784 347.844 312.153" stroke="black" stroke-width="0.591954" stroke-miterlimit="10"/>
<path d="M388.914 423.517C388.914 423.517 373.345 418.794 362.897 407.097" stroke="black" stroke-width="0.591954" stroke-miterlimit="10"/>
<path d="M359.269 478.422C359.269 478.422 352.68 419.131 290.04 342.497" stroke="black" stroke-width="0.591954" stroke-miterlimit="10"/>
<path d="M290.158 343.029C291.118 342.395 291.002 340.525 289.898 338.853C288.794 337.181 287.12 336.339 286.16 336.973C285.2 337.607 285.316 339.476 286.42 341.149C287.524 342.821 289.198 343.663 290.158 343.029Z" fill="#84CFA6"/>
<path d="M283.307 351.837C284.267 351.203 284.151 349.333 283.047 347.661C281.943 345.988 280.269 345.146 279.309 345.78C278.348 346.414 278.465 348.284 279.569 349.956C280.673 351.629 282.346 352.471 283.307 351.837Z" fill="#84CFA6"/>
<path d="M308.738 342.272C309.698 341.638 309.581 339.769 308.477 338.096C307.373 336.424 305.7 335.582 304.74 336.216C303.779 336.85 303.896 338.72 305 340.392C306.104 342.064 307.777 342.906 308.738 342.272Z" fill="#84CFA6"/>
<path d="M334.589 379.571C335.711 379.403 336.377 377.642 336.077 375.637C335.777 373.632 334.624 372.144 333.502 372.312C332.38 372.48 331.714 374.241 332.014 376.245C332.314 378.25 333.467 379.739 334.589 379.571Z" fill="#84CFA6"/>
<path d="M299.024 375.006C299.752 374.123 299.082 372.369 297.528 371.088C295.974 369.807 294.124 369.485 293.396 370.368C292.669 371.251 293.339 373.005 294.893 374.286C296.447 375.567 298.297 375.889 299.024 375.006Z" fill="#84CFA6"/>
<path d="M313.283 414.962C314.069 414.126 313.521 412.332 312.057 410.953C310.593 409.575 308.769 409.134 307.982 409.97C307.195 410.805 307.744 412.6 309.208 413.978C310.672 415.357 312.496 415.797 313.283 414.962Z" fill="#84CFA6"/>
<path d="M354.481 394.725C354.586 392.674 353.762 390.966 352.642 390.909C351.522 390.852 350.53 392.468 350.426 394.518C350.321 396.569 351.145 398.277 352.265 398.334C353.385 398.391 354.377 396.775 354.481 394.725Z" fill="#84CFA6"/>
<path d="M323.255 439.869C324.215 439.235 324.099 437.366 322.995 435.693C321.891 434.021 320.217 433.179 319.257 433.813C318.296 434.447 318.413 436.317 319.517 437.989C320.621 439.661 322.294 440.503 323.255 439.869Z" fill="#84CFA6"/>
<path d="M346.885 435.6C346.885 435.6 354.409 407.754 352.532 397.602" stroke="black" stroke-width="0.591954" stroke-miterlimit="10"/>
<path d="M343.623 428.271C343.623 428.271 318.821 418.8 312.262 413.65" stroke="black" stroke-width="0.591954" stroke-miterlimit="10"/>
<path d="M332.181 404.599C332.181 404.599 335.756 386.947 334.738 378.82" stroke="black" stroke-width="0.591954" stroke-miterlimit="10"/>
<path d="M317.134 379.772C317.134 379.772 303.702 378.293 298.055 374.587" stroke="black" stroke-width="0.591954" stroke-miterlimit="10"/>
<path d="M307.124 364.743C307.124 364.743 309.639 347.819 307.982 341.911" stroke="black" stroke-width="0.591954" stroke-miterlimit="10"/>
<path d="M300.535 356.006C300.535 356.006 292.283 356.526 283.534 350.944" stroke="black" stroke-width="0.591954" stroke-miterlimit="10"/>
<path d="M351.662 448.143C351.662 448.143 335.407 447.551 322.319 438.909" stroke="black" stroke-width="0.591954" stroke-miterlimit="10"/>
<path d="M546.054 380.187H349.454V514.282H546.054V380.187Z" fill="#AACDE3"/>
<path d="M533.368 391.836H368.793V513.803H533.368V391.836Z" fill="#83AEC4"/>
<path d="M511.2 512.962C511.2 512.962 525.46 409.702 541.188 414.13C556.916 418.557 535.523 479.984 529.236 494.925C529.236 494.925 556.922 431.284 572.017 440.14C587.118 448.996 549.996 498.803 541.188 502.674C541.188 502.674 571.389 484.412 570.129 494.375C568.868 504.337 553.009 511.394 541.685 513.051L511.2 512.962Z" fill="#282899"/>
<path d="M518.782 512.625C520.103 506.143 521.488 499.667 522.879 493.203L527.129 473.81L531.515 454.447L533.753 444.781L536.056 435.126L534.043 444.846L531.965 454.554L527.715 473.946L523.329 493.303C521.837 499.75 520.345 506.196 518.782 512.625Z" fill="#F4F4F4"/>
<path d="M528.206 510.127C530.852 505.776 533.552 501.461 536.257 497.151L544.443 484.265L552.743 471.449L556.934 465.067L561.178 458.722L557.176 465.227L553.122 471.697L544.935 484.584L536.63 497.4C533.853 501.656 531.059 505.906 528.206 510.127Z" fill="#F4F4F4"/>
<path d="M533.7 511.707C535.535 510.458 537.399 509.268 539.276 508.085C541.146 506.895 543.041 505.746 544.935 504.598C546.835 503.461 548.735 502.325 550.665 501.23L553.554 499.584C554.53 499.057 555.489 498.507 556.472 497.992C555.56 498.619 554.625 499.217 553.702 499.833L550.896 501.62C549.025 502.81 547.131 503.959 545.237 505.107C543.337 506.244 541.436 507.38 539.507 508.475C537.589 509.576 535.665 510.665 533.7 511.707Z" fill="#F4F4F4"/>
<path d="M387.416 228.386H381.722C334.567 213.729 316.577 131.827 313.055 113.157C312.682 111.179 314.192 109.35 316.198 109.327L356.877 108.853H361.021L364.916 126.499L333.075 126.819C333.075 126.819 344.902 192.39 383.302 209.769L387.416 228.386Z" fill="#FD9429"/>
<path d="M577.037 116.957C573.219 136.87 555.099 217.015 508.5 231.488H502.806L506.914 212.871C545.314 195.492 557.141 129.921 557.141 129.921L525.3 129.601L529.195 111.961H533.339L573.337 112.423C575.711 112.452 577.481 114.619 577.037 116.957Z" fill="#FD9429"/>
<path d="M357.28 96.4277C357.28 96.4277 356.492 272.937 444.155 275.31C531.817 277.678 531.03 96.4277 531.03 96.4277H357.28Z" fill="#FFC850"/>
<path d="M377.886 96.5288C377.886 96.5288 374.689 240.616 413.486 265.603L424.668 271.522C424.668 271.522 390.471 203.791 406.252 96.5998L377.886 96.5288Z" fill="#FFE6A8"/>
<path d="M535.553 96.6704H354.077C352.171 96.6704 350.626 95.1254 350.626 93.2193V82.2504C350.626 80.3443 352.171 78.7993 354.077 78.7993H535.553C537.459 78.7993 539.004 80.3443 539.004 82.2504V93.2193C539.004 95.1254 537.459 96.6704 535.553 96.6704Z" fill="#EB962C"/>
<path d="M378.963 79.0186L377.649 93.332L405.932 93.6457L405.275 79.0186H378.963Z" fill="#FFE6A8"/>
<path d="M518.664 122.113C518.664 122.113 520.399 211.202 481.792 255.249" stroke="#FFE6A8" stroke-width="1.77586" stroke-miterlimit="10"/>
<path d="M518.54 120.633C519.567 120.633 520.399 119.718 520.399 118.591C520.399 117.463 519.567 116.548 518.54 116.548C517.513 116.548 516.681 117.463 516.681 118.591C516.681 119.718 517.513 120.633 518.54 120.633Z" fill="#FFE6A8"/>
<path d="M438.052 274.861C438.052 274.861 452.022 356.479 359.139 380.311L534.44 379.796C534.44 379.796 445.913 343.036 452.638 274.594V266.65L437.359 266.041L438.052 274.861Z" fill="#FD9B2C"/>
<path d="M441.414 266.194C441.414 266.194 443.966 334.31 416.854 354.703L429.368 355.633C429.368 355.633 450.223 315.551 446.748 266.662L441.414 266.194Z" fill="#FFC449"/>
<path d="M415.469 357.023L426.361 357.953C426.361 357.953 419.18 363.05 417.091 363.979L408.058 363.05C408.052 363.044 415.232 358.415 415.469 357.023Z" fill="#FFC449"/>
<path d="M822.579 514.472C815.63 507.937 806.49 505.374 797.042 505.368C793.852 505.368 791.371 502.515 791.945 499.371C793.496 490.853 799.653 482.163 795.249 474.894C790.14 466.459 777.301 469.922 768.504 474.385C758.151 479.642 747.792 484.892 737.438 490.149C730.702 493.57 723.439 497.086 715.945 496.127C708.45 495.174 701.365 487.574 703.928 480.464C705.349 476.516 709.297 473.681 709.989 469.537C711.422 460.948 699.216 457.431 690.556 458.296C664.545 460.894 639.541 470.33 616.775 483.187C601.425 491.854 585.561 502.473 567.968 501.307C543.508 499.685 526.934 476.546 514.017 455.709C506.434 443.479 498.846 431.249 491.263 419.02C486.568 411.454 481.667 403.67 474.321 398.644C466.975 393.619 456.444 392.109 449.358 397.496C445.576 400.367 443.202 404.807 439.33 407.565C431.025 413.479 419.186 409.513 411.195 403.185C403.198 396.857 396.787 388.321 387.617 383.863C375.382 377.914 359.991 380.702 349.188 388.978C338.385 397.253 331.867 410.247 329.357 423.619C326.303 439.904 325.717 461.261 309.971 466.423C304.803 468.116 299.15 467.359 293.876 466.027C273.163 460.812 255.606 447.504 238.285 435.014C220.965 422.524 202.383 410.193 181.203 407.465C160.023 404.736 135.682 414.663 128.803 434.884C122.156 454.424 133.219 475.113 138.511 494.896C138.825 496.074 138.961 497.299 138.831 498.513C138.221 504.154 133.207 504.877 128.987 504.823C114.46 504.646 100.028 499.839 88.2959 491.267C78.4458 484.069 70.046 474.089 58.3135 470.733C46.5809 467.376 30.61 476.267 33.5935 488.095C34.7063 492.505 38.1278 495.92 41.5908 498.868C49.2329 505.368 57.8221 510.755 67.0033 514.804L822.579 514.472Z" fill="white" stroke="black" stroke-width="0.591954" stroke-miterlimit="10"/>
<path d="M198.293 514.472L154.488 410.537" stroke="black" stroke-width="0.591954" stroke-miterlimit="10"/>
<path d="M169.34 445.426L187.898 407.565" stroke="black" stroke-width="0.591954" stroke-miterlimit="10"/>
<path d="M173.052 451.369L196.067 411.276" stroke="black" stroke-width="0.591954" stroke-miterlimit="10"/>
<path d="M130.733 467.702L181.961 474.385" stroke="black" stroke-width="0.591954" stroke-miterlimit="10"/>
<path d="M132.219 475.125L184.187 482.548" stroke="black" stroke-width="0.591954" stroke-miterlimit="10"/>
<path d="M258.429 449.884L226.588 514.644" stroke="black" stroke-width="0.591954" stroke-miterlimit="10"/>
<path d="M40.1583 473.639L91.1788 514.809" stroke="black" stroke-width="0.591954" stroke-miterlimit="10"/>
<path d="M64.6592 492.202L62.4276 473.639" stroke="black" stroke-width="0.591954" stroke-miterlimit="10"/>
<path d="M48.3273 504.823L72.8223 500.365" stroke="black" stroke-width="0.591954" stroke-miterlimit="10"/>
<path d="M43.8698 499.626L68.3708 495.914" stroke="black" stroke-width="0.591954" stroke-miterlimit="10"/>
<path d="M377.927 380.311C377.927 380.311 364.673 510.748 360.885 514.471" stroke="black" stroke-width="0.591954" stroke-miterlimit="10"/>
<path d="M341.179 405.428L370.877 451.458" stroke="black" stroke-width="0.591954" stroke-miterlimit="10"/>
<path d="M335.739 409.832L368.403 461.806" stroke="black" stroke-width="0.591954" stroke-miterlimit="10"/>
<path d="M365.928 482.701C365.928 482.701 397.112 461.912 416.41 433.699" stroke="black" stroke-width="0.591954" stroke-miterlimit="10"/>
<path d="M481.14 413.846C481.14 413.846 472.184 437.334 464.648 462.262C458.924 481.192 454.011 500.952 454.455 511.879" stroke="black" stroke-width="0.591954" stroke-miterlimit="10"/>
<path d="M497.591 441.715C497.591 441.715 483.845 459.852 464.784 464.464" stroke="black" stroke-width="0.591954" stroke-miterlimit="10"/>
<path d="M461.434 476.166C461.434 476.166 487.729 468.364 500.521 454.181" stroke="black" stroke-width="0.591954" stroke-miterlimit="10"/>
<path d="M438.733 444.834C438.733 444.834 444.859 477.516 458.48 489.095" stroke="black" stroke-width="0.591954" stroke-miterlimit="10"/>
<path d="M647.402 514.264C647.402 514.264 663.379 483.394 694.522 467.956" stroke="black" stroke-width="0.591954" stroke-miterlimit="10"/>
<path d="M648.219 468.773C648.219 468.773 643.075 488.544 656.885 499.105" stroke="black" stroke-width="0.591954" stroke-miterlimit="10"/>
<path d="M653.63 466.334C653.63 466.334 645.774 486.105 660.668 494.499" stroke="black" stroke-width="0.591954" stroke-miterlimit="10"/>
<path d="M668.795 486.644C668.795 486.644 684.5 495.038 696.416 483.667" stroke="black" stroke-width="0.591954" stroke-miterlimit="10"/>
<path d="M775.495 477.439L755.185 514.265" stroke="black" stroke-width="0.591954" stroke-miterlimit="10"/>
<path d="M751.663 483.927L760.578 501.011" stroke="black" stroke-width="0.591954" stroke-miterlimit="10"/>
<path d="M755.185 481.5L763.579 498.56" stroke="black" stroke-width="0.591954" stroke-miterlimit="10"/>
<path d="M770.617 487.188L788.761 481.5" stroke="black" stroke-width="0.591954" stroke-miterlimit="10"/>
<path d="M758.974 508.037L783.078 502.349" stroke="black" stroke-width="0.591954" stroke-miterlimit="10"/>
<path d="M760.868 503.976L781.995 498.832" stroke="black" stroke-width="0.591954" stroke-miterlimit="10"/>
<path d="M317.862 514.247C317.862 514.247 309.995 489.539 308.42 471.372" stroke="black" stroke-width="0.591954" stroke-miterlimit="10"/>
<path d="M285.476 477.628C285.476 477.628 297.99 493.617 311.889 495.008" stroke="black" stroke-width="0.591954" stroke-miterlimit="10"/>
<path d="M282.694 483.885C282.694 483.885 295.208 500.567 313.28 500.567" stroke="black" stroke-width="0.591954" stroke-miterlimit="10"/>
<path d="M311.196 486.661C311.196 486.661 319.537 479.013 324.403 466.505" stroke="black" stroke-width="0.591954" stroke-miterlimit="10"/>
<path d="M218.401 450.398L235.083 494.89" stroke="black" stroke-width="0.591954" stroke-miterlimit="10"/>
<path d="M225.7 446.35L239.599 486.662" stroke="black" stroke-width="0.591954" stroke-miterlimit="10"/>
<path d="M66.9975 514.821L32.9128 514.549" stroke="black" stroke-width="0.591954" stroke-miterlimit="10"/>
<path d="M822.579 514.472L839 514.525" stroke="black" stroke-width="0.591954" stroke-miterlimit="10"/>
<path d="M310.853 307.69L299.967 320.163L314.073 334.719L323.941 320.915L310.853 307.69Z" fill="white" stroke="#020202" stroke-width="0.591954" stroke-miterlimit="10"/>
<path d="M311.084 307.826L299.067 294.738L276.739 320.34C276.739 320.34 277.893 325.544 280.438 324.076C282.984 322.607 294.823 317.564 299.671 320.056L311.084 307.826Z" fill="#070707" stroke="black" stroke-width="0.591954" stroke-miterlimit="10"/>
<path d="M451.531 579.812L469.887 579.516L469.704 560.615L451.14 562.456L451.531 579.812Z" fill="white" stroke="#020202" stroke-width="0.591954" stroke-miterlimit="10"/>
<path d="M451.442 579.563L451.087 596.576L488.759 595.966C488.759 595.966 491.825 591.787 488.646 590.917C485.461 590.052 472.042 584.867 470.041 579.806L451.442 579.563Z" fill="#070707" stroke="black" stroke-width="0.591954" stroke-miterlimit="10"/>
<path d="M425.87 158.234C425.248 162.916 424.431 167.735 425.591 172.317C428.007 181.871 438.318 187.986 440.355 197.629C442.136 206.07 436.939 214.452 430.783 220.496C429.392 221.857 427.906 223.183 426.106 223.923C423.478 224.995 420.512 224.687 417.712 224.207C405.424 222.088 393.022 216.287 386.593 205.602C381.876 197.765 380.899 188.24 381.147 179.1C381.355 171.642 382.325 164.124 385.001 157.157C387.677 150.189 392.17 143.778 398.397 139.664C403.813 136.089 411.734 134.876 417.778 137.545C426.385 141.357 426.971 149.97 425.87 158.234Z" fill="#0D005F"/>
<path d="M401.842 128.737C396.728 129.169 392.548 132.958 387.647 134.485C385.113 135.272 382.426 135.444 379.881 136.19C373.227 138.125 367.994 144.24 367.106 151.113C366.514 155.712 367.651 160.691 365.532 164.811C363.661 168.445 359.683 170.476 355.776 171.66C351.869 172.849 347.737 173.453 344.115 175.347C339.415 177.81 335.916 182.451 334.845 187.648C333.773 192.846 335.147 198.493 338.491 202.613C342.587 207.668 349.282 210.356 352.592 215.955C355.936 221.609 354.977 228.742 353.521 235.147C351.035 246.068 347.412 256.735 345.601 267.793C343.789 278.851 343.919 290.607 348.691 300.741C349.661 302.807 350.899 304.873 352.858 306.051C354.515 307.051 356.522 307.306 358.452 307.241C368.557 306.903 376.459 298.829 383.397 291.477C384.717 290.08 386.161 288.618 388.038 288.215C392.471 287.268 395.686 292.572 396.153 297.083C396.627 301.593 396.082 306.702 399.101 310.088C401.369 312.633 405.169 313.385 408.507 312.71C411.852 312.041 414.818 310.153 417.529 308.093C431.108 297.775 440.284 282.136 443.746 265.443C445.688 256.084 445.842 246.003 441.834 237.325C438.271 229.606 431.783 223.692 425.461 218.004C420.867 213.872 416.28 209.74 411.686 205.608C409.644 203.767 407.56 201.885 406.246 199.47C405.24 197.623 404.731 195.551 404.228 193.509C401.084 180.669 396.805 163.041 406.199 151.64C409.508 147.62 413.758 146.359 413.965 140.357C414.208 133.81 408.448 128.186 401.842 128.737Z" fill="#0D005F"/>
<path d="M465.607 303.292C465.607 303.292 471.669 369.431 471.059 444.266C470.45 519.101 470.455 563.776 470.455 563.776L451.063 564.356L416.523 296.331L465.607 303.292Z" fill="#3232E0"/>
<path d="M408.709 304.08C408.709 304.08 401.653 320.572 405.5 332.298C408.046 340.059 399.32 373.907 396.887 383.621C396.586 384.816 395.123 385.248 394.212 384.42L321.958 318.375L311.516 333.458C311.516 333.458 392.158 446.587 401.44 444.266C410.721 441.946 447.849 394.376 461.777 307.353L462.358 296.331L412.468 299.812L408.709 304.08Z" fill="#4F47FD"/>
<path d="M401.588 211.273L343.677 209.474C342.309 209.432 341.054 208.716 340.314 207.562L304.655 151.817L293.094 156.825L319.928 224.497C320.36 225.593 321.265 226.433 322.384 226.782L392.779 248.951C393.732 249.253 394.502 249.951 394.887 250.869C397.355 256.741 408.081 277.495 413.433 285.398C413.433 285.398 415.481 289.097 414.013 291.779C412.687 294.2 408.821 300.291 407.199 302.825C406.832 303.393 407.122 304.151 407.773 304.334C413.089 305.82 433.358 311.136 443.024 308.602C453.07 305.974 463.926 307.365 467.069 307.868C467.555 307.945 467.999 307.584 468.028 307.099L471.243 256.214C471.379 254.083 470.728 251.982 469.42 250.295L455.805 232.791C455.645 232.584 455.864 232.299 456.106 232.4L491.18 247.11L476.251 278.957L484.97 286.38L525.294 239.675C527.141 237.532 526.531 234.235 524.039 232.897C509.14 224.9 464.577 201.95 460.434 201.281C455.278 200.452 428.527 205.342 428.527 205.342L401.588 211.273Z" fill="#E53076"/>
<path d="M407.365 147.609C407.365 147.609 430.114 172.915 425.455 178.201C421.353 182.853 416.292 184.055 417.209 186.18C417.955 187.909 429.179 207.461 429.179 207.461C429.179 207.461 428.912 233.797 401.783 211.184L392.738 178.733C392.738 178.733 382.018 182.682 382.018 172.311C382.018 161.94 390.607 169.955 390.607 169.955C390.607 169.955 386.084 145.478 407.365 147.609Z" fill="white" stroke="black" stroke-width="0.591954" stroke-miterlimit="10"/>
<path d="M407.365 147.608C407.365 147.608 402.842 167.291 391.14 167.823L388.215 168.09C388.209 168.09 386.883 143.618 407.365 147.608Z" fill="#0D005F"/>
<path d="M406.3 149.734C406.3 149.734 408.957 153.723 413.214 154.522L407.359 147.608L406.3 149.734Z" fill="#0D005F"/>
<path d="M385.729 172.63C385.729 172.63 386.7 174.246 390.737 174.406" stroke="black" stroke-width="0.591954" stroke-miterlimit="10"/>
<path d="M293.159 156.665L287.311 143.702C288.536 139.256 290.075 135.758 291.301 133.331C295.462 125.091 298.434 124.327 299.197 124.203C300.908 123.924 301.689 123.989 302.607 124.167C303.88 124.416 304.324 124.895 305.229 124.475C306.668 123.8 309.284 123.528 309.645 124.872C310.006 126.215 316.849 135.965 316.849 137.646C316.849 139.327 316.624 145.039 314.103 145.039C311.581 145.039 310.285 143.743 309.207 144.755C308.124 145.762 307.485 146.389 305.679 145.383C303.88 144.376 301.358 142.695 301.358 142.695L304.649 151.817L293.159 156.665Z" fill="white" stroke="black" stroke-width="0.591954" stroke-miterlimit="10"/>
<path d="M313.534 139.392L311.374 133.81L308.13 129.068" fill="white"/>
<path d="M313.534 139.392L311.374 133.81L308.13 129.068" stroke="black" stroke-width="0.591954" stroke-miterlimit="10"/>
<path d="M307.786 140.718L305.981 135.97L302.021 130.394" fill="white"/>
<path d="M307.786 140.718L305.981 135.97L302.021 130.394" stroke="black" stroke-width="0.591954" stroke-miterlimit="10"/>
<path d="M296.634 140.949C296.634 140.949 298.522 140.387 301.535 142.613L296.634 140.949Z" fill="white"/>
<path d="M296.634 140.949C296.634 140.949 298.522 140.387 301.535 142.613" stroke="black" stroke-width="0.591954" stroke-miterlimit="10"/>
<path d="M476.239 278.957C476.239 278.957 466.631 292.347 466.839 295.84C467.052 299.326 470.201 310.662 472.515 310.881C474.83 311.1 476.091 311.532 476.931 310.881C477.772 310.23 479.873 311.319 480.714 310.443C481.555 309.573 484.497 310.005 485.13 307.608L485.302 304.228C485.319 303.914 485.71 303.742 485.982 303.932C487.119 304.719 489.392 306.134 489.546 304.997C489.724 303.701 483.703 293.472 481.868 290.394C481.561 289.879 481.643 289.222 482.07 288.795L484.84 286.037L476.239 278.957Z" fill="white" stroke="black" stroke-width="0.591954" stroke-miterlimit="10"/>
<path d="M461.511 307.596C461.511 307.596 458.847 324.591 457.332 329.664C455.846 334.654 449.465 360.007 449.465 360.007" stroke="white" stroke-width="0.591954" stroke-miterlimit="10"/>
<path d="M314.428 334.275L323.325 321.785" stroke="white" stroke-width="0.591954" stroke-miterlimit="10"/>
<path d="M452.478 560.857L468.526 560.2" stroke="white" stroke-width="0.591954" stroke-miterlimit="10"/>
<path d="M394.454 384.521C394.454 384.521 397.58 385.693 399.143 390.511" stroke="white" stroke-width="0.591954" stroke-miterlimit="10"/>
<path d="M410.147 302.706C410.147 302.706 432.215 308.472 440.491 306.465C448.766 304.458 467.324 305.962 467.324 305.962" stroke="white" stroke-width="0.591954" stroke-miterlimit="10"/>
<path d="M295.291 158.761L305.324 154.499" stroke="white" stroke-width="0.591954" stroke-miterlimit="10"/>
<path d="M479.116 277.128L485.882 282.894" stroke="white" stroke-width="0.591954" stroke-miterlimit="10"/>
<path d="M456.112 232.891L452.91 229.422" stroke="white" stroke-width="0.591954" stroke-miterlimit="10"/>
<path d="M391.021 242.895C391.021 242.895 393.791 248.039 395.029 250.525" stroke="white" stroke-width="0.591954" stroke-miterlimit="10"/>
<path d="M414.587 290.808C414.587 290.808 417.677 287.055 418.038 284.095" stroke="white" stroke-width="0.591954" stroke-miterlimit="10"/>
<path d="M491.168 247.276C491.168 247.276 495.454 245.417 497.372 245.903" stroke="white" stroke-width="0.591954" stroke-miterlimit="10"/>
<path d="M342.126 209.112C342.126 209.112 340.599 208.485 336.656 207.917" stroke="white" stroke-width="0.591954" stroke-miterlimit="10"/>
<path d="M434.601 438.661C434.601 438.661 439.212 434.914 440.36 432.321" stroke="white" stroke-width="0.591954" stroke-miterlimit="10"/>
<path d="M452.561 539.482C452.561 539.482 449.388 545.928 453.466 546.283C457.551 546.639 451.649 553.085 451.649 553.085" stroke="white" stroke-width="0.591954" stroke-miterlimit="10"/>
<path d="M608.333 531.295C607.262 532.266 586.407 553.795 592.303 552.718C598.353 551.611 629.744 543.999 632.68 542.465C635.326 541.08 626.619 530.206 626.619 530.206L608.333 531.295Z" fill="#070707" stroke="black" stroke-width="0.591954" stroke-miterlimit="10"/>
<path d="M711.345 402.545C712.446 403.569 734.307 425.815 728.015 424.43C721.556 423.009 688.152 413.769 685.074 412.082C682.298 410.56 691.905 400.343 691.905 400.343L711.345 402.545Z" fill="#070707" stroke="black" stroke-width="0.591954" stroke-miterlimit="10"/>
<path d="M590.438 142.926L593.635 131.578C596.542 128.879 599.17 126.997 601.094 125.754C607.611 121.533 609.772 122.19 610.287 122.415C611.447 122.912 611.891 123.279 612.353 123.782C612.998 124.481 613.027 125.008 613.779 125.073C614.975 125.179 616.674 126.05 616.236 127.163C615.798 128.275 615.153 138.072 614.33 139.28C613.507 140.487 610.589 144.501 609.073 143.471C607.558 142.441 607.41 140.985 606.273 141.269C605.131 141.553 604.438 141.742 603.852 140.28C603.26 138.818 602.568 136.586 602.568 136.586L600.774 145.395L590.438 142.926Z" fill="white" stroke="black" stroke-width="0.591954" stroke-miterlimit="10"/>
<path d="M611.494 139.167L612.915 134.278L613.282 129.548" fill="white"/>
<path d="M611.494 139.167L612.915 134.278L613.282 129.548" stroke="black" stroke-width="0.591954" stroke-miterlimit="10"/>
<path d="M607.392 137.776L608.623 133.632L608.967 128.009" fill="white"/>
<path d="M607.392 137.776L608.623 133.632L608.967 128.009" stroke="black" stroke-width="0.591954" stroke-miterlimit="10"/>
<path d="M600.579 133.396C600.579 133.396 601.988 133.763 602.71 136.592L600.579 133.396Z" fill="white"/>
<path d="M600.579 133.396C600.579 133.396 601.988 133.763 602.71 136.592" stroke="black" stroke-width="0.591954" stroke-miterlimit="10"/>
<path d="M585.502 310.763C587.615 345.795 592.096 380.418 595.577 419.138C599.058 457.869 603.083 495.6 608.339 531.295C614.247 530.922 620.155 530.555 626.068 530.182C627.389 508.25 628.46 484.921 626.885 484.768C626.477 484.726 625.897 486.265 625.512 486.141C624.665 485.869 626.607 478.197 626.572 477.664C625.24 459.237 627.755 348.18 627.809 347.34C627.821 347.174 627.862 346.955 628.01 346.765C628.063 346.694 628.128 346.635 628.199 346.582C629.265 345.824 632.355 343.592 635.356 341.053L696.173 296.976C697.138 296.278 698.482 297.018 698.411 298.201L692.213 400.225L711.357 402.545C712.139 399.763 712.867 396.969 713.595 394.169C715.465 386.965 717.235 379.737 718.91 372.486C721.201 362.576 723.321 352.626 725.209 342.628C727.269 331.724 729.068 320.761 730.394 309.739C731.62 299.533 732.496 289.239 732.377 278.951C732.336 275.216 732.158 271.475 731.738 267.763C731.182 262.826 731.17 257.469 726.57 254.693C723.717 252.97 720.254 252.55 716.981 252.68C710.511 252.947 704.171 255.226 698.31 257.836C687.472 262.666 677.432 269.261 667.849 276.204C665.303 278.045 662.793 279.928 660.301 281.84C658.928 282.894 657.566 283.959 656.211 285.03C655.098 285.912 653.506 287.807 652.185 288.257C644.78 290.755 623.63 297.894 623.63 297.894C623.63 297.894 623.612 297.9 585.502 310.763Z" fill="white" stroke="black" stroke-width="0.591954" stroke-miterlimit="10"/>
<path d="M590.154 142.997C590.154 142.997 570.365 193.692 572.686 197.173C574.74 200.257 607.795 230.695 615.277 237.568C616.55 238.74 615.987 240.747 615.656 242.238C615.543 242.753 615.425 243.274 615.259 243.777C614.206 246.968 612.341 249.839 610.5 252.627C609.245 254.527 607.955 256.398 606.646 258.262C603.604 262.613 603.112 263.324 602.58 264.117C600.585 267.071 598.418 270.415 595.914 274.523C589.829 284.504 586.786 289.494 584.045 295.988C582.696 299.178 580.961 303.766 579.458 309.549C579.434 309.715 579.47 309.91 579.505 310.141C579.541 310.36 579.624 310.562 579.843 310.662C583.838 312.432 606.842 313.906 621.771 307.217C638.594 299.676 652.339 289.168 652.339 289.168L678.847 247.075L723.776 194.846C724.729 193.739 725.209 192.301 725.108 190.845L720.704 125.546L709.569 127.932C709.569 127.932 704.952 176.295 704.372 178.615C703.833 180.758 673.543 213.156 668.979 218.033C668.612 218.424 668.103 218.643 667.564 218.643H644.543C644.212 218.643 643.892 218.548 643.614 218.371L598.631 189.495C597.66 188.874 597.116 187.755 597.228 186.606L601.112 145.549L590.154 142.997Z" fill="#09138E" stroke="#050505" stroke-width="0.591954" stroke-miterlimit="10"/>
<path d="M660.638 171.795C660.638 171.795 643.318 189.465 645.088 192.294C646.858 195.124 652.511 205.371 652.156 209.26C651.801 213.149 645.792 219.862 645.792 219.862C645.792 219.862 652.505 232.938 665.936 220.217L666.292 205.021L673.004 200.073C673.004 200.073 677.343 200.357 679.717 197.598C682.008 194.935 675.828 194.42 675.828 194.42C675.828 194.42 696.333 168.261 660.638 171.795Z" fill="white" stroke="black" stroke-width="0.591954" stroke-miterlimit="10"/>
<path d="M669.358 176.969C667.505 175.856 665.125 176.194 663.077 176.88C661.029 177.567 659.046 178.585 656.891 178.745C653.482 179 650.167 176.987 648.225 174.169C646.283 171.352 645.555 167.853 645.461 164.432C648.776 166.308 652.588 167.303 656.4 167.285C660.467 167.261 664.433 166.119 668.417 165.32C672.406 164.52 676.627 164.076 680.469 165.408C684.311 166.74 687.637 170.286 687.549 174.353C687.46 178.508 684.068 181.835 683.002 185.849C684.79 185.677 686.613 185.925 688.288 186.571C688.774 186.76 689.277 187.003 689.555 187.441C690.159 188.4 689.407 189.613 688.691 190.489C686.98 192.585 685.264 194.675 683.553 196.77C681.422 199.375 679.237 202.033 676.39 203.826C673.543 205.626 669.316 206.188 666.215 204.874C668.914 202.879 670.441 201.233 672.992 199.795C673.786 199.345 675.224 200.002 676.396 199.499C677.503 199.031 681.12 197.036 679.829 196.006C677.923 194.479 677.266 195 675.603 194.568C674.23 195.267 677.657 189.607 677.704 189.974C677.704 189.986 679.38 185.819 678.77 184.86C677.953 183.581 674.443 183.41 673.241 181.918C671.915 180.284 671.264 178.112 669.358 176.969Z" fill="black"/>
<path d="M677.61 196.93C677.61 196.93 676.657 198.072 675.047 197.593" stroke="black" stroke-width="0.591954" stroke-miterlimit="10"/>
<path d="M709.901 127.825L710.185 116.738C710.161 116.116 709.842 115.53 709.309 115.128L702.791 110.203C702.519 109.996 702.099 110.079 701.951 110.369L701.276 111.689C701.152 111.937 701.27 112.227 701.548 112.334L703.17 112.991C703.472 113.109 703.632 113.405 703.561 113.689L703.383 114.406C703.277 114.826 702.862 115.128 702.377 115.14C700.95 115.169 698.174 115.163 698.174 114.69C698.174 114.051 696.736 108.297 696.736 108.297C696.736 108.297 698.89 102.756 700.566 102.543C702.241 102.33 704.851 98.6301 705.834 98.7071C706.769 98.7781 708.326 96.6471 709.765 96.2209C710.469 96.0137 712.138 95.5756 713.026 95.2619C713.926 94.9423 714.932 95.3862 715.193 96.209C716.43 100.11 719.579 110.25 719.964 113.837L720.437 126.067L709.901 127.825Z" fill="white" stroke="black" stroke-width="0.591954" stroke-miterlimit="10"/>
<path d="M702.685 110.073C702.549 110.043 701.152 109.185 701.353 107.978L702.685 110.073Z" fill="white"/>
<path d="M702.685 110.073C702.549 110.043 701.152 109.185 701.353 107.978" stroke="black" stroke-width="0.591954" stroke-miterlimit="10"/>
<path d="M611.181 528.33L624.861 527.613" stroke="#020202" stroke-width="0.591954" stroke-miterlimit="10"/>
<path d="M694.25 397.218L709.806 399.183" stroke="#020202" stroke-width="0.591954" stroke-miterlimit="10"/>
<path d="M696.162 296.97C696.162 296.97 699.323 293.596 704.514 293.945" stroke="black" stroke-width="0.591954" stroke-miterlimit="10"/>
<path d="M583.294 307.803C583.294 307.803 606.498 309.881 617.58 307.11" stroke="white" stroke-width="0.591954" stroke-miterlimit="10"/>
<path d="M590.912 145.016L599.223 146.75" stroke="white" stroke-width="0.591954" stroke-miterlimit="10"/>
<path d="M711.097 129.779L719.408 128.394" stroke="white" stroke-width="0.591954" stroke-miterlimit="10"/>
<path d="M704.378 178.609C704.378 178.609 708.32 181.379 708.32 185.535" stroke="white" stroke-width="0.591954" stroke-miterlimit="10"/>
<path d="M598.637 189.489C598.637 189.489 594.109 186.813 591.605 186.813" stroke="white" stroke-width="0.591954" stroke-miterlimit="10"/>
<path d="M592.99 315.055C592.99 315.055 592.99 325.769 588.006 329.007L592.99 315.055Z" fill="white"/>
<path d="M592.99 315.055C592.99 315.055 592.99 325.769 588.006 329.007" stroke="black" stroke-width="0.591954" stroke-miterlimit="10"/>
<path d="M628.022 346.86C628.022 346.86 624.949 335.583 619.432 329.107L628.022 346.86Z" fill="white"/>
<path d="M628.022 346.86C628.022 346.86 624.949 335.583 619.432 329.107" stroke="black" stroke-width="0.591954" stroke-miterlimit="10"/>
<path d="M618.722 332.849C618.722 332.849 624.139 338.449 625.382 341.302L618.722 332.849Z" fill="white"/>
<path d="M618.722 332.849C618.722 332.849 624.139 338.449 625.382 341.302" stroke="black" stroke-width="0.591954" stroke-miterlimit="10"/>
<path d="M138.6 451.145L137.18 452.299C137.635 451.884 138.109 451.494 138.6 451.145Z" fill="#3B3BE2"/>
<path d="M247.295 265.904L204.473 262.566C203.857 262.518 203.372 263.075 203.502 263.679L227.239 373.332C227.464 374.368 227.097 375.445 226.286 376.132L164.954 427.65C162.225 429.219 160.135 429.432 158.691 429.296C158.318 429.26 156.596 429.077 154.465 429.396C153.464 429.544 152.73 429.751 152.399 430.349C152.02 431.03 152.369 431.865 152.399 431.936C152.801 432.865 153.89 433.451 155.169 434.138C155.169 434.138 155.779 434.463 156.163 435.026C156.329 435.268 156.424 435.547 156.4 435.896C156.371 436.363 156.11 436.801 155.737 437.097C154.944 437.731 153.926 437.755 152.955 437.808C152.92 437.808 152.878 437.814 152.843 437.814C149.119 438.009 145.431 438.702 141.891 439.862C140.915 440.182 140.66 441.454 141.43 442.135L143.691 444.142C143.697 444.148 143.703 444.159 143.709 444.165L143.715 444.171C144.117 444.532 144.07 445.178 143.655 445.527L126.743 459.74C126.37 460.053 126.305 460.604 126.595 460.995L138.908 477.593C139.198 477.984 139.737 478.078 140.145 477.818L273.944 391.647C274.755 390.191 275.501 388.711 276.188 387.225C272.518 342.734 260.744 298.255 247.295 265.904ZM137.179 452.299C137.635 451.884 138.109 451.494 138.6 451.145L137.179 452.299Z" fill="white" stroke="black" stroke-width="0.591954" stroke-miterlimit="10"/>
<path d="M180.617 274.653L149.113 338.779C148.586 339.851 147.243 340.23 146.236 339.59L49.4993 278.134L36.7368 292.057C36.7368 292.057 140.583 397.063 156.246 398.804C171.909 400.544 246.75 270.012 246.75 270.012L184.672 271.172L180.617 274.653Z" fill="white" stroke="black" stroke-width="0.591954" stroke-miterlimit="10"/>
<path d="M208.036 182.776L252.101 127.57C252.646 126.89 252.806 125.978 252.528 125.155L229.518 57.2937L239.854 52.126L281.261 121.787C281.965 122.977 282.013 124.445 281.374 125.676L243.577 198.593C243.234 199.256 243.175 200.026 243.412 200.736C245.596 207.277 256.683 241.806 252.024 266.538L251.657 268.615C251.657 268.615 246.354 284.409 178.841 274.878L175.964 274.221C175.834 274.221 174.757 273.753 174.857 273.665C176.911 271.918 188.537 261.364 188.17 258.084C187.839 255.119 179.054 239.059 176.047 233.631C175.473 232.595 174.236 232.133 173.123 232.536L127.051 249.223C125.654 249.732 124.103 249.045 123.535 247.672L90.0718 166.574L101.088 161.188L134.865 214.795C135.569 215.92 136.978 216.381 138.215 215.902L184.897 197.865L208.036 182.776Z" fill="#05D3AB"/>
<path d="M186.229 136.136C186.229 136.136 203.674 149.893 203.005 156.938C202.336 163.982 196.292 171.701 196.292 171.701L208.036 182.77C208.036 182.77 208.705 208.272 184.885 197.871L173.141 169.013C173.141 169.013 161.396 173.376 162.071 163.307C162.071 163.307 164.084 158.944 169.453 159.951C169.453 159.957 155.696 130.767 186.229 136.136Z" fill="white" stroke="black" stroke-width="0.591954" stroke-miterlimit="10"/>
<path d="M170.341 160.264C170.341 160.264 172.419 158.701 172.194 154.877C172.134 153.841 172.259 153.202 172.567 152.74C174.052 150.532 176.45 150.71 178.853 148.887C182.926 145.797 180.292 140.226 184.915 136.539C186.448 135.319 186.981 135.733 188.159 134.455C190.58 131.827 190.615 127.57 189.893 124.96C188.022 118.188 178.498 113.281 172.294 115.583C167.641 117.312 165.173 122.977 161.645 131.098C160.692 133.289 160.97 132.987 160.402 134.123C155.731 143.387 147.308 143.091 146.71 148.117C146.337 151.278 149.557 152.409 150.297 159.577C150.463 161.193 150.309 161.211 150.528 162.354C151.132 165.515 153.062 169.268 156.371 171.701C158.058 172.944 159.212 173.038 160.751 174.891C161.473 175.761 161.71 176.531 162.746 177.744C164.759 180.094 177.172 179.42 177.172 179.42L173.147 169.019C173.147 169.019 165.428 172.375 162.409 167.006C162.409 167.006 159.65 158.328 170.341 160.264Z" fill="#03082B"/>
<path d="M230.211 56.1101L221.113 48.5391C221.113 48.5391 216.59 49.9597 216.566 49.9657C216.105 50.1077 215.116 49.8058 214.678 49.575C213.962 49.1902 213.897 48.4088 213.358 48.0122C212.612 47.4617 210.665 48.9001 210.262 47.6038C209.735 45.9285 209.025 46.0765 209.025 46.0765C209.025 46.0765 206.012 46.0529 206.166 44.9104C206.32 43.7679 211.026 36.8302 211.026 36.8302C211.026 36.8302 220.355 29.8274 224.605 30.8278C224.605 30.8278 231.578 36.8243 233.55 40.5418C235.521 44.2533 238.096 52.8248 238.096 52.8248L230.821 56.6784L230.211 56.1101Z" fill="white" stroke="black" stroke-width="0.591954" stroke-miterlimit="10"/>
<path d="M221.113 48.5453C221.113 48.5453 226.458 47.2489 228.269 45.8164" stroke="black" stroke-width="0.591954" stroke-miterlimit="10"/>
<path d="M210.452 43.4779L213.98 39.0797L218.455 37.1973" stroke="black" stroke-width="0.591954" stroke-miterlimit="10"/>
<path d="M214.264 46.1712L216.738 43.0279L220.456 41.7729" stroke="black" stroke-width="0.591954" stroke-miterlimit="10"/>
<path d="M98.9215 161.715L98.738 149.935C98.738 149.935 102.669 147.348 102.692 147.33C103.089 147.07 103.48 146.117 103.568 145.625C103.722 144.832 103.154 144.293 103.178 143.625C103.213 142.701 105.551 142.109 104.8 140.984C103.823 139.522 104.391 139.067 104.391 139.067C104.391 139.067 106.256 136.734 105.273 136.13C104.291 135.527 95.9617 134.781 95.9617 134.781C95.9617 134.781 84.6909 137.551 82.8085 141.452C82.8085 141.452 83.1045 150.604 84.7501 154.463C86.4017 158.323 91.4392 165.71 91.4392 165.71L98.9866 162.537L98.9215 161.715Z" fill="white" stroke="black" stroke-width="0.591954" stroke-miterlimit="10"/>
<path d="M98.7321 149.935C98.7321 149.935 94.3813 153.238 92.1378 153.723" stroke="black" stroke-width="0.591954" stroke-miterlimit="10"/>
<path d="M101.473 138.533L95.8493 138.474L91.5873 140.735" stroke="black" stroke-width="0.591954" stroke-miterlimit="10"/>
<path d="M101.177 143.163L97.1871 143.092L93.8899 145.164" stroke="black" stroke-width="0.591954" stroke-miterlimit="10"/>
<path d="M49.4993 278.134C48.5344 276.785 35.8548 266.881 35.8548 266.881L0.59211 304.524C0.59211 304.524 -3.19047 315.256 36.7427 292.057L49.4993 278.134Z" fill="#0C0C4F" stroke="#0C0C4F" stroke-width="0.591954" stroke-miterlimit="10"/>
<path d="M125.932 460.201C124.441 460.917 112.489 471.697 112.489 471.697L143.466 512.938C143.466 512.938 155.364 521.622 139.423 478.285L125.932 460.201Z" fill="#0C0C4F" stroke="#0C0C4F" stroke-width="0.591954" stroke-miterlimit="10"/>
<path d="M165.321 164.508C165.321 164.508 167.683 165.1 171.223 164.508" stroke="black" stroke-width="0.591954" stroke-miterlimit="10"/>
<path d="M179.942 271.818C179.942 271.818 222.936 280.241 248.863 268.361" stroke="black" stroke-width="0.591954" stroke-miterlimit="10"/>
<path d="M188.165 258.09C188.165 258.09 189.875 257.54 190.39 253.272" stroke="black" stroke-width="0.591954" stroke-miterlimit="10"/>
<path d="M135.865 215.855C135.865 215.855 131.112 224.065 133.059 229.251" stroke="black" stroke-width="0.591954" stroke-miterlimit="10"/>
<path d="M252.776 126.387C252.776 126.387 252.066 122.77 264.26 123.747" stroke="black" stroke-width="0.591954" stroke-miterlimit="10"/>
<path d="M232.082 58.4839L239.114 55.3584" stroke="black" stroke-width="0.591954" stroke-miterlimit="10"/>
<path d="M92.9606 168.682L100.253 165.036" stroke="black" stroke-width="0.591954" stroke-miterlimit="10"/>
<path d="M175.295 232.761C175.295 232.761 173.318 229.919 169.417 228.67" stroke="black" stroke-width="0.591954" stroke-miterlimit="10"/>
<path d="M243.246 200.221C243.133 199.884 242.228 196.817 241.772 195.343" stroke="black" stroke-width="0.591954" stroke-miterlimit="10"/>
<path d="M146.592 339.413C146.592 339.413 151.126 341.177 151.126 346.653" stroke="#020202" stroke-width="0.591954" stroke-miterlimit="10"/>
<path d="M226.008 376.469C226.008 376.469 229.211 372.728 234.088 371.639" stroke="#020202" stroke-width="0.591954" stroke-miterlimit="10"/>
<path d="M40.6674 293.572L51.2101 282.343" stroke="#020202" stroke-width="0.591954" stroke-miterlimit="10"/>
<path d="M130.141 459.592L140.69 474.219" stroke="#020202" stroke-width="0.591954" stroke-miterlimit="10"/>
<path d="M138.6 451.145L137.18 452.299C137.635 451.884 138.109 451.494 138.6 451.145Z" fill="#3B3BE2"/>
<path d="M305.324 45.3184L311.652 48.1893" stroke="black" stroke-width="1.18391" stroke-miterlimit="10"/>
<path d="M75.5394 364.34C78.1221 364.34 80.2158 362.246 80.2158 359.664C80.2158 357.081 78.1221 354.987 75.5394 354.987C72.9566 354.987 70.8629 357.081 70.8629 359.664C70.8629 362.246 72.9566 364.34 75.5394 364.34Z" fill="#84CFA6"/>
<path d="M34.5288 155.179L45.7996 169.262L58.9469 132.638L44.3908 157.523L34.5288 155.179Z" fill="#CC7D6C"/>
<path d="M131.142 217.246C138.358 223.177 138.488 247.353 137.742 256.25C136.392 272.398 130.846 287.434 123.866 300.546C116.236 314.871 105.972 327.634 99.33 343.297C91.8773 360.872 91.2262 382.212 94.0853 401.687C98.7972 433.789 112.495 464.434 129.099 488.177C130.763 490.551 132.468 492.872 134.261 495.074C122.227 475.089 111.862 452.299 104.302 428.757C97.0095 406.032 91.7589 377.92 99.7029 354.165C104.456 339.946 112.536 327.148 119.758 315.132C121.072 312.947 122.398 310.769 123.736 308.608C149.942 266.153 139.263 223.923 131.142 217.246Z" fill="#F97362"/>
<path d="M780.184 142.967C780.184 142.967 818.703 374.741 722.409 479.008C722.409 479.008 760.614 440.773 777.272 379.263C794.545 315.463 798.777 225.983 780.184 142.967Z" fill="#3B7564"/>
<path d="M88.438 472.366C92.6096 472.366 95.9914 468.984 95.9914 464.813C95.9914 460.641 92.6096 457.259 88.438 457.259C84.2664 457.259 80.8847 460.641 80.8847 464.813C80.8847 468.984 84.2664 472.366 88.438 472.366Z" fill="white" stroke="black" stroke-width="0.591954" stroke-miterlimit="10"/>
<path d="M77.6467 363.766C80.2294 363.766 82.3231 361.673 82.3231 359.09C82.3231 356.507 80.2294 354.414 77.6467 354.414C75.064 354.414 72.9703 356.507 72.9703 359.09C72.9703 361.673 75.064 363.766 77.6467 363.766Z" stroke="black" stroke-width="0.591954" stroke-miterlimit="10"/>
<path d="M302.613 271.705C304.519 271.705 306.064 270.15 306.064 268.231C306.064 266.312 304.519 264.756 302.613 264.756C300.707 264.756 299.162 266.312 299.162 268.231C299.162 270.15 300.707 271.705 302.613 271.705Z" fill="#05CDCD"/>
<path d="M308.834 43.2529L308.142 50.2617" stroke="black" stroke-width="1.18391" stroke-miterlimit="10"/>
<path d="M423.59 62.4143C426.569 62.4143 428.983 59.9999 428.983 57.0216C428.983 54.0433 426.569 51.6289 423.59 51.6289C420.612 51.6289 418.198 54.0433 418.198 57.0216C418.198 59.9999 420.612 62.4143 423.59 62.4143Z" fill="#000033"/>
<path d="M662.682 9.89258C665.167 9.89258 667.182 7.87786 667.182 5.39258C667.182 2.9073 665.167 0.892578 662.682 0.892578C660.197 0.892578 658.182 2.9073 658.182 5.39258C658.182 7.87786 660.197 9.89258 662.682 9.89258Z" stroke="black" stroke-width="0.591954" stroke-miterlimit="10"/>
<path d="M750.051 23.0262L757.42 19.1963L756.012 27.3001L761.973 33.0421L753.739 34.226L750.051 41.6017L746.369 34.226L738.135 33.0421L744.096 27.3001L742.687 19.1963L750.051 23.0262Z" fill="#05CDCD"/>
<path d="M115.005 62.1359L119.859 59.5728L118.936 65.0069L122.86 68.8546L117.432 69.6478L115.005 74.5906L112.578 69.6478L107.144 68.8546L111.074 65.0069L110.145 59.5728L115.005 62.1359Z" fill="#FF6666"/>
<path d="M799.325 113.025C801.534 113.025 803.325 111.235 803.325 109.025C803.325 106.816 801.534 105.025 799.325 105.025C797.116 105.025 795.325 106.816 795.325 109.025C795.325 111.235 797.116 113.025 799.325 113.025Z" fill="#FF6666"/>
<path d="M809.083 448.629C812.061 448.629 814.475 446.053 814.475 442.875C814.475 439.698 812.061 437.122 809.083 437.122C806.104 437.122 803.69 439.698 803.69 442.875C803.69 446.053 806.104 448.629 809.083 448.629Z" fill="#FA969E"/>
<path d="M579.37 65.4386C580.258 73.6312 586.947 78.3787 593.039 79.1305C596.016 79.4975 599.136 79.2074 601.782 77.325C604.428 75.4426 606.5 71.7251 606.435 67.6821C606.369 63.639 603.7 59.738 600.728 60.1169C599.088 63.8048 600.266 68.9015 602.699 71.6837C605.132 74.4599 608.465 75.3183 611.65 75.3597C613.994 75.3893 616.433 74.9868 618.404 73.2701C623.139 69.1324 623.057 59.892 622.429 52.3149" stroke="black" stroke-width="0.591954" stroke-miterlimit="10"/>
<path d="M748.334 23.6824L755.698 19.8584L754.289 27.9622L760.25 33.7042L752.016 34.8881L748.334 42.2639L744.652 34.8881L736.412 33.7042L742.373 27.9622L740.964 19.8584L748.334 23.6824Z" stroke="black" stroke-width="0.591954" stroke-miterlimit="10"/>
<path d="M116.473 60.8459L121.327 58.2827L120.404 63.7168L124.328 67.5645L118.9 68.3578L116.473 73.3006L114.046 68.3578L108.612 67.5645L112.542 63.7168L111.613 58.2827L116.473 60.8459Z" stroke="black" stroke-width="0.591954" stroke-miterlimit="10"/>
<path d="M797.289 113.025C799.498 113.025 801.289 111.235 801.289 109.025C801.289 106.816 799.498 105.025 797.289 105.025C795.08 105.025 793.289 106.816 793.289 109.025C793.289 111.235 795.08 113.025 797.289 113.025Z" stroke="black" stroke-width="0.591954" stroke-miterlimit="10"/>
<path d="M104.658 263.389C105.576 263.389 106.321 262.633 106.321 261.702C106.321 260.77 105.576 260.015 104.658 260.015C103.739 260.015 102.994 260.77 102.994 261.702C102.994 262.633 103.739 263.389 104.658 263.389Z" fill="white" stroke="black" stroke-width="0.591954" stroke-miterlimit="10"/>
<path d="M525.418 299.776C525.964 299.776 526.407 299.299 526.407 298.711C526.407 298.122 525.964 297.645 525.418 297.645C524.872 297.645 524.43 298.122 524.43 298.711C524.43 299.299 524.872 299.776 525.418 299.776Z" fill="white" stroke="black" stroke-width="0.591954" stroke-miterlimit="10"/>
<path d="M557.313 242.41C558.169 242.41 558.864 241.707 558.864 240.841C558.864 239.975 558.169 239.272 557.313 239.272C556.456 239.272 555.762 239.975 555.762 240.841C555.762 241.707 556.456 242.41 557.313 242.41Z" fill="#05CDCD"/>
</svg>
